<svg width="101" height="234" viewBox="0 0 101 234" fill="none" xmlns="http://www.w3.org/2000/svg">
<g style="mix-blend-mode:lighten">
<mask id="mask0_1_332" style="mask-type:luminance" maskUnits="userSpaceOnUse" x="0" y="0" width="101" height="234">
<path d="M46.8511 226.96V36.6599C46.8511 30.5599 54.2211 27.5098 58.5411 31.8198C62.8511 36.1298 59.8011 43.4999 53.7011 43.4999H6.96109C3.18109 43.4999 0.121094 40.4399 0.121094 36.6599V6.94983C0.121094 3.16983 3.18109 0.109863 6.96109 0.109863H94.1011C97.8811 0.109863 100.941 3.16983 100.941 6.94983V226.96C100.941 230.74 97.8811 233.8 94.1011 233.8H53.7111C49.9311 233.8 46.8711 230.74 46.8711 226.96H46.8511Z" fill="white"/>
</mask>
<g mask="url(#mask0_1_332)">
<path d="M100.941 1.16992L94.9211 0.109863H100.941V1.16992Z" fill="#179FAE"/>
<path d="M100.941 2.22986L88.9111 0.109863H94.9211L100.941 1.16992V2.22986Z" fill="#18A0AF"/>
<path d="M100.941 3.28992L82.9011 0.109863H88.9111L100.941 2.22986V3.28992Z" fill="#19A1B0"/>
<path d="M100.941 4.34985L76.8911 0.109863H82.9011L100.941 3.28992V4.34985Z" fill="#1AA2B0"/>
<path d="M100.941 5.40991L70.8711 0.109863H76.8911L100.941 4.34985V5.40991Z" fill="#1BA3B1"/>
<path d="M100.941 6.46985L64.8611 0.109863H70.8711L100.941 5.40991V6.46985Z" fill="#1DA3B2"/>
<path d="M100.941 7.52991L58.8511 0.109863H64.8611L100.941 6.46985V7.52991Z" fill="#1EA4B3"/>
<path d="M100.941 8.58984L52.8311 0.109863H58.8511L100.941 7.52991V8.58984Z" fill="#1FA5B4"/>
<path d="M100.941 9.6499L46.8211 0.109863H52.8311L100.941 8.58984V9.6499Z" fill="#20A6B4"/>
<path d="M100.941 10.7098L40.8111 0.109863H46.8211L100.941 9.6499V10.7098Z" fill="#21A7B5"/>
<path d="M100.941 11.7699L34.7911 0.109863H40.8111L100.941 10.7098V11.7699Z" fill="#22A8B6"/>
<path d="M100.941 12.8298L28.7811 0.109863H34.7911L100.941 11.7699V12.8298Z" fill="#23A8B7"/>
<path d="M100.941 13.8899L22.7711 0.109863H28.7811L100.941 12.8298V13.8899Z" fill="#24A9B8"/>
<path d="M100.941 14.9498L16.7511 0.109863H22.7711L100.941 13.8899V14.9498Z" fill="#25AAB9"/>
<path d="M100.941 16.0099L10.7411 0.109863H16.7511L100.941 14.9498V16.0099Z" fill="#26ABB9"/>
<path d="M100.941 17.0698L4.73108 0.109863H10.7411L100.941 16.0099V17.0698Z" fill="#27ACBA"/>
<path d="M100.941 18.1299L0.111084 0.349854V0.109863H4.73109L100.941 17.0698V18.1299Z" fill="#29ACBB"/>
<path d="M100.941 19.1901L0.111084 1.41016V0.350098L100.941 18.1301V19.1901Z" fill="#2AADBC"/>
<path d="M100.941 20.2501L0.111084 2.47009V1.41016L100.941 19.1901V20.2501Z" fill="#2BAEBD"/>
<path d="M100.941 21.3101L0.111084 3.53003V2.46997L100.941 20.25V21.3101Z" fill="#2CAFBD"/>
<path d="M100.941 22.37L0.111084 4.58997V3.53003L100.941 21.3101V22.37Z" fill="#2DB0BE"/>
<path d="M100.941 23.4299L0.111084 5.6499V4.58984L100.941 22.3699V23.4299Z" fill="#2EB1BF"/>
<path d="M100.941 24.4899L0.111084 6.70984V5.6499L100.941 23.4299V24.4899Z" fill="#2FB2C0"/>
<path d="M100.941 25.55L0.111084 7.77002V6.70996L100.941 24.49V25.55Z" fill="#30B2C0"/>
<path d="M100.941 26.61L0.111084 8.82996V7.77002L100.941 25.55V26.61Z" fill="#31B3C1"/>
<path d="M100.941 27.6702L0.111084 9.89014V8.83008L100.941 26.6101V27.6702Z" fill="#32B4C2"/>
<path d="M100.941 28.7301L0.111084 10.9601V9.89014L100.941 27.6702V28.7301Z" fill="#33B5C3"/>
<path d="M100.941 29.79L0.111084 12.02V10.96L100.941 28.73V29.79Z" fill="#34B5C4"/>
<path d="M100.941 30.85L0.111084 13.08V12.02L100.941 29.79V30.85Z" fill="#35B6C4"/>
<path d="M100.941 31.9102L0.111084 14.1401V13.0801L100.941 30.8501V31.9102Z" fill="#36B7C5"/>
<path d="M100.941 32.9701L0.111084 15.2001V14.1401L100.941 31.9102V32.9701Z" fill="#38B8C6"/>
<path d="M100.941 34.03L0.111084 16.26V15.2L100.941 32.97V34.03Z" fill="#39B9C7"/>
<path d="M100.941 35.09L0.111084 17.3199V16.26L100.941 34.03V35.09Z" fill="#3ABAC8"/>
<path d="M100.941 36.1599L0.111084 18.3799V17.3198L100.941 35.0898V36.1599Z" fill="#3BBAC8"/>
<path d="M100.941 37.2198L0.111084 19.4398V18.3799L100.941 36.1599V37.2198Z" fill="#3CBBC9"/>
<path d="M100.941 38.28L0.111084 20.5V19.4399L100.941 37.22V38.28Z" fill="#3DBCCA"/>
<path d="M100.941 39.34L0.111084 21.5601V20.5L100.941 38.28V39.34Z" fill="#3EBDCB"/>
<path d="M100.941 40.4L0.111084 22.62V21.5601L100.941 39.34V40.4Z" fill="#3FBECB"/>
<path d="M100.941 41.4601L0.111084 23.6802V22.6201L100.941 40.4001V41.4601Z" fill="#40BECC"/>
<path d="M100.941 42.5201L0.111084 24.7401V23.6802L100.941 41.4601V42.5201Z" fill="#41BFCD"/>
<path d="M100.941 43.58L0.111084 25.8V24.74L100.941 42.52V43.58Z" fill="#42C0CE"/>
<path d="M100.941 44.64L0.111084 26.86V25.8L100.941 43.58V44.64Z" fill="#43C1CE"/>
<path d="M100.941 45.6998L0.111084 27.9199V26.8599L100.941 44.6399V45.6998Z" fill="#44C2CF"/>
<path d="M100.941 46.7599L0.111084 28.9799V27.9199L100.941 45.6998V46.7599Z" fill="#45C3D0"/>
<path d="M100.941 47.8199L0.111084 30.04V28.98L100.941 46.76V47.8199Z" fill="#46C4D1"/>
<path d="M100.941 48.88L0.111084 31.1V30.04L100.941 47.8199V48.88Z" fill="#47C4D1"/>
<path d="M100.941 49.9401L0.111084 32.1602V31.1001L100.941 48.8801V49.9401Z" fill="#48C5D2"/>
<path d="M100.941 51.0001L0.111084 33.2201V32.1602L100.941 49.9401V51.0001Z" fill="#49C6D3"/>
<path d="M100.941 52.0601L0.111084 34.28V33.22L100.941 51V52.0601Z" fill="#4AC6D4"/>
<path d="M100.941 53.12L0.111084 35.34V34.28L100.941 52.0601V53.12Z" fill="#4BC7D4"/>
<path d="M100.941 54.1799L0.111084 36.3999V35.3398L100.941 53.1199V54.1799Z" fill="#4CC8D5"/>
<path d="M100.941 55.2399L0.111084 37.4598V36.3999L100.941 54.1799V55.2399Z" fill="#4DC9D6"/>
<path d="M100.941 56.3L0.111084 38.52V37.46L100.941 55.24V56.3Z" fill="#4ECAD7"/>
<path d="M100.941 57.36L0.111084 39.58V38.52L100.941 56.3V57.36Z" fill="#4FCBD7"/>
<path d="M100.941 58.4202L0.111084 40.6401V39.5801L100.941 57.3601V58.4202Z" fill="#50CCD8"/>
<path d="M100.941 59.4801L0.111084 41.7001V40.6401L100.941 58.4202V59.4801Z" fill="#51CCD9"/>
<path d="M100.941 60.54L0.111084 42.76V41.7L100.941 59.48V60.54Z" fill="#52CDDA"/>
<path d="M100.941 61.6L0.111084 43.8199V42.76L100.941 60.54V61.6Z" fill="#53CDDA"/>
<path d="M100.941 62.6599L0.111084 44.8799V43.8198L100.941 61.5999V62.6599Z" fill="#54CEDB"/>
<path d="M100.941 63.7198L0.111084 45.9398V44.8799L100.941 62.6599V63.7198Z" fill="#55CFDC"/>
<path d="M100.941 64.78L0.111084 47V45.9399L100.941 63.72V64.78Z" fill="#56D0DC"/>
<path d="M100.941 65.84L0.111084 48.0601V47L100.941 64.78V65.84Z" fill="#57D0DD"/>
<path d="M100.941 66.9L0.111084 49.13V48.0601L100.941 65.84V66.9Z" fill="#58D1DE"/>
<path d="M100.941 67.9598L0.111084 50.1898V49.1299L100.941 66.8999V67.9598Z" fill="#59D1DE"/>
<path d="M100.941 69.02L0.111084 51.25V50.1899L100.941 67.96V69.02Z" fill="#5AD2DF"/>
<path d="M100.941 70.08L0.111084 52.3101V51.25L100.941 69.02V70.08Z" fill="#5BD3E0"/>
<path d="M100.941 71.14L0.111084 53.37V52.3101L100.941 70.08V71.14Z" fill="#5CD3E0"/>
<path d="M100.941 72.2001L0.111084 54.4302V53.3701L100.941 71.1401V72.2001Z" fill="#5CD4E1"/>
<path d="M100.941 73.2601L0.111084 55.4901V54.4302L100.941 72.2001V73.2601Z" fill="#5DD5E2"/>
<path d="M100.941 74.33L0.111084 56.55V55.49L100.941 73.26V74.33Z" fill="#5ED6E2"/>
<path d="M100.941 75.39L0.111084 57.61V56.55L100.941 74.33V75.39Z" fill="#5FD7E3"/>
<path d="M100.941 76.4498L0.111084 58.6699V57.6099L100.941 75.3899V76.4498Z" fill="#60D7E4"/>
<path d="M100.941 77.5099L0.111084 59.7299V58.6699L100.941 76.4498V77.5099Z" fill="#61D8E4"/>
<path d="M100.941 78.5699L0.111084 60.79V59.73L100.941 77.51V78.5699Z" fill="#62D9E5"/>
<path d="M100.941 79.63L0.111084 61.85V60.79L100.941 78.5699V79.63Z" fill="#62D9E5"/>
<path d="M100.941 80.6901L0.111084 62.9102V61.8501L100.941 79.6301V80.6901Z" fill="#63DAE6"/>
<path d="M100.941 81.3901L0.111084 63.6101V62.9102L100.941 80.6901V81.3901Z" fill="#63DAE6"/>
<path d="M100.941 82.0898L0.111084 64.3099V63.6099L100.941 81.3899V82.0898Z" fill="#62D8E4"/>
<path d="M100.941 82.79L0.111084 65.02V64.3101L100.941 82.09V82.79Z" fill="#62D7E3"/>
<path d="M100.941 83.5L0.111084 65.72V65.02L100.941 82.79V83.5Z" fill="#61D5E1"/>
<path d="M100.941 84.2L0.111084 66.42V65.72L100.941 83.5V84.2Z" fill="#60D4E0"/>
<path d="M100.941 84.8999L0.111084 67.1199V66.4199L100.941 84.1998V84.8999Z" fill="#60D2DE"/>
<path d="M100.941 85.6001L0.111084 67.8301V67.1201L100.941 84.9001V85.6001Z" fill="#5FD1DC"/>
<path d="M100.941 86.3102L0.111084 68.5302V67.8301L100.941 85.6001V86.3102Z" fill="#5ED0DB"/>
<path d="M100.941 87.01L0.111084 69.23V68.53L100.941 86.3101V87.01Z" fill="#5DCED9"/>
<path d="M100.941 87.71L0.111084 69.9301V69.23L100.941 87.01V87.71Z" fill="#5DCCD8"/>
<path d="M100.941 88.4102L0.111084 70.6401V69.9302L100.941 87.7101V88.4102Z" fill="#5CCAD6"/>
<path d="M100.941 89.1201L0.111084 71.3401V70.6401L100.941 88.4102V89.1201Z" fill="#5BC9D4"/>
<path d="M100.941 89.8198L0.111084 72.0399V71.3398L100.941 89.1199V89.8198Z" fill="#5BC8D3"/>
<path d="M100.941 90.52L0.111084 72.74V72.04L100.941 89.8199V90.52Z" fill="#5AC6D1"/>
<path d="M100.941 91.22L0.111084 73.45V72.74L100.941 90.52V91.22Z" fill="#59C5D0"/>
<path d="M100.941 91.9301L0.111084 74.15V73.45L100.941 91.22V91.9301Z" fill="#59C3CE"/>
<path d="M100.941 92.6299L0.111084 74.8499V74.1499L100.941 91.9299V92.6299Z" fill="#58C2CD"/>
<path d="M100.941 93.3301L0.111084 75.5502V74.8501L100.941 92.6301V93.3301Z" fill="#57C0CB"/>
<path d="M100.941 94.03L0.111084 76.26V75.55L100.941 93.33V94.03Z" fill="#57BFCA"/>
<path d="M100.941 94.74L0.111084 76.96V76.26L100.941 94.03V94.74Z" fill="#56BEC8"/>
<path d="M100.941 95.4399L0.111084 77.66V76.96L100.941 94.74V95.4399Z" fill="#55BDC7"/>
<path d="M100.941 96.1401L0.111084 78.3601V77.6602L100.941 95.4401V96.1401Z" fill="#55BBC5"/>
<path d="M100.941 96.8398L0.111084 79.0698V78.3599L100.941 96.1399V96.8398Z" fill="#54BAC4"/>
<path d="M100.941 97.5499L0.111084 79.7699V79.0698L100.941 96.8398V97.5499Z" fill="#53B7C2"/>
<path d="M100.941 98.25L0.111084 80.47V79.77L100.941 97.55V98.25Z" fill="#53B6C0"/>
<path d="M100.941 98.95L0.111084 81.17V80.47L100.941 98.25V98.95Z" fill="#52B5BF"/>
<path d="M100.941 99.6499L0.111084 81.8799V81.1699L100.941 98.9498V99.6499Z" fill="#52B3BD"/>
<path d="M100.941 100.36L0.111084 82.5798V81.8799L100.941 99.6499V100.36Z" fill="#51B2BC"/>
<path d="M100.941 101.06L0.111084 83.2802V82.5801L100.941 100.36V101.06Z" fill="#50B1BA"/>
<path d="M100.941 101.76L0.111084 83.98V83.28L100.941 101.06V101.76Z" fill="#50AFB9"/>
<path d="M100.941 102.46L0.111084 84.6899V83.98L100.941 101.76V102.46Z" fill="#4FAEB7"/>
<path d="M100.941 103.17L0.111084 85.39V84.6899L100.941 102.46V103.17Z" fill="#4EADB6"/>
<path d="M100.941 103.87L0.111084 86.0901V85.3901L100.941 103.17V103.87Z" fill="#4EAAB5"/>
<path d="M100.941 104.57L0.111084 86.7899V86.0898L100.941 103.87V104.57Z" fill="#4DA9B3"/>
<path d="M100.941 105.27L0.111084 87.5V86.79L100.941 104.57V105.27Z" fill="#4CA8B2"/>
<path d="M100.941 105.98L0.111084 88.2V87.5L100.941 105.27V105.98Z" fill="#4CA6B0"/>
<path d="M100.941 106.68L0.111084 88.9V88.2L100.941 105.98V106.68Z" fill="#4BA5AF"/>
<path d="M100.941 107.38L0.111084 89.5999V88.8999L100.941 106.68V107.38Z" fill="#4BA4AD"/>
<path d="M100.941 108.08L0.111084 90.3102V89.6001L100.941 107.38V108.08Z" fill="#4AA3AC"/>
<path d="M100.941 108.79L0.111084 91.01V90.3101L100.941 108.08V108.79Z" fill="#49A1AA"/>
<path d="M100.941 109.49L0.111084 91.71V91.01L100.941 108.79V109.49Z" fill="#49A0A9"/>
<path d="M100.941 110.19L0.111084 92.41V91.71L100.941 109.49V110.19Z" fill="#489FA7"/>
<path d="M100.941 110.89L0.111084 93.1201V92.4102L100.941 110.19V110.89Z" fill="#479EA6"/>
<path d="M100.941 111.6L0.111084 93.8201V93.1201L100.941 110.89V111.6Z" fill="#479CA5"/>
<path d="M100.941 112.3L0.111084 94.5199V93.8198L100.941 111.6V112.3Z" fill="#469BA3"/>
<path d="M100.941 113L0.111084 95.22V94.52L100.941 112.3V113Z" fill="#4699A2"/>
<path d="M100.941 113.7L0.111084 95.9301V95.22L100.941 113V113.7Z" fill="#4598A0"/>
<path d="M100.941 114.41L0.111084 96.6301V95.9302L100.941 113.7V114.41Z" fill="#44969F"/>
<path d="M100.941 115.11L0.111084 97.3298V96.6299L100.941 114.41V115.11Z" fill="#44959E"/>
<path d="M100.941 115.81L0.111084 98.0302V97.3301L100.941 115.11V115.81Z" fill="#43939C"/>
<path d="M100.941 116.51L0.111084 98.74V98.03L100.941 115.81V116.51Z" fill="#43929B"/>
<path d="M100.941 117.22L0.111084 99.4399V98.74L100.941 116.51V117.22Z" fill="#429199"/>
<path d="M100.941 117.92L0.111084 100.14V99.4399L100.941 117.22V117.92Z" fill="#419098"/>
<path d="M100.941 118.62L0.111084 100.84V100.14L100.941 117.92V118.62Z" fill="#418E97"/>
<path d="M100.941 119.32L0.111084 101.54V100.84L100.941 118.62V119.32Z" fill="#408D95"/>
<path d="M100.941 120.03L0.111084 102.25V101.54L100.941 119.32V120.03Z" fill="#408C94"/>
<path d="M100.941 120.73L0.111084 102.95V102.25L100.941 120.03V120.73Z" fill="#3F8A92"/>
<path d="M100.941 121.43L0.111084 103.65V102.95L100.941 120.73V121.43Z" fill="#3E8991"/>
<path d="M100.941 122.13L0.111084 104.35V103.65L100.941 121.43V122.13Z" fill="#3E8890"/>
<path d="M100.941 122.84L0.111084 105.06V104.35L100.941 122.13V122.84Z" fill="#3D868E"/>
<path d="M100.941 123.54L0.111084 105.76V105.06L100.941 122.84V123.54Z" fill="#3D858D"/>
<path d="M100.941 124.24L0.111084 106.46V105.76L100.941 123.54V124.24Z" fill="#3C848C"/>
<path d="M100.941 124.94L0.111084 107.16V106.46L100.941 124.24V124.94Z" fill="#3C828A"/>
<path d="M100.941 125.65L0.111084 107.87V107.16L100.941 124.94V125.65Z" fill="#3B8189"/>
<path d="M100.941 126.35L0.111084 108.57V107.87L100.941 125.65V126.35Z" fill="#3A8088"/>
<path d="M100.941 127.05L0.111084 109.27V108.57L100.941 126.35V127.05Z" fill="#3A7F86"/>
<path d="M100.941 127.75L0.111084 109.97V109.27L100.941 127.05V127.75Z" fill="#397E85"/>
<path d="M100.941 128.46L0.111084 110.68V109.97L100.941 127.75V128.46Z" fill="#397C84"/>
<path d="M100.941 129.16L0.111084 111.38V110.68L100.941 128.46V129.16Z" fill="#387B82"/>
<path d="M100.941 129.86L0.111084 112.08V111.38L100.941 129.16V129.86Z" fill="#387A81"/>
<path d="M100.941 130.56L0.111084 112.78V112.08L100.941 129.86V130.56Z" fill="#377A80"/>
<path d="M100.941 131.27L0.111084 113.49V112.78L100.941 130.56V131.27Z" fill="#36797F"/>
<path d="M100.941 131.97L0.111084 114.19V113.49L100.941 131.27V131.97Z" fill="#36777D"/>
<path d="M100.941 132.67L0.111084 114.89V114.19L100.941 131.97V132.67Z" fill="#35767C"/>
<path d="M100.941 133.37L0.111084 115.59V114.89L100.941 132.67V133.37Z" fill="#35747B"/>
<path d="M100.941 134.08L0.111084 116.3V115.59L100.941 133.37V134.08Z" fill="#347379"/>
<path d="M100.941 134.78L0.111084 117V116.3L100.941 134.08V134.78Z" fill="#347278"/>
<path d="M100.941 135.48L0.111084 117.7V117L100.941 134.78V135.48Z" fill="#337177"/>
<path d="M100.941 136.18L0.111084 118.4V117.7L100.941 135.48V136.18Z" fill="#336F76"/>
<path d="M100.941 136.89L0.111084 119.11V118.4L100.941 136.18V136.89Z" fill="#326E74"/>
<path d="M100.941 137.59L0.111084 119.81V119.11L100.941 136.89V137.59Z" fill="#326D73"/>
<path d="M100.941 138.29L0.111084 120.51V119.81L100.941 137.59V138.29Z" fill="#316C72"/>
<path d="M100.941 138.99L0.111084 121.21V120.51L100.941 138.29V138.99Z" fill="#316A71"/>
<path d="M100.941 139.7L0.111084 121.92V121.21L100.941 138.99V139.7Z" fill="#30696F"/>
<path d="M100.941 140.4L0.111084 122.62V121.92L100.941 139.7V140.4Z" fill="#2F686E"/>
<path d="M100.941 141.1L0.111084 123.32V122.62L100.941 140.4V141.1Z" fill="#2F686D"/>
<path d="M100.941 141.8L0.111084 124.02V123.32L100.941 141.1V141.8Z" fill="#2E676C"/>
<path d="M100.941 142.5L0.111084 124.73V124.02L100.941 141.8V142.5Z" fill="#2E656B"/>
<path d="M100.941 143.21L0.111084 125.43V124.73L100.941 142.5V143.21Z" fill="#2D6469"/>
<path d="M100.941 143.91L0.111084 126.13V125.43L100.941 143.21V143.91Z" fill="#2D6268"/>
<path d="M100.941 144.61L0.111084 126.83V126.13L100.941 143.91V144.61Z" fill="#2C6167"/>
<path d="M100.941 145.31L0.111084 127.54V126.83L100.941 144.61V145.31Z" fill="#2C6066"/>
<path d="M100.941 146.02L0.111084 128.24V127.54L100.941 145.31V146.02Z" fill="#2B5F65"/>
<path d="M100.941 146.72L0.111084 128.94V128.24L100.941 146.02V146.72Z" fill="#2B5E63"/>
<path d="M100.941 147.42L0.111084 129.64V128.94L100.941 146.72V147.42Z" fill="#2A5D62"/>
<path d="M100.941 148.12L0.111084 130.35V129.64L100.941 147.42V148.12Z" fill="#2A5C61"/>
<path d="M100.941 148.83L0.111084 131.05V130.35L100.941 148.12V148.83Z" fill="#295B60"/>
<path d="M100.941 149.53L0.111084 131.75V131.05L100.941 148.83V149.53Z" fill="#295A5F"/>
<path d="M100.941 150.23L0.111084 132.45V131.75L100.941 149.53V150.23Z" fill="#28595E"/>
<path d="M100.941 150.93L0.111084 133.16V132.45L100.941 150.23V150.93Z" fill="#28575C"/>
<path d="M100.941 151.64L0.111084 133.86V133.16L100.941 150.93V151.64Z" fill="#27575B"/>
<path d="M100.941 152.34L0.111084 134.56V133.86L100.941 151.64V152.34Z" fill="#27565A"/>
<path d="M100.941 153.04L0.111084 135.26V134.56L100.941 152.34V153.04Z" fill="#265559"/>
<path d="M100.941 153.74L0.111084 135.97V135.26L100.941 153.04V153.74Z" fill="#265358"/>
<path d="M100.941 154.45L0.111084 136.67V135.97L100.941 153.74V154.45Z" fill="#255257"/>
<path d="M100.941 155.15L0.111084 137.37V136.67L100.941 154.45V155.15Z" fill="#255156"/>
<path d="M100.941 155.85L0.111084 138.07V137.37L100.941 155.15V155.85Z" fill="#245155"/>
<path d="M100.941 156.55L0.111084 138.78V138.07L100.941 155.85V156.55Z" fill="#244F54"/>
<path d="M100.941 157.26L0.111084 139.48V138.78L100.941 156.55V157.26Z" fill="#234E52"/>
<path d="M100.941 157.96L0.111084 140.18V139.48L100.941 157.26V157.96Z" fill="#234D51"/>
<path d="M100.941 158.66L0.111084 140.88V140.18L100.941 157.96V158.66Z" fill="#234B50"/>
<path d="M100.941 159.36L0.111084 141.59V140.88L100.941 158.66V159.36Z" fill="#224A4F"/>
<path d="M100.941 160.07L0.111084 142.29V141.59L100.941 159.36V160.07Z" fill="#224A4E"/>
<path d="M100.941 160.77L0.111084 142.99V142.29L100.941 160.07V160.77Z" fill="#21494D"/>
<path d="M100.941 161.47L0.111084 143.69V142.99L100.941 160.77V161.47Z" fill="#21484C"/>
<path d="M100.941 162.17L0.111084 144.4V143.69L100.941 161.47V162.17Z" fill="#20474B"/>
<path d="M100.941 162.88L0.111084 145.1V144.4L100.941 162.17V162.88Z" fill="#20464A"/>
<path d="M100.941 163.58L0.111084 145.8V145.1L100.941 162.88V163.58Z" fill="#1F4549"/>
<path d="M100.941 164.28L0.111084 146.5V145.8L100.941 163.58V164.28Z" fill="#1F4448"/>
<path d="M100.941 164.98L0.111084 147.21V146.5L100.941 164.28V164.98Z" fill="#1E4347"/>
<path d="M100.941 165.69L0.111084 147.91V147.21L100.941 164.98V165.69Z" fill="#1E4246"/>
<path d="M100.941 166.39L0.111084 148.61V147.91L100.941 165.69V166.39Z" fill="#1E4145"/>
<path d="M100.941 167.09L0.111084 149.31V148.61L100.941 166.39V167.09Z" fill="#1D4044"/>
<path d="M100.941 167.79L0.111084 150.02V149.31L100.941 167.09V167.79Z" fill="#1D3F43"/>
<path d="M100.941 168.5L0.111084 150.72V150.02L100.941 167.79V168.5Z" fill="#1C3E42"/>
<path d="M100.941 169.2L0.111084 151.42V150.72L100.941 168.5V169.2Z" fill="#1C3D41"/>
<path d="M100.941 169.9L0.111084 152.12V151.42L100.941 169.2V169.9Z" fill="#1B3C40"/>
<path d="M100.941 170.6L0.111084 152.83V152.12L100.941 169.9V170.6Z" fill="#1B3B3F"/>
<path d="M100.941 171.31L0.111084 153.53V152.83L100.941 170.6V171.31Z" fill="#1B3B3E"/>
<path d="M100.941 172.01L0.111084 154.23V153.53L100.941 171.31V172.01Z" fill="#1A3A3D"/>
<path d="M100.941 172.71L0.111084 154.93V154.23L100.941 172.01V172.71Z" fill="#1A383C"/>
<path d="M100.941 173.41L0.111084 155.64V154.93L100.941 172.71V173.41Z" fill="#19373B"/>
<path d="M100.941 174.12L0.111084 156.34V155.64L100.941 173.41V174.12Z" fill="#19373A"/>
<path d="M100.941 174.82L0.111084 157.04V156.34L100.941 174.12V174.82Z" fill="#183639"/>
<path d="M100.941 175.52L0.111084 157.74V157.04L100.941 174.82V175.52Z" fill="#183538"/>
<path d="M100.941 176.22L0.111084 158.45V157.74L100.941 175.52V176.22Z" fill="#183437"/>
<path d="M100.941 176.93L0.111084 159.15V158.45L100.941 176.22V176.93Z" fill="#173336"/>
<path d="M100.941 177.63L0.111084 159.85V159.15L100.941 176.93V177.63Z" fill="#173235"/>
<path d="M100.941 178.33L0.111084 160.55V159.85L100.941 177.63V178.33Z" fill="#163234"/>
<path d="M100.941 179.03L0.111084 161.26V160.55L100.941 178.33V179.03Z" fill="#163133"/>
<path d="M100.941 179.74L0.111084 161.96V161.26L100.941 179.03V179.74Z" fill="#162F32"/>
<path d="M100.941 180.44L0.111084 162.66V161.96L100.941 179.74V180.44Z" fill="#152E31"/>
<path d="M100.941 181.14L0.111084 163.36V162.66L100.941 180.44V181.14Z" fill="#152E30"/>
<path d="M100.941 181.84L0.111084 164.07V163.36L100.941 181.14V181.84Z" fill="#142D30"/>
<path d="M100.941 182.55L0.111084 164.77V164.07L100.941 181.84V182.55Z" fill="#142D2F"/>
<path d="M100.941 183.25L0.111084 165.47V164.77L100.941 182.55V183.25Z" fill="#142B2E"/>
<path d="M100.941 183.95L0.111084 166.17V165.47L100.941 183.25V183.95Z" fill="#132A2D"/>
<path d="M100.941 184.65L0.111084 166.88V166.17L100.941 183.95V184.65Z" fill="#132A2C"/>
<path d="M100.941 185.36L0.111084 167.58V166.88L100.941 184.65V185.36Z" fill="#13292B"/>
<path d="M100.941 186.06L0.111084 168.28V167.58L100.941 185.36V186.06Z" fill="#12282A"/>
<path d="M100.941 186.76L0.111084 168.98V168.28L100.941 186.06V186.76Z" fill="#122729"/>
<path d="M100.941 187.46L0.111084 169.69V168.98L100.941 186.76V187.46Z" fill="#112729"/>
<path d="M100.941 188.17L0.111084 170.39V169.69L100.941 187.46V188.17Z" fill="#112528"/>
<path d="M100.941 188.87L0.111084 171.09V170.39L100.941 188.17V188.87Z" fill="#112527"/>
<path d="M100.941 189.57L0.111084 171.79V171.09L100.941 188.87V189.57Z" fill="#102426"/>
<path d="M100.941 190.27L0.111084 172.5V171.79L100.941 189.57V190.27Z" fill="#102425"/>
<path d="M100.941 190.98L0.111084 173.2V172.5L100.941 190.27V190.98Z" fill="#102325"/>
<path d="M100.941 191.68L0.111084 173.9V173.2L100.941 190.98V191.68Z" fill="#0F2224"/>
<path d="M100.941 192.38L0.111084 174.6V173.9L100.941 191.68V192.38Z" fill="#0F2123"/>
<path d="M100.941 193.08L0.111084 175.31V174.6L100.941 192.38V193.08Z" fill="#0F2022"/>
<path d="M100.941 193.79L0.111084 176.01V175.31L100.941 193.08V193.79Z" fill="#0E2021"/>
<path d="M100.941 194.49L0.111084 176.71V176.01L100.941 193.79V194.49Z" fill="#0E1F21"/>
<path d="M100.941 195.19L0.111084 177.41V176.71L100.941 194.49V195.19Z" fill="#0E1F20"/>
<path d="M100.941 195.89L0.111084 178.11V177.41L100.941 195.19V195.89Z" fill="#0D1E1F"/>
<path d="M100.941 196.6L0.111084 178.82V178.11L100.941 195.89V196.6Z" fill="#0D1C1E"/>
<path d="M100.941 197.3L0.111084 179.52V178.82L100.941 196.6V197.3Z" fill="#0D1C1E"/>
<path d="M100.941 198L0.111084 180.22V179.52L100.941 197.3V198Z" fill="#0C1B1D"/>
<path d="M100.941 198.7L0.111084 180.92V180.22L100.941 198V198.7Z" fill="#0C151C"/>
<path d="M100.941 199.41L0.111084 181.63V180.92L100.941 198.7V199.41Z" fill="#0C141B"/>
<path d="M100.941 200.11L0.111084 182.33V181.63L100.941 199.41V200.11Z" fill="#0B141B"/>
<path d="M100.941 200.81L0.111084 183.03V182.33L100.941 200.11V200.81Z" fill="#0B131A"/>
<path d="M100.941 201.51L0.111084 183.73V183.03L100.941 200.81V201.51Z" fill="#0B1319"/>
<path d="M100.941 202.22L0.111084 184.44V183.73L100.941 201.51V202.22Z" fill="#0B1219"/>
<path d="M100.941 202.92L0.111084 185.14V184.44L100.941 202.22V202.92Z" fill="#0A1218"/>
<path d="M100.941 203.62L0.111084 185.84V185.14L100.941 202.92V203.62Z" fill="#0A1117"/>
<path d="M100.941 204.32L0.111084 186.54V185.84L100.941 203.62V204.32Z" fill="#0A1116"/>
<path d="M100.941 205.03L0.111084 187.25V186.54L100.941 204.32V205.03Z" fill="#091016"/>
<path d="M100.941 205.73L0.111084 187.95V187.25L100.941 205.03V205.73Z" fill="#091015"/>
<path d="M100.941 206.43L0.111084 188.65V187.95L100.941 205.73V206.43Z" fill="#090F15"/>
<path d="M100.941 207.13L0.111084 189.35V188.65L100.941 206.43V207.13Z" fill="#090F14"/>
<path d="M100.941 207.84L0.111084 190.06V189.35L100.941 207.13V207.84Z" fill="#080E13"/>
<path d="M100.941 208.54L0.111084 190.76V190.06L100.941 207.84V208.54Z" fill="#080E13"/>
<path d="M100.941 209.24L0.111084 191.46V190.76L100.941 208.54V209.24Z" fill="#080D12"/>
<path d="M100.941 209.94L0.111084 192.16V191.46L100.941 209.24V209.94Z" fill="#070D11"/>
<path d="M100.941 210.65L0.111084 192.87V192.16L100.941 209.94V210.65Z" fill="#070C11"/>
<path d="M100.941 211.35L0.111084 193.57V192.87L100.941 210.65V211.35Z" fill="#070C10"/>
<path d="M100.941 212.05L0.111084 194.27V193.57L100.941 211.35V212.05Z" fill="#070C10"/>
<path d="M100.941 212.75L0.111084 194.97V194.27L100.941 212.05V212.75Z" fill="#060B0F"/>
<path d="M100.941 213.46L0.111084 195.68V194.97L100.941 212.75V213.46Z" fill="#060B0E"/>
<path d="M100.941 214.16L0.111084 196.38V195.68L100.941 213.46V214.16Z" fill="#060A0E"/>
<path d="M100.941 214.86L0.111084 197.08V196.38L100.941 214.16V214.86Z" fill="#060A0D"/>
<path d="M100.941 215.56L0.111084 197.78V197.08L100.941 214.86V215.56Z" fill="#06090D"/>
<path d="M100.941 216.27L0.111084 198.49V197.78L100.941 215.56V216.27Z" fill="#05090C"/>
<path d="M100.941 216.97L0.111084 199.19V198.49L100.941 216.27V216.97Z" fill="#05090C"/>
<path d="M100.941 217.67L0.111084 199.89V199.19L100.941 216.97V217.67Z" fill="#05080B"/>
<path d="M100.941 218.37L0.111084 200.59V199.89L100.941 217.67V218.37Z" fill="#05080B"/>
<path d="M100.941 219.07L0.111084 201.3V200.59L100.941 218.37V219.07Z" fill="#04080A"/>
<path d="M100.941 219.78L0.111084 202V201.3L100.941 219.07V219.78Z" fill="#04070A"/>
<path d="M100.941 220.48L0.111084 202.7V202L100.941 219.78V220.48Z" fill="#040709"/>
<path d="M100.941 221.18L0.111084 203.4V202.7L100.941 220.48V221.18Z" fill="#040609"/>
<path d="M100.941 221.88L0.111084 204.11V203.4L100.941 221.18V221.88Z" fill="#040608"/>
<path d="M100.941 222.59L0.111084 204.81V204.11L100.941 221.88V222.59Z" fill="#030608"/>
<path d="M100.941 223.29L0.111084 205.51V204.81L100.941 222.59V223.29Z" fill="#030507"/>
<path d="M100.941 223.99L0.111084 206.21V205.51L100.941 223.29V223.99Z" fill="#030507"/>
<path d="M100.941 224.69L0.111084 206.92V206.21L100.941 223.99V224.69Z" fill="#030507"/>
<path d="M100.941 225.4L0.111084 207.62V206.92L100.941 224.69V225.4Z" fill="#030506"/>
<path d="M100.941 226.1L0.111084 208.32V207.62L100.941 225.4V226.1Z" fill="#020406"/>
<path d="M100.941 226.8L0.111084 209.02V208.32L100.941 226.1V226.8Z" fill="#020405"/>
<path d="M100.941 227.5L0.111084 209.73V209.02L100.941 226.8V227.5Z" fill="#020405"/>
<path d="M100.941 228.21L0.111084 210.43V209.73L100.941 227.5V228.21Z" fill="#020305"/>
<path d="M100.941 228.91L0.111084 211.13V210.43L100.941 228.21V228.91Z" fill="#020304"/>
<path d="M100.941 229.61L0.111084 211.83V211.13L100.941 228.91V229.61Z" fill="#020304"/>
<path d="M100.941 230.31L0.111084 212.54V211.83L100.941 229.61V230.31Z" fill="#020304"/>
<path d="M100.941 231.02L0.111084 213.24V212.54L100.941 230.31V231.02Z" fill="#010203"/>
<path d="M100.941 231.72L0.111084 213.94V213.24L100.941 231.02V231.72Z" fill="#010203"/>
<path d="M100.941 232.42L0.111084 214.64V213.94L100.941 231.72V232.42Z" fill="#010203"/>
<path d="M100.941 233.12L0.111084 215.35V214.64L100.941 232.42V233.12Z" fill="#010202"/>
<path d="M100.821 233.81L0.111084 216.05V215.35L100.941 233.12V233.81H100.821Z" fill="#010102"/>
<path d="M96.8411 233.81L0.111084 216.75V216.05L100.821 233.81H96.8411Z" fill="#010102"/>
<path d="M92.8611 233.81L0.111084 217.45V216.75L96.8411 233.81H92.8611Z" fill="#010101"/>
<path d="M88.8711 233.81L0.111084 218.16V217.45L92.8611 233.81H88.8711Z" fill="#010101"/>
<path d="M84.8911 233.81L0.111084 218.86V218.16L88.8711 233.81H84.8911Z" fill="#000101"/>
<path d="M80.9111 233.81L0.111084 219.56V218.86L84.8911 233.81H80.9111Z" fill="#000101"/>
<path d="M76.9211 233.81L0.111084 220.26V219.56L80.9111 233.81H76.9211Z" fill="#000001"/>
<path d="M72.9411 233.81L0.111084 220.97V220.26L76.9211 233.81H72.9411Z" fill="black"/>
<path d="M68.9511 233.81L0.111084 221.67V220.97L72.9411 233.81H68.9511Z" fill="black"/>
<path d="M64.9711 233.81L0.111084 222.37V221.67L68.9511 233.81H64.9711Z" fill="black"/>
<path d="M60.9911 233.81L0.111084 223.07V222.37L64.9711 233.81H60.9911Z" fill="black"/>
<path d="M57.0011 233.81L0.111084 223.78V223.07L60.9911 233.81H57.0011Z" fill="black"/>
<path d="M53.0211 233.81L0.111084 224.48V223.78L57.0011 233.81H53.0211Z" fill="black"/>
<path d="M0.111084 224.48L53.0211 233.81H0.111084V224.48Z" fill="black"/>
</g>
</g>
</svg>
