<svg width="102" height="235" viewBox="0 0 102 235" fill="none" xmlns="http://www.w3.org/2000/svg">
<path d="M47.4605 227.84V37.5398C47.4605 31.4398 54.8305 28.3897 59.1505 32.6997C63.4605 37.0097 60.4105 44.3798 54.3105 44.3798H7.57048C3.79048 44.3798 0.730469 41.3198 0.730469 37.5398V7.82971C0.730469 4.04971 3.79048 0.989746 7.57048 0.989746H94.7105C98.4905 0.989746 101.55 4.04971 101.55 7.82971V227.84C101.55 231.62 98.4905 234.68 94.7105 234.68H54.3205C50.5405 234.68 47.4805 231.62 47.4805 227.84H47.4605Z" fill="white"/>
<mask id="mask0_1_645" style="mask-type:luminance" maskUnits="userSpaceOnUse" x="0" y="0" width="102" height="235">
<path d="M47.4605 227.84V37.5398C47.4605 31.4398 54.8305 28.3897 59.1505 32.6997C63.4605 37.0097 60.4105 44.3798 54.3105 44.3798H7.57048C3.79048 44.3798 0.730469 41.3198 0.730469 37.5398V7.82971C0.730469 4.04971 3.79048 0.989746 7.57048 0.989746H94.7105C98.4905 0.989746 101.55 4.04971 101.55 7.82971V227.84C101.55 231.62 98.4905 234.68 94.7105 234.68H54.3205C50.5405 234.68 47.4805 231.62 47.4805 227.84H47.4605Z" fill="white"/>
</mask>
<g mask="url(#mask0_1_645)">
<path d="M101.551 2.04004L95.5305 0.97998H101.551V2.04004Z" fill="white"/>
<path d="M101.551 3.09998L89.5205 0.97998H95.5305L101.551 2.04004V3.09998Z" fill="white"/>
<path d="M101.55 4.16003L83.5105 0.97998H89.5205L101.55 3.09998V4.16003Z" fill="white"/>
<path d="M101.55 5.21997L77.4905 0.97998H83.5105L101.55 4.16003V5.21997Z" fill="white"/>
<path d="M101.55 6.28003L71.4805 0.97998H77.4904L101.55 5.21997V6.28003Z" fill="white"/>
<path d="M101.55 7.33997L65.4705 0.97998H71.4805L101.55 6.28003V7.33997Z" fill="white"/>
<path d="M101.55 8.40002L59.4505 0.97998H65.4705L101.55 7.33997V8.40002Z" fill="white"/>
<path d="M101.55 9.45996L53.4405 0.97998H59.4505L101.55 8.40002V9.45996Z" fill="white"/>
<path d="M101.55 10.52L47.4305 0.97998H53.4405L101.55 9.45996V10.52Z" fill="white"/>
<path d="M101.551 11.58L41.4105 0.97998H47.4305L101.551 10.52V11.58Z" fill="white"/>
<path d="M101.551 12.65L35.4005 0.97998H41.4105L101.551 11.58V12.65Z" fill="white"/>
<path d="M101.55 13.71L29.3905 0.97998H35.4005L101.55 12.65V13.71Z" fill="white"/>
<path d="M101.55 14.77L23.3705 0.97998H29.3905L101.55 13.71V14.77Z" fill="white"/>
<path d="M101.55 15.83L17.3605 0.97998H23.3705L101.55 14.77V15.83Z" fill="white"/>
<path d="M101.55 16.89L11.3505 0.97998H17.3604L101.55 15.83V16.89Z" fill="white"/>
<path d="M101.55 17.95L5.34045 0.97998H11.3505L101.55 16.89V17.95Z" fill="white"/>
<path d="M101.55 19.01L0.720459 1.22998V0.97998H5.34045L101.55 17.95V19.01Z" fill="white"/>
<path d="M101.55 20.0699L0.720459 2.29004V1.22998L101.55 19.01V20.0699Z" fill="white"/>
<path d="M101.55 21.13L0.720459 3.34998V2.29004L101.55 20.0699V21.13Z" fill="white"/>
<path d="M101.55 22.1901L0.720459 4.41016V3.3501L101.55 21.1301V22.1901Z" fill="white"/>
<path d="M101.55 23.2501L0.720459 5.47009V4.41016L101.55 22.1901V23.2501Z" fill="white"/>
<path d="M101.55 24.3101L0.720459 6.53003V5.46997L101.55 23.25V24.3101Z" fill="white"/>
<path d="M101.55 25.37L0.720459 7.58997V6.53003L101.55 24.3101V25.37Z" fill="white"/>
<path d="M101.55 26.4299L0.720459 8.6499V7.58984L101.55 25.3699V26.4299Z" fill="white"/>
<path d="M101.55 27.4899L0.720459 9.70984V8.6499L101.55 26.4299V27.4899Z" fill="white"/>
<path d="M101.55 28.55L0.720459 10.77V9.70996L101.55 27.49V28.55Z" fill="white"/>
<path d="M101.55 29.61L0.720459 11.83V10.77L101.55 28.55V29.61Z" fill="white"/>
<path d="M101.55 30.6702L0.720459 12.8901V11.8301L101.55 29.6101V30.6702Z" fill="white"/>
<path d="M101.55 31.7301L0.720459 13.9501V12.8901L101.55 30.6702V31.7301Z" fill="white"/>
<path d="M101.55 32.79L0.720459 15.01V13.95L101.55 31.73V32.79Z" fill="white"/>
<path d="M101.55 33.85L0.720459 16.0699V15.01L101.55 32.79V33.85Z" fill="white"/>
<path d="M101.55 34.9099L0.720459 17.1299V16.0698L101.55 33.8499V34.9099Z" fill="white"/>
<path d="M101.55 35.9698L0.720459 18.1898V17.1299L101.55 34.9099V35.9698Z" fill="white"/>
<path d="M101.55 37.03L0.720459 19.25V18.1899L101.55 35.97V37.03Z" fill="white"/>
<path d="M101.55 38.09L0.720459 20.3101V19.25L101.55 37.03V38.09Z" fill="white"/>
<path d="M101.55 39.15L0.720459 21.37V20.3101L101.55 38.09V39.15Z" fill="white"/>
<path d="M101.55 40.2101L0.720459 22.4302V21.3701L101.55 39.1501V40.2101Z" fill="white"/>
<path d="M101.55 41.2701L0.720459 23.4901V22.4302L101.55 40.2101V41.2701Z" fill="white"/>
<path d="M101.55 42.33L0.720459 24.55V23.49L101.55 41.27V42.33Z" fill="white"/>
<path d="M101.55 43.39L0.720459 25.61V24.55L101.55 42.33V43.39Z" fill="white"/>
<path d="M101.55 44.4498L0.720459 26.6799V25.6099L101.55 43.3899V44.4498Z" fill="white"/>
<path d="M101.55 45.5101L0.720459 27.7401V26.6802L101.55 44.4501V45.5101Z" fill="white"/>
<path d="M101.55 46.5699L0.720459 28.8V27.74L101.55 45.51V46.5699Z" fill="white"/>
<path d="M101.55 47.63L0.720459 29.86V28.8L101.55 46.5699V47.63Z" fill="white"/>
<path d="M101.55 48.6898L0.720459 30.9199V29.8599L101.55 47.6299V48.6898Z" fill="white"/>
<path d="M101.55 49.7499L0.720459 31.9799V30.9199L101.55 48.6898V49.7499Z" fill="white"/>
<path d="M101.55 50.8199L0.720459 33.04V31.98L101.55 49.75V50.8199Z" fill="white"/>
<path d="M101.55 51.88L0.720459 34.1V33.04L101.55 50.8199V51.88Z" fill="white"/>
<path d="M101.55 52.9401L0.720459 35.1602V34.1001L101.55 51.8801V52.9401Z" fill="white"/>
<path d="M101.55 54.0001L0.720459 36.2201V35.1602L101.55 52.9401V54.0001Z" fill="white"/>
<path d="M101.55 55.0601L0.720459 37.28V36.22L101.55 54V55.0601Z" fill="white"/>
<path d="M101.55 56.12L0.720459 38.34V37.28L101.55 55.0601V56.12Z" fill="white"/>
<path d="M101.55 57.1799L0.720459 39.3999V38.3398L101.55 56.1199V57.1799Z" fill="white"/>
<path d="M101.55 58.2399L0.720459 40.4598V39.3999L101.55 57.1799V58.2399Z" fill="white"/>
<path d="M101.55 59.3L0.720459 41.52V40.46L101.55 58.24V59.3Z" fill="white"/>
<path d="M101.55 60.36L0.720459 42.58V41.52L101.55 59.3V60.36Z" fill="white"/>
<path d="M101.55 61.4202L0.720459 43.6401V42.5801L101.55 60.3601V61.4202Z" fill="white"/>
<path d="M101.55 62.4801L0.720459 44.7001V43.6401L101.55 61.4202V62.4801Z" fill="white"/>
<path d="M101.55 63.54L0.720459 45.76V44.7L101.55 62.48V63.54Z" fill="white"/>
<path d="M101.55 64.6L0.720459 46.8199V45.76L101.55 63.54V64.6Z" fill="white"/>
<path d="M101.55 65.6599L0.720459 47.8799V46.8198L101.55 64.5999V65.6599Z" fill="white"/>
<path d="M101.55 66.7198L0.720459 48.9398V47.8799L101.55 65.6599V66.7198Z" fill="white"/>
<path d="M101.55 67.78L0.720459 50V48.9399L101.55 66.72V67.78Z" fill="white"/>
<path d="M101.55 68.84L0.720459 51.0601V50L101.55 67.78V68.84Z" fill="white"/>
<path d="M101.55 69.9L0.720459 52.12V51.0601L101.55 68.84V69.9Z" fill="white"/>
<path d="M101.55 70.9601L0.720459 53.1802V52.1201L101.55 69.9001V70.9601Z" fill="white"/>
<path d="M101.55 72.0201L0.720459 54.2401V53.1802L101.55 70.9601V72.0201Z" fill="white"/>
<path d="M101.55 73.08L0.720459 55.3V54.24L101.55 72.02V73.08Z" fill="white"/>
<path d="M101.55 74.14L0.720459 56.36V55.3L101.55 73.08V74.14Z" fill="white"/>
<path d="M101.55 75.1998L0.720459 57.4199V56.3599L101.55 74.1399V75.1998Z" fill="white"/>
<path d="M101.55 76.2599L0.720459 58.4799V57.4199L101.55 75.1998V76.2599Z" fill="white"/>
<path d="M101.55 77.3199L0.720459 59.54V58.48L101.55 76.26V77.3199Z" fill="white"/>
<path d="M101.55 78.38L0.720459 60.6V59.54L101.55 77.3199V78.38Z" fill="white"/>
<path d="M101.55 79.4401L0.720459 61.6602V60.6001L101.55 78.3801V79.4401Z" fill="white"/>
<path d="M101.55 80.5001L0.720459 62.7201V61.6602L101.55 79.4401V80.5001Z" fill="white"/>
<path d="M101.55 81.5601L0.720459 63.78V62.72L101.55 80.5V81.5601Z" fill="white"/>
<path d="M101.55 82.27L0.720459 64.49V63.78L101.55 81.5601V82.27Z" fill="white"/>
<path d="M101.55 82.97L0.720459 65.1899V64.49L101.55 82.27V82.97Z" fill="white"/>
<path d="M101.55 83.67L0.720459 65.89V65.1899L101.55 82.97V83.67Z" fill="white"/>
<path d="M101.55 84.3701L0.720459 66.5901V65.8901L101.55 83.6702V84.3701Z" fill="white"/>
<path d="M101.55 85.0798L0.720459 67.2999V66.5898L101.55 84.3699V85.0798Z" fill="white"/>
<path d="M101.55 85.78L0.720459 68V67.3L101.55 85.08V85.78Z" fill="white"/>
<path d="M101.55 86.48L0.720459 68.7V68L101.55 85.78V86.48Z" fill="white"/>
<path d="M101.55 87.1801L0.720459 69.4V68.7L101.55 86.48V87.1801Z" fill="white"/>
<path d="M101.55 87.8899L0.720459 70.1099V69.3999L101.55 87.1799V87.8899Z" fill="white"/>
<path d="M101.55 88.5898L0.720459 70.8099V70.1099L101.55 87.8899V88.5898Z" fill="white"/>
<path d="M101.55 89.29L0.720459 71.51V70.8101L101.55 88.59V89.29Z" fill="white"/>
<path d="M101.55 89.99L0.720459 72.21V71.51L101.55 89.29V89.99Z" fill="white"/>
<path d="M101.55 90.7L0.720459 72.92V72.21L101.55 89.99V90.7Z" fill="white"/>
<path d="M101.55 91.3999L0.720459 73.6199V72.9199L101.55 90.6998V91.3999Z" fill="white"/>
<path d="M101.55 92.1001L0.720459 74.3201V73.6201L101.55 91.4001V92.1001Z" fill="white"/>
<path d="M101.55 92.7999L0.720459 75.0199V74.3198L101.55 92.0999V92.7999Z" fill="white"/>
<path d="M101.55 93.51L0.720459 75.73V75.02L101.55 92.8V93.51Z" fill="white"/>
<path d="M101.55 94.21L0.720459 76.4301V75.73L101.55 93.51V94.21Z" fill="white"/>
<path d="M101.55 94.9102L0.720459 77.1301V76.4302L101.55 94.2101V94.9102Z" fill="white"/>
<path d="M101.55 95.6099L0.720459 77.8298V77.1299L101.55 94.9099V95.6099Z" fill="white"/>
<path d="M101.55 96.3201L0.720459 78.5402V77.8301L101.55 95.6101V96.3201Z" fill="white"/>
<path d="M101.55 97.02L0.720459 79.24V78.54L101.55 96.3199V97.02Z" fill="white"/>
<path d="M101.55 97.72L0.720459 79.9399V79.24L101.55 97.02V97.72Z" fill="white"/>
<path d="M101.55 98.42L0.720459 80.64V79.9399L101.55 97.72V98.42Z" fill="white"/>
<path d="M101.55 99.1301L0.720459 81.3501V80.6401L101.55 98.4202V99.1301Z" fill="white"/>
<path d="M101.55 99.8301L0.720459 82.0502V81.3501L101.55 99.1301V99.8301Z" fill="white"/>
<path d="M101.55 100.53L0.720459 82.75V82.05L101.55 99.83V100.53Z" fill="white"/>
<path d="M101.55 101.23L0.720459 83.45V82.75L101.55 100.53V101.23Z" fill="white"/>
<path d="M101.55 101.93L0.720459 84.16V83.45L101.55 101.23V101.93Z" fill="white"/>
<path d="M101.55 102.64L0.720459 84.8601V84.1602L101.55 101.93V102.64Z" fill="white"/>
<path d="M101.55 103.34L0.720459 85.5599V84.8599L101.55 102.64V103.34Z" fill="white"/>
<path d="M101.55 104.04L0.720459 86.26V85.5601L101.55 103.34V104.04Z" fill="white"/>
<path d="M101.55 104.74L0.720459 86.97V86.26L101.55 104.04V104.74Z" fill="white"/>
<path d="M101.55 105.45L0.720459 87.67V86.97L101.55 104.74V105.45Z" fill="white"/>
<path d="M101.55 106.15L0.720459 88.3699V87.6699L101.55 105.45V106.15Z" fill="white"/>
<path d="M101.55 106.85L0.720459 89.0701V88.3701L101.55 106.15V106.85Z" fill="white"/>
<path d="M101.55 107.55L0.720459 89.7799V89.0698L101.55 106.85V107.55Z" fill="white"/>
<path d="M101.55 108.26L0.720459 90.48V89.78L101.55 107.55V108.26Z" fill="white"/>
<path d="M101.55 108.96L0.720459 91.1801V90.48L101.55 108.26V108.96Z" fill="white"/>
<path d="M101.55 109.66L0.720459 91.8801V91.1802L101.55 108.96V109.66Z" fill="white"/>
<path d="M101.55 110.36L0.720459 92.5898V91.8799L101.55 109.66V110.36Z" fill="white"/>
<path d="M101.55 111.07L0.720459 93.2899V92.5898L101.55 110.36V111.07Z" fill="white"/>
<path d="M101.55 111.77L0.720459 93.99V93.29L101.55 111.07V111.77Z" fill="white"/>
<path d="M101.55 112.47L0.720459 94.6899V93.99L101.55 111.77V112.47Z" fill="white"/>
<path d="M101.55 113.17L0.720459 95.4V94.6899L101.55 112.47V113.17Z" fill="white"/>
<path d="M101.55 113.88L0.720459 96.0999V95.3999L101.55 113.17V113.88Z" fill="white"/>
<path d="M101.55 114.58L0.720459 96.8002V96.1001L101.55 113.88V114.58Z" fill="white"/>
<path d="M101.55 115.28L0.720459 97.5V96.8L101.55 114.58V115.28Z" fill="white"/>
<path d="M101.55 115.98L0.720459 98.21V97.5L101.55 115.28V115.98Z" fill="white"/>
<path d="M101.55 116.69L0.720459 98.91V98.21L101.55 115.98V116.69Z" fill="white"/>
<path d="M101.55 117.39L0.720459 99.6101V98.9102L101.55 116.69V117.39Z" fill="white"/>
<path d="M101.55 118.09L0.720459 100.31V99.6099L101.55 117.39V118.09Z" fill="white"/>
<path d="M101.55 118.79L0.720459 101.02V100.31L101.55 118.09V118.79Z" fill="white"/>
<path d="M101.55 119.5L0.720459 101.72V101.02L101.55 118.79V119.5Z" fill="white"/>
<path d="M101.55 120.2L0.720459 102.42V101.72L101.55 119.5V120.2Z" fill="white"/>
<path d="M101.55 120.9L0.720459 103.12V102.42L101.55 120.2V120.9Z" fill="white"/>
<path d="M101.55 121.6L0.720459 103.83V103.12L101.55 120.9V121.6Z" fill="white"/>
<path d="M101.55 122.31L0.720459 104.53V103.83L101.55 121.6V122.31Z" fill="white"/>
<path d="M101.55 123.01L0.720459 105.23V104.53L101.55 122.31V123.01Z" fill="white"/>
<path d="M101.55 123.71L0.720459 105.93V105.23L101.55 123.01V123.71Z" fill="white"/>
<path d="M101.55 124.41L0.720459 106.64V105.93L101.55 123.71V124.41Z" fill="white"/>
<path d="M101.55 125.12L0.720459 107.34V106.64L101.55 124.41V125.12Z" fill="white"/>
<path d="M101.55 125.82L0.720459 108.04V107.34L101.55 125.12V125.82Z" fill="white"/>
<path d="M101.55 126.52L0.720459 108.74V108.04L101.55 125.82V126.52Z" fill="white"/>
<path d="M101.55 127.22L0.720459 109.45V108.74L101.55 126.52V127.22Z" fill="white"/>
<path d="M101.55 127.93L0.720459 110.15V109.45L101.55 127.22V127.93Z" fill="white"/>
<path d="M101.55 128.63L0.720459 110.85V110.15L101.55 127.93V128.63Z" fill="white"/>
<path d="M101.55 129.33L0.720459 111.55V110.85L101.55 128.63V129.33Z" fill="white"/>
<path d="M101.55 130.03L0.720459 112.26V111.55L101.55 129.33V130.03Z" fill="white"/>
<path d="M101.55 130.74L0.720459 112.96V112.26L101.55 130.03V130.74Z" fill="white"/>
<path d="M101.55 131.44L0.720459 113.66V112.96L101.55 130.74V131.44Z" fill="white"/>
<path d="M101.55 132.14L0.720459 114.36V113.66L101.55 131.44V132.14Z" fill="white"/>
<path d="M101.55 132.84L0.720459 115.07V114.36L101.55 132.14V132.84Z" fill="white"/>
<path d="M101.55 133.55L0.720459 115.77V115.07L101.55 132.84V133.55Z" fill="white"/>
<path d="M101.55 134.25L0.720459 116.47V115.77L101.55 133.55V134.25Z" fill="white"/>
<path d="M101.55 134.95L0.720459 117.17V116.47L101.55 134.25V134.95Z" fill="white"/>
<path d="M101.55 135.65L0.720459 117.88V117.17L101.55 134.95V135.65Z" fill="white"/>
<path d="M101.55 136.36L0.720459 118.58V117.88L101.55 135.65V136.36Z" fill="white"/>
<path d="M101.55 137.06L0.720459 119.28V118.58L101.55 136.36V137.06Z" fill="white"/>
<path d="M101.55 137.76L0.720459 119.98V119.28L101.55 137.06V137.76Z" fill="white"/>
<path d="M101.55 138.46L0.720459 120.69V119.98L101.55 137.76V138.46Z" fill="white"/>
<path d="M101.55 139.17L0.720459 121.39V120.69L101.55 138.46V139.17Z" fill="white"/>
<path d="M101.55 139.87L0.720459 122.09V121.39L101.55 139.17V139.87Z" fill="white"/>
<path d="M101.55 140.57L0.720459 122.79V122.09L101.55 139.87V140.57Z" fill="white"/>
<path d="M101.55 141.27L0.720459 123.5V122.79L101.55 140.57V141.27Z" fill="white"/>
<path d="M101.55 141.98L0.720459 124.2V123.5L101.55 141.27V141.98Z" fill="white"/>
<path d="M101.55 142.68L0.720459 124.9V124.2L101.55 141.98V142.68Z" fill="white"/>
<path d="M101.55 143.38L0.720459 125.6V124.9L101.55 142.68V143.38Z" fill="white"/>
<path d="M101.55 144.08L0.720459 126.31V125.6L101.55 143.38V144.08Z" fill="white"/>
<path d="M101.55 144.79L0.720459 127.01V126.31L101.55 144.08V144.79Z" fill="white"/>
<path d="M101.55 145.49L0.720459 127.71V127.01L101.55 144.79V145.49Z" fill="white"/>
<path d="M101.55 146.19L0.720459 128.41V127.71L101.55 145.49V146.19Z" fill="white"/>
<path d="M101.55 146.89L0.720459 129.12V128.41L101.55 146.19V146.89Z" fill="white"/>
<path d="M101.55 147.6L0.720459 129.82V129.12L101.55 146.89V147.6Z" fill="white"/>
<path d="M101.55 148.3L0.720459 130.52V129.82L101.55 147.6V148.3Z" fill="white"/>
<path d="M101.55 149L0.720459 131.22V130.52L101.55 148.3V149Z" fill="white"/>
<path d="M101.55 149.7L0.720459 131.93V131.22L101.55 149V149.7Z" fill="white"/>
<path d="M101.55 150.41L0.720459 132.63V131.93L101.55 149.7V150.41Z" fill="white"/>
<path d="M101.55 151.11L0.720459 133.33V132.63L101.55 150.41V151.11Z" fill="white"/>
<path d="M101.55 151.81L0.720459 134.03V133.33L101.55 151.11V151.81Z" fill="white"/>
<path d="M101.55 152.51L0.720459 134.74V134.03L101.55 151.81V152.51Z" fill="white"/>
<path d="M101.55 153.22L0.720459 135.44V134.74L101.55 152.51V153.22Z" fill="white"/>
<path d="M101.55 153.92L0.720459 136.14V135.44L101.55 153.22V153.92Z" fill="white"/>
<path d="M101.55 154.62L0.720459 136.84V136.14L101.55 153.92V154.62Z" fill="white"/>
<path d="M101.55 155.32L0.720459 137.55V136.84L101.55 154.62V155.32Z" fill="white"/>
<path d="M101.55 156.03L0.720459 138.25V137.55L101.55 155.32V156.03Z" fill="white"/>
<path d="M101.55 156.73L0.720459 138.95V138.25L101.55 156.03V156.73Z" fill="white"/>
<path d="M101.55 157.43L0.720459 139.65V138.95L101.55 156.73V157.43Z" fill="white"/>
<path d="M101.55 158.13L0.720459 140.35V139.65L101.55 157.43V158.13Z" fill="white"/>
<path d="M101.55 158.84L0.720459 141.06V140.35L101.55 158.13V158.84Z" fill="white"/>
<path d="M101.55 159.54L0.720459 141.76V141.06L101.55 158.84V159.54Z" fill="white"/>
<path d="M101.55 160.24L0.720459 142.46V141.76L101.55 159.54V160.24Z" fill="white"/>
<path d="M101.55 160.94L0.720459 143.16V142.46L101.55 160.24V160.94Z" fill="white"/>
<path d="M101.55 161.65L0.720459 143.87V143.16L101.55 160.94V161.65Z" fill="white"/>
<path d="M101.55 162.35L0.720459 144.57V143.87L101.55 161.65V162.35Z" fill="white"/>
<path d="M101.55 163.05L0.720459 145.27V144.57L101.55 162.35V163.05Z" fill="white"/>
<path d="M101.55 163.75L0.720459 145.97V145.27L101.55 163.05V163.75Z" fill="white"/>
<path d="M101.55 164.46L0.720459 146.68V145.97L101.55 163.75V164.46Z" fill="white"/>
<path d="M101.55 165.16L0.720459 147.38V146.68L101.55 164.46V165.16Z" fill="white"/>
<path d="M101.55 165.86L0.720459 148.08V147.38L101.55 165.16V165.86Z" fill="white"/>
<path d="M101.55 166.56L0.720459 148.78V148.08L101.55 165.86V166.56Z" fill="white"/>
<path d="M101.55 167.27L0.720459 149.49V148.78L101.55 166.56V167.27Z" fill="white"/>
<path d="M101.55 167.97L0.720459 150.19V149.49L101.55 167.27V167.97Z" fill="white"/>
<path d="M101.55 168.67L0.720459 150.89V150.19L101.55 167.97V168.67Z" fill="white"/>
<path d="M101.55 169.37L0.720459 151.59V150.89L101.55 168.67V169.37Z" fill="white"/>
<path d="M101.55 170.08L0.720459 152.3V151.59L101.55 169.37V170.08Z" fill="white"/>
<path d="M101.55 170.78L0.720459 153V152.3L101.55 170.08V170.78Z" fill="white"/>
<path d="M101.55 171.48L0.720459 153.7V153L101.55 170.78V171.48Z" fill="white"/>
<path d="M101.55 172.18L0.720459 154.4V153.7L101.55 171.48V172.18Z" fill="white"/>
<path d="M101.55 172.89L0.720459 155.11V154.4L101.55 172.18V172.89Z" fill="white"/>
<path d="M101.55 173.59L0.720459 155.81V155.11L101.55 172.89V173.59Z" fill="white"/>
<path d="M101.55 174.29L0.720459 156.51V155.81L101.55 173.59V174.29Z" fill="white"/>
<path d="M101.55 174.99L0.720459 157.21V156.51L101.55 174.29V174.99Z" fill="white"/>
<path d="M101.55 175.7L0.720459 157.92V157.21L101.55 174.99V175.7Z" fill="white"/>
<path d="M101.55 176.4L0.720459 158.62V157.92L101.55 175.7V176.4Z" fill="white"/>
<path d="M101.55 177.1L0.720459 159.32V158.62L101.55 176.4V177.1Z" fill="white"/>
<path d="M101.55 177.8L0.720459 160.02V159.32L101.55 177.1V177.8Z" fill="white"/>
<path d="M101.55 178.51L0.720459 160.73V160.02L101.55 177.8V178.51Z" fill="white"/>
<path d="M101.55 179.21L0.720459 161.43V160.73L101.55 178.51V179.21Z" fill="white"/>
<path d="M101.55 179.91L0.720459 162.13V161.43L101.55 179.21V179.91Z" fill="white"/>
<path d="M101.55 180.61L0.720459 162.83V162.13L101.55 179.91V180.61Z" fill="white"/>
<path d="M101.55 181.31L0.720459 163.54V162.83L101.55 180.61V181.31Z" fill="white"/>
<path d="M101.55 182.02L0.720459 164.24V163.54L101.55 181.31V182.02Z" fill="white"/>
<path d="M101.55 182.72L0.720459 164.94V164.24L101.55 182.02V182.72Z" fill="white"/>
<path d="M101.55 183.42L0.720459 165.64V164.94L101.55 182.72V183.42Z" fill="white"/>
<path d="M101.55 184.12L0.720459 166.35V165.64L101.55 183.42V184.12Z" fill="white"/>
<path d="M101.55 184.83L0.720459 167.05V166.35L101.55 184.12V184.83Z" fill="white"/>
<path d="M101.55 185.53L0.720459 167.75V167.05L101.55 184.83V185.53Z" fill="white"/>
<path d="M101.55 186.23L0.720459 168.45V167.75L101.55 185.53V186.23Z" fill="white"/>
<path d="M101.55 186.93L0.720459 169.16V168.45L101.55 186.23V186.93Z" fill="white"/>
<path d="M101.55 187.64L0.720459 169.86V169.16L101.55 186.93V187.64Z" fill="white"/>
<path d="M101.55 188.34L0.720459 170.56V169.86L101.55 187.64V188.34Z" fill="white"/>
<path d="M101.55 189.04L0.720459 171.26V170.56L101.55 188.34V189.04Z" fill="white"/>
<path d="M101.55 189.74L0.720459 171.97V171.26L101.55 189.04V189.74Z" fill="white"/>
<path d="M101.55 190.45L0.720459 172.67V171.97L101.55 189.74V190.45Z" fill="white"/>
<path d="M101.55 191.15L0.720459 173.37V172.67L101.55 190.45V191.15Z" fill="white"/>
<path d="M101.55 191.85L0.720459 174.07V173.37L101.55 191.15V191.85Z" fill="white"/>
<path d="M101.55 192.55L0.720459 174.78V174.07L101.55 191.85V192.55Z" fill="white"/>
<path d="M101.55 193.26L0.720459 175.48V174.78L101.55 192.55V193.26Z" fill="white"/>
<path d="M101.55 193.96L0.720459 176.18V175.48L101.55 193.26V193.96Z" fill="white"/>
<path d="M101.55 194.66L0.720459 176.88V176.18L101.55 193.96V194.66Z" fill="white"/>
<path d="M101.55 195.36L0.720459 177.59V176.88L101.55 194.66V195.36Z" fill="white"/>
<path d="M101.55 196.07L0.720459 178.29V177.59L101.55 195.36V196.07Z" fill="white"/>
<path d="M101.55 196.77L0.720459 178.99V178.29L101.55 196.07V196.77Z" fill="white"/>
<path d="M101.55 197.47L0.720459 179.69V178.99L101.55 196.77V197.47Z" fill="white"/>
<path d="M101.55 198.17L0.720459 180.4V179.69L101.55 197.47V198.17Z" fill="white"/>
<path d="M101.55 198.88L0.720459 181.1V180.4L101.55 198.17V198.88Z" fill="white"/>
<path d="M101.55 199.58L0.720459 181.8V181.1L101.55 198.88V199.58Z" fill="white"/>
<path d="M101.55 200.28L0.720459 182.5V181.8L101.55 199.58V200.28Z" fill="white"/>
<path d="M101.55 200.98L0.720459 183.21V182.5L101.55 200.28V200.98Z" fill="white"/>
<path d="M101.55 201.69L0.720459 183.91V183.21L101.55 200.98V201.69Z" fill="white"/>
<path d="M101.55 202.39L0.720459 184.61V183.91L101.55 201.69V202.39Z" fill="white"/>
<path d="M101.55 203.09L0.720459 185.31V184.61L101.55 202.39V203.09Z" fill="white"/>
<path d="M101.55 203.79L0.720459 186.02V185.31L101.55 203.09V203.79Z" fill="white"/>
<path d="M101.55 204.5L0.720459 186.72V186.02L101.55 203.79V204.5Z" fill="white"/>
<path d="M101.55 205.2L0.720459 187.42V186.72L101.55 204.5V205.2Z" fill="white"/>
<path d="M101.55 205.9L0.720459 188.12V187.42L101.55 205.2V205.9Z" fill="white"/>
<path d="M101.55 206.6L0.720459 188.83V188.12L101.55 205.9V206.6Z" fill="white"/>
<path d="M101.55 207.31L0.720459 189.53V188.83L101.55 206.6V207.31Z" fill="white"/>
<path d="M101.55 208.01L0.720459 190.23V189.53L101.55 207.31V208.01Z" fill="white"/>
<path d="M101.55 208.71L0.720459 190.93V190.23L101.55 208.01V208.71Z" fill="white"/>
<path d="M101.55 209.41L0.720459 191.64V190.93L101.55 208.71V209.41Z" fill="white"/>
<path d="M101.55 210.12L0.720459 192.34V191.64L101.55 209.41V210.12Z" fill="white"/>
<path d="M101.55 210.82L0.720459 193.04V192.34L101.55 210.12V210.82Z" fill="white"/>
<path d="M101.55 211.52L0.720459 193.74V193.04L101.55 210.82V211.52Z" fill="white"/>
<path d="M101.55 212.22L0.720459 194.45V193.74L101.55 211.52V212.22Z" fill="white"/>
<path d="M101.55 212.93L0.720459 195.15V194.45L101.55 212.22V212.93Z" fill="white"/>
<path d="M101.55 213.63L0.720459 195.85V195.15L101.55 212.93V213.63Z" fill="white"/>
<path d="M101.55 214.33L0.720459 196.55V195.85L101.55 213.63V214.33Z" fill="white"/>
<path d="M101.55 215.03L0.720459 197.26V196.55L101.55 214.33V215.03Z" fill="white"/>
<path d="M101.55 215.74L0.720459 197.96V197.26L101.55 215.03V215.74Z" fill="white"/>
<path d="M101.55 216.44L0.720459 198.66V197.96L101.55 215.74V216.44Z" fill="white"/>
<path d="M101.55 217.14L0.720459 199.36V198.66L101.55 216.44V217.14Z" fill="white"/>
<path d="M101.55 217.84L0.720459 200.07V199.36L101.55 217.14V217.84Z" fill="white"/>
<path d="M101.55 218.55L0.720459 200.77V200.07L101.55 217.84V218.55Z" fill="white"/>
<path d="M101.55 219.25L0.720459 201.47V200.77L101.55 218.55V219.25Z" fill="white"/>
<path d="M101.55 219.95L0.720459 202.17V201.47L101.55 219.25V219.95Z" fill="white"/>
<path d="M101.55 220.65L0.720459 202.88V202.17L101.55 219.95V220.65Z" fill="white"/>
<path d="M101.55 221.36L0.720459 203.58V202.88L101.55 220.65V221.36Z" fill="white"/>
<path d="M101.55 222.06L0.720459 204.28V203.58L101.55 221.36V222.06Z" fill="white"/>
<path d="M101.55 222.76L0.720459 204.98V204.28L101.55 222.06V222.76Z" fill="white"/>
<path d="M101.55 223.46L0.720459 205.69V204.98L101.55 222.76V223.46Z" fill="white"/>
<path d="M101.55 224.17L0.720459 206.39V205.69L101.55 223.46V224.17Z" fill="white"/>
<path d="M101.55 224.87L0.720459 207.09V206.39L101.55 224.17V224.87Z" fill="white"/>
<path d="M101.55 225.57L0.720459 207.79V207.09L101.55 224.87V225.57Z" fill="white"/>
<path d="M101.55 226.27L0.720459 208.5V207.79L101.55 225.57V226.27Z" fill="white"/>
<path d="M101.55 226.98L0.720459 209.2V208.5L101.55 226.27V226.98Z" fill="white"/>
<path d="M101.55 227.68L0.720459 209.9V209.2L101.55 226.98V227.68Z" fill="white"/>
<path d="M101.55 228.38L0.720459 210.6V209.9L101.55 227.68V228.38Z" fill="white"/>
<path d="M101.55 229.08L0.720459 211.31V210.6L101.55 228.38V229.08Z" fill="white"/>
<path d="M101.55 229.79L0.720459 212.01V211.31L101.55 229.08V229.79Z" fill="white"/>
<path d="M101.55 230.49L0.720459 212.71V212.01L101.55 229.79V230.49Z" fill="white"/>
<path d="M101.55 231.19L0.720459 213.41V212.71L101.55 230.49V231.19Z" fill="white"/>
<path d="M101.55 231.89L0.720459 214.12V213.41L101.55 231.19V231.89Z" fill="white"/>
<path d="M101.55 232.6L0.720459 214.82V214.12L101.55 231.89V232.6Z" fill="white"/>
<path d="M101.55 233.3L0.720459 215.52V214.82L101.55 232.6V233.3Z" fill="white"/>
<path d="M101.55 234L0.720459 216.22V215.52L101.55 233.3V234Z" fill="white"/>
<path d="M101.43 234.68L0.720459 216.93V216.22L101.55 234V234.68H101.43Z" fill="white"/>
<path d="M97.4505 234.68L0.720459 217.63V216.93L101.43 234.68H97.4505Z" fill="white"/>
<path d="M93.4604 234.68L0.720459 218.33V217.63L97.4505 234.68H93.4604Z" fill="white"/>
<path d="M89.4805 234.68L0.720459 219.03V218.33L93.4604 234.68H89.4805Z" fill="white"/>
<path d="M85.5005 234.68L0.720459 219.73V219.03L89.4805 234.68H85.5005Z" fill="white"/>
<path d="M81.5105 234.68L0.720459 220.44V219.73L85.5005 234.68H81.5105Z" fill="white"/>
<path d="M77.5305 234.68L0.720459 221.14V220.44L81.5105 234.68H77.5305Z" fill="white"/>
<path d="M73.5405 234.68L0.720459 221.84V221.14L77.5305 234.68H73.5405Z" fill="white"/>
<path d="M69.5605 234.68L0.720459 222.54V221.84L73.5405 234.68H69.5605Z" fill="white"/>
<path d="M65.5804 234.68L0.720459 223.25V222.54L69.5605 234.68H65.5804Z" fill="white"/>
<path d="M61.5905 234.68L0.720459 223.95V223.25L65.5804 234.68H61.5905Z" fill="white"/>
<path d="M57.6104 234.68L0.720459 224.65V223.95L61.5905 234.68H57.6104Z" fill="white"/>
<path d="M53.6305 234.68L0.720459 225.35V224.65L57.6104 234.68H53.6305Z" fill="white"/>
<path d="M0.720459 225.35L53.6305 234.68H0.720459V225.35Z" fill="white"/>
</g>
</svg>
