<svg xmlns="http://www.w3.org/2000/svg" width="155" height="200" viewBox="0 0 155 200" fill="none">
  <g style="mix-blend-mode:lighten" opacity="0.66">
    <mask id="mask0_1_1585" style="mask-type:luminance" maskUnits="userSpaceOnUse" x="0" y="0" width="155" height="200">
      <path d="M6.44177 193.09V172.58C6.44177 170.88 7.14177 169.25 8.38177 168.08L81.9418 98.6096C87.9018 93.2096 92.3317 88.3996 95.2217 84.2096C98.1117 80.0196 100.022 76.0996 100.952 72.4696C101.882 68.8396 102.352 65.4396 102.352 62.2596C102.352 54.6196 99.7418 48.6496 94.5218 44.3596C89.3018 40.0696 81.4718 37.9297 71.0318 37.9297C62.6418 37.9297 55.0017 39.6096 48.1017 42.9596C42.7117 45.5796 37.9618 49.1696 33.8218 53.7196C31.7718 55.9696 28.4117 56.4397 25.8517 54.7797L3.22174 40.0796C0.171739 38.0996 -0.548261 33.8997 1.72174 31.0597C8.62174 22.4197 17.6518 15.3996 28.8018 9.9696C42.2218 3.4496 57.6917 0.179688 75.2217 0.179688C89.7617 0.179688 102.532 2.50968 113.532 7.16968C124.532 11.8297 133.062 18.4897 139.122 27.1597C145.182 35.8297 148.212 46.1297 148.212 58.0597C148.212 64.2097 147.322 70.4597 145.552 76.7897C143.782 83.1297 140.562 89.7496 135.902 96.6396C131.242 103.54 124.342 111.28 115.212 119.85L58.4618 173.05C55.4918 175.83 50.6918 175.04 48.7718 171.45C46.5718 167.33 49.5518 162.35 54.2318 162.35H148.452C151.872 162.35 154.642 165.12 154.642 168.54V193.08C154.642 196.5 151.872 199.27 148.452 199.27H12.6218C9.20176 199.27 6.43176 196.5 6.43176 193.08L6.44177 193.09Z" fill="white"/>
    </mask>
    <g mask="url(#mask0_1_1585)">
      <path d="M154.652 12.3196L85.8118 0.179688H154.652V12.3196Z" fill="#179FAE"/>
      <path d="M154.652 13.2496L80.5417 0.179688H85.8118L154.652 12.3196V13.2496Z" fill="#179FAE"/>
      <path d="M154.652 14.1797L75.2718 0.179688H80.5417L154.652 13.2496V14.1797Z" fill="#18A0AF"/>
      <path d="M154.652 15.1096L70.0018 0.179688H75.2718L154.652 14.1797V15.1096Z" fill="#19A1B0"/>
      <path d="M154.652 16.0397L64.7318 0.179688H70.0018L154.652 15.1096V16.0397Z" fill="#1AA2B0"/>
      <path d="M154.652 16.9596L59.4717 0.179688H64.7318L154.652 16.0397V16.9596Z" fill="#1BA3B1"/>
      <path d="M154.652 17.8896L54.2018 0.179688H59.4717L154.652 16.9596V17.8896Z" fill="#1DA3B2"/>
      <path d="M154.652 18.8196L48.9318 0.179688H54.2018L154.652 17.8896V18.8196Z" fill="#1EA4B3"/>
      <path d="M154.652 19.7496L43.6617 0.179688H48.9318L154.652 18.8196V19.7496Z" fill="#1FA5B4"/>
      <path d="M154.652 20.6797L38.4018 0.179688H43.6617L154.652 19.7496V20.6797Z" fill="#20A6B4"/>
      <path d="M154.652 21.6096L33.1318 0.179688H38.4018L154.652 20.6797V21.6096Z" fill="#21A7B5"/>
      <path d="M154.652 22.5397L27.8618 0.179688H33.1318L154.652 21.6096V22.5397Z" fill="#22A8B6"/>
      <path d="M154.652 23.4696L22.5918 0.179688H27.8618L154.652 22.5397V23.4696Z" fill="#23A8B7"/>
      <path d="M154.652 24.3896L17.3218 0.179688H22.5918L154.652 23.4696V24.3896Z" fill="#24A9B8"/>
      <path d="M154.652 25.3196L12.0618 0.179688H17.3218L154.652 24.3896V25.3196Z" fill="#25AAB9"/>
      <path d="M154.652 26.2496L6.79175 0.179688H12.0618L154.652 25.3196V26.2496Z" fill="#26ABB9"/>
      <path d="M154.652 27.1797L1.73175 0.219604L1.74176 0.179688H6.79175L154.652 26.2496V27.1797Z" fill="#27ACBA"/>
      <path d="M154.652 28.1097L1.57178 1.11975L1.73175 0.219727L154.652 27.1798V28.1097Z" fill="#29ACBB"/>
      <path d="M154.652 29.0397L1.41174 2.01965L1.57178 1.11963L154.652 28.1096V29.0397Z" fill="#2AADBC"/>
      <path d="M154.652 29.9695L1.25177 2.91956L1.41174 2.01953L154.652 29.0396V29.9695Z" fill="#2BAEBD"/>
      <path d="M154.652 30.8997L1.0918 3.81958L1.25177 2.91968L154.652 29.9696V30.8997Z" fill="#2CAFBD"/>
      <path d="M154.652 31.8296L0.941772 4.7196L1.0918 3.81958L154.652 30.8997V31.8296Z" fill="#2DB0BE"/>
      <path d="M154.652 32.7498L0.781799 5.61975L0.941772 4.71973L154.652 31.8297V32.7498Z" fill="#2EB1BF"/>
      <path d="M154.652 33.6797L0.621765 6.51965L0.781799 5.61963L154.652 32.7496V33.6797Z" fill="#2FB2C0"/>
      <path d="M154.652 34.6095L0.461792 7.41956L0.621765 6.51953L154.652 33.6796V34.6095Z" fill="#30B2C0"/>
      <path d="M154.652 35.5397L0.301758 8.32959L0.461792 7.41968L154.652 34.6096V35.5397Z" fill="#31B3C1"/>
      <path d="M154.652 36.4696L0.141785 9.22961L0.301758 8.32959L154.652 35.5397V36.4696Z" fill="#32B4C2"/>
      <path d="M154.652 37.3995L-0.0182495 10.1295L0.141785 9.22949L154.652 36.4695V37.3995Z" fill="#33B5C3"/>
      <path d="M154.652 38.3296L-0.178223 11.0297L-0.0182495 10.1296L154.652 37.3997V38.3296Z" fill="#34B5C4"/>
      <path d="M154.652 39.2598L-0.338257 11.9298L-0.178223 11.0298L154.652 38.3297V39.2598Z" fill="#35B6C4"/>
      <path d="M154.652 40.1896L-0.48822 12.8296L-0.338257 11.9297L154.652 39.2596V40.1896Z" fill="#36B7C5"/>
      <path d="M154.652 41.1096L-0.648254 13.7296L-0.48822 12.8296L154.652 40.1896V41.1096Z" fill="#38B8C6"/>
      <path d="M154.652 42.0396L-0.808228 14.6295L-0.648254 13.7295L154.652 41.1095V42.0396Z" fill="#39B9C7"/>
      <path d="M154.652 42.9696L-0.968201 15.5297L-0.808228 14.6296L154.652 42.0397V42.9696Z" fill="#3ABAC8"/>
      <path d="M154.652 43.8998L-1.12823 16.4298L-0.968201 15.5298L154.652 42.9697V43.8998Z" fill="#3BBAC8"/>
      <path d="M154.652 44.8296L-1.28821 17.3296L-1.12823 16.4297L154.652 43.8997V44.8296Z" fill="#3CBBC9"/>
      <path d="M154.652 45.7596L-1.44824 18.2296L-1.28821 17.3296L154.652 44.8296V45.7596Z" fill="#3DBCCA"/>
      <path d="M154.652 46.6895L-1.60822 19.1395L-1.44824 18.2295L154.652 45.7595V46.6895Z" fill="#3EBDCB"/>
      <path d="M154.652 47.6196L-1.75824 20.0397L-1.60822 19.1396L154.652 46.6896V47.6196Z" fill="#3FBECB"/>
      <path d="M154.652 48.5396L-1.91821 20.9395L-1.75824 20.0396L154.652 47.6195V48.5396Z" fill="#40BECC"/>
      <path d="M154.652 49.4695L-2.07825 21.8395L-1.91821 20.9395L154.652 48.5396V49.4695Z" fill="#41BFCD"/>
      <path d="M154.652 50.3997L-2.2182 22.7396V22.6396L-2.07825 21.8396L154.652 49.4696V50.3997Z" fill="#42C0CE"/>
      <path d="M154.652 51.3297L-2.2182 23.6698V22.7397L154.652 50.3998V51.3297Z" fill="#43C1CE"/>
      <path d="M154.652 52.2596L-2.2182 24.5996V23.6697L154.652 51.3296V52.2596Z" fill="#44C2CF"/>
      <path d="M154.652 53.1896L-2.2182 25.5297V24.5996L154.652 52.2596V53.1896Z" fill="#45C3D0"/>
      <path d="M154.652 54.1198L-2.2182 26.4597V25.5298L154.652 53.1897V54.1198Z" fill="#46C4D1"/>
      <path d="M154.652 55.0496L-2.2182 27.3895V26.4595L154.652 54.1195V55.0496Z" fill="#47C4D1"/>
      <path d="M154.652 55.9796L-2.2182 28.3196V27.3896L154.652 55.0497V55.9796Z" fill="#48C5D2"/>
      <path d="M154.652 56.8997L-2.2182 29.2396V28.3196L154.652 55.9796V56.8997Z" fill="#49C6D3"/>
      <path d="M154.652 57.8297L-2.2182 30.1698V29.2397L154.652 56.8998V57.8297Z" fill="#4AC6D4"/>
      <path d="M154.652 58.7596L-2.2182 31.0996V30.1697L154.652 57.8296V58.7596Z" fill="#4BC7D4"/>
      <path d="M154.652 59.6896L-2.2182 32.0297V31.0996L154.652 58.7596V59.6896Z" fill="#4CC8D5"/>
      <path d="M154.652 60.6198L-2.2182 32.9597V32.0298L154.652 59.6897V60.6198Z" fill="#4DC9D6"/>
      <path d="M154.652 61.5496L-2.2182 33.8895V32.9595L154.652 60.6195V61.5496Z" fill="#4ECAD7"/>
      <path d="M154.652 62.4796L-2.2182 34.8196V33.8896L154.652 61.5497V62.4796Z" fill="#4FCBD7"/>
      <path d="M154.652 63.4097L-2.2182 35.7496V34.8196L154.652 62.4796V63.4097Z" fill="#50CCD8"/>
      <path d="M154.652 64.3295L-2.2182 36.6696V35.7495L154.652 63.4095V64.3295Z" fill="#51CCD9"/>
      <path d="M154.652 65.2596L-2.2182 37.5996V36.6697L154.652 64.3296V65.2596Z" fill="#52CDDA"/>
      <path d="M154.652 66.1896L-2.2182 38.5297V37.5996L154.652 65.2596V66.1896Z" fill="#53CDDA"/>
      <path d="M154.652 67.1198L-2.2182 39.4597V38.5298L154.652 66.1897V67.1198Z" fill="#54CEDB"/>
      <path d="M154.652 68.0496L-2.2182 40.3895V39.4595L154.652 67.1195V68.0496Z" fill="#55CFDC"/>
      <path d="M154.652 68.9796L-2.2182 41.3196V40.3896L154.652 68.0497V68.9796Z" fill="#56D0DC"/>
      <path d="M154.652 69.9097L-2.2182 42.2496V41.3196L154.652 68.9796V69.9097Z" fill="#57D0DD"/>
      <path d="M154.652 70.8395L-2.2182 43.1796V42.2495L154.652 69.9095V70.8395Z" fill="#58D1DE"/>
      <path d="M154.652 71.7697L-2.2182 44.1096V43.1797L154.652 70.8396V71.7697Z" fill="#59D1DE"/>
      <path d="M154.652 72.6896L-2.2182 45.0297V44.1096L154.652 71.7697V72.6896Z" fill="#5AD2DF"/>
      <path d="M154.652 73.6198L-2.2182 45.9597V45.0298L154.652 72.6897V73.6198Z" fill="#5BD3E0"/>
      <path d="M154.652 74.5496L-2.2182 46.8895V45.9595L154.652 73.6195V74.5496Z" fill="#5CD3E0"/>
      <path d="M154.652 75.4796L-2.2182 47.8196V46.8896L154.652 74.5497V75.4796Z" fill="#5CD4E1"/>
      <path d="M154.652 76.4097L-2.2182 48.7496V47.8196L154.652 75.4796V76.4097Z" fill="#5DD5E2"/>
      <path d="M154.652 77.3395L-2.2182 49.6796V48.7495L154.652 76.4095V77.3395Z" fill="#5ED6E2"/>
      <path d="M154.652 78.2697L-2.2182 50.6096V49.6797L154.652 77.3396V78.2697Z" fill="#5FD7E3"/>
      <path d="M154.652 79.1996L-2.2182 51.5397V50.6096L154.652 78.2697V79.1996Z" fill="#60D7E4"/>
      <path d="M154.652 80.1295L-2.2182 52.4695V51.5396L154.652 79.1995V80.1295Z" fill="#61D8E4"/>
      <path d="M154.652 81.0498L-2.2182 53.3898V52.4697L154.652 80.1298V81.0498Z" fill="#62D9E5"/>
      <path d="M154.652 81.9796L-2.2182 54.3196V53.3896L154.652 81.0497V81.9796Z" fill="#62D9E5"/>
      <path d="M154.652 82.9097L-2.2182 55.2496V54.3196L154.652 81.9796V82.9097Z" fill="#63DAE6"/>
      <path d="M154.652 83.5295L-2.2182 55.8695V55.2495L154.652 82.9095V83.5295Z" fill="#63DAE6"/>
      <path d="M154.652 84.1396L-2.2182 56.4796V55.8696L154.652 83.5297V84.1396Z" fill="#62D8E4"/>
      <path d="M154.652 84.7595L-2.2182 57.0995V56.4795L154.652 84.1395V84.7595Z" fill="#62D7E3"/>
      <path d="M154.652 85.3696L-2.2182 57.7096V57.0996L154.652 84.7596V85.3696Z" fill="#61D5E1"/>
      <path d="M154.652 85.9895L-2.2182 58.3295V57.7095L154.652 85.3695V85.9895Z" fill="#60D4E0"/>
      <path d="M154.652 86.5996L-2.2182 58.9396V58.3296L154.652 85.9896V86.5996Z" fill="#60D2DE"/>
      <path d="M154.652 87.2195L-2.2182 59.5596V58.9395L154.652 86.5995V87.2195Z" fill="#5FD1DC"/>
      <path d="M154.652 87.8395L-2.2182 60.1696V59.5596L154.652 87.2195V87.8395Z" fill="#5ED0DB"/>
      <path d="M154.652 88.4496L-2.2182 60.7897V60.1697L154.652 87.8396V88.4496Z" fill="#5DCED9"/>
      <path d="M154.652 89.0695L-2.2182 61.4095V60.7896L154.652 88.4495V89.0695Z" fill="#5DCCD8"/>
      <path d="M154.652 89.6797L-2.2182 62.0197V61.4097L154.652 89.0696V89.6797Z" fill="#5CCAD6"/>
      <path d="M154.652 90.2996L-2.2182 62.6395V62.0195L154.652 89.6796V90.2996Z" fill="#5BC9D4"/>
      <path d="M154.652 90.9097L-2.2182 63.2496V62.6396L154.652 90.2997V90.9097Z" fill="#5BC8D3"/>
      <path d="M154.652 91.5295L-2.2182 63.8695V63.2495L154.652 90.9095V91.5295Z" fill="#5AC6D1"/>
      <path d="M154.652 92.1396L-2.2182 64.4796V63.8696L154.652 91.5297V92.1396Z" fill="#59C5D0"/>
      <path d="M154.652 92.7595L-2.2182 65.0995V64.4795L154.652 92.1395V92.7595Z" fill="#59C3CE"/>
      <path d="M154.652 93.3696L-2.2182 65.7096V65.0996L154.652 92.7596V93.3696Z" fill="#58C2CD"/>
      <path d="M154.652 93.9895L-2.2182 66.3295V65.7095L154.652 93.3695V93.9895Z" fill="#57C0CB"/>
      <path d="M154.652 94.5996L-2.2182 66.9396V66.3296L154.652 93.9896V94.5996Z" fill="#57BFCA"/>
      <path d="M154.652 95.2195L-2.2182 67.5596V66.9395L154.652 94.5995V95.2195Z" fill="#56BEC8"/>
      <path d="M154.652 95.8395L-2.2182 68.1696V67.5596L154.652 95.2195V95.8395Z" fill="#55BDC7"/>
      <path d="M154.652 96.4496L-2.2182 68.7897V68.1697L154.652 95.8396V96.4496Z" fill="#55BBC5"/>
      <path d="M154.652 97.0695L-2.2182 69.4095V68.7896L154.652 96.4495V97.0695Z" fill="#54BAC4"/>
      <path d="M154.652 97.6797L-2.2182 70.0197V69.4097L154.652 97.0696V97.6797Z" fill="#53B7C2"/>
      <path d="M154.652 98.2996L-2.2182 70.6395V70.0195L154.652 97.6796V98.2996Z" fill="#53B6C0"/>
      <path d="M154.652 98.9097L-2.2182 71.2496V70.6396L154.652 98.2997V98.9097Z" fill="#52B5BF"/>
      <path d="M154.652 99.5295L-2.2182 71.8695V71.2495L154.652 98.9095V99.5295Z" fill="#52B3BD"/>
      <path d="M154.652 100.14L-2.2182 72.4796V71.8696L154.652 99.5297V100.14Z" fill="#51B2BC"/>
      <path d="M154.652 100.76L-2.2182 73.0995V72.4795L154.652 100.14V100.76Z" fill="#50B1BA"/>
      <path d="M154.652 101.37L-2.2182 73.7096V73.0996L154.652 100.76V101.37Z" fill="#50AFB9"/>
      <path d="M154.652 101.99L-2.2182 74.3295V73.7095L154.652 101.37V101.99Z" fill="#4FAEB7"/>
      <path d="M154.652 102.6L-2.2182 74.9396V74.3296L154.652 101.99V102.6Z" fill="#4EADB6"/>
      <path d="M154.652 103.219L-2.2182 75.5596V74.9395L154.652 102.599V103.219Z" fill="#4EAAB5"/>
      <path d="M154.652 103.839L-2.2182 76.1796V75.5596L154.652 103.219V103.839Z" fill="#4DA9B3"/>
      <path d="M154.652 104.45L-2.2182 76.7897V76.1797L154.652 103.84V104.45Z" fill="#4CA8B2"/>
      <path d="M154.652 105.069L-2.2182 77.4095V76.7896L154.652 104.449V105.069Z" fill="#4CA6B0"/>
      <path d="M154.652 105.68L-2.2182 78.0197V77.4097L154.652 105.07V105.68Z" fill="#4BA5AF"/>
      <path d="M154.652 106.3L-2.2182 78.6395V78.0195L154.652 105.68V106.3Z" fill="#4BA4AD"/>
      <path d="M154.652 106.91L-2.2182 79.2496V78.6396L154.652 106.3V106.91Z" fill="#4AA3AC"/>
      <path d="M154.652 107.53L-2.2182 79.8695V79.2495L154.652 106.91V107.53Z" fill="#49A1AA"/>
      <path d="M154.652 108.14L-2.2182 80.4796V79.8696L154.652 107.53V108.14Z" fill="#49A0A9"/>
      <path d="M154.652 108.76L-2.2182 81.0995V80.4795L154.652 108.14V108.76Z" fill="#489FA7"/>
      <path d="M154.652 109.37L-2.2182 81.7096V81.0996L154.652 108.76V109.37Z" fill="#479EA6"/>
      <path d="M154.652 109.99L-2.2182 82.3295V81.7095L154.652 109.37V109.99Z" fill="#479CA5"/>
      <path d="M154.652 110.6L-2.2182 82.9396V82.3296L154.652 109.99V110.6Z" fill="#469BA3"/>
      <path d="M154.652 111.219L-2.2182 83.5596V82.9395L154.652 110.599V111.219Z" fill="#4699A2"/>
      <path d="M154.652 111.839L-2.2182 84.1796V83.5596L154.652 111.219V111.839Z" fill="#4598A0"/>
      <path d="M154.652 112.45L-2.2182 84.7897V84.1797L154.652 111.84V112.45Z" fill="#44969F"/>
      <path d="M154.652 113.069L-2.2182 85.4095V84.7896L154.652 112.449V113.069Z" fill="#44959E"/>
      <path d="M154.652 113.68L-2.2182 86.0197V85.4097L154.652 113.07V113.68Z" fill="#43939C"/>
      <path d="M154.652 114.3L-2.2182 86.6395V86.0195L154.652 113.68V114.3Z" fill="#43929B"/>
      <path d="M154.652 114.91L-2.2182 87.2496V86.6396L154.652 114.3V114.91Z" fill="#429199"/>
      <path d="M154.652 115.53L-2.2182 87.8695V87.2495L154.652 114.91V115.53Z" fill="#419098"/>
      <path d="M154.652 116.14L-2.2182 88.4796V87.8696L154.652 115.53V116.14Z" fill="#418E97"/>
      <path d="M154.652 116.76L-2.2182 89.0995V88.4795L154.652 116.14V116.76Z" fill="#408D95"/>
      <path d="M154.652 117.37L-2.2182 89.7096V89.0996L154.652 116.76V117.37Z" fill="#408C94"/>
      <path d="M154.652 117.99L-2.2182 90.3295V89.7095L154.652 117.37V117.99Z" fill="#3F8A92"/>
      <path d="M154.652 118.6L-2.2182 90.9396V90.3296L154.652 117.99V118.6Z" fill="#3E8991"/>
      <path d="M154.652 119.219L-2.2182 91.5596V90.9395L154.652 118.599V119.219Z" fill="#3E8890"/>
      <path d="M154.652 119.839L-2.2182 92.1796V91.5596L154.652 119.219V119.839Z" fill="#3D868E"/>
      <path d="M154.652 120.45L-2.2182 92.7897V92.1797L154.652 119.84V120.45Z" fill="#3D858D"/>
      <path d="M154.652 121.069L-2.2182 93.4095V92.7896L154.652 120.449V121.069Z" fill="#3C848C"/>
      <path d="M154.652 121.68L-2.2182 94.0197V93.4097L154.652 121.07V121.68Z" fill="#3C828A"/>
      <path d="M154.652 122.3L-2.2182 94.6395V94.0195L154.652 121.68V122.3Z" fill="#3B8189"/>
      <path d="M154.652 122.91L-2.2182 95.2496V94.6396L154.652 122.3V122.91Z" fill="#3A8088"/>
      <path d="M154.652 123.53L-2.2182 95.8695V95.2495L154.652 122.91V123.53Z" fill="#3A7F86"/>
      <path d="M154.652 124.14L-2.2182 96.4796V95.8696L154.652 123.53V124.14Z" fill="#397E85"/>
      <path d="M154.652 124.76L-2.2182 97.0995V96.4795L154.652 124.14V124.76Z" fill="#397C84"/>
      <path d="M154.652 125.37L-2.2182 97.7096V97.0996L154.652 124.76V125.37Z" fill="#387B82"/>
      <path d="M154.652 125.99L-2.2182 98.3295V97.7095L154.652 125.37V125.99Z" fill="#387A81"/>
      <path d="M154.652 126.61L-2.2182 98.9396V98.3296L154.652 125.99V126.61Z" fill="#377A80"/>
      <path d="M154.652 127.219L-2.2182 99.5596V98.9395L154.652 126.609V127.219Z" fill="#36797F"/>
      <path d="M154.652 127.839L-2.2182 100.18V99.5596L154.652 127.219V127.839Z" fill="#36777D"/>
      <path d="M154.652 128.45L-2.2182 100.79V100.18L154.652 127.84V128.45Z" fill="#35767C"/>
      <path d="M154.652 129.069L-2.2182 101.41V100.79L154.652 128.449V129.069Z" fill="#35747B"/>
      <path d="M154.652 129.68L-2.2182 102.02V101.41L154.652 129.07V129.68Z" fill="#347379"/>
      <path d="M154.652 130.3L-2.2182 102.64V102.02L154.652 129.68V130.3Z" fill="#347278"/>
      <path d="M154.652 130.91L-2.2182 103.25V102.64L154.652 130.3V130.91Z" fill="#337177"/>
      <path d="M154.652 131.53L-2.2182 103.87V103.25L154.652 130.91V131.53Z" fill="#336F76"/>
      <path d="M154.652 132.14L-2.2182 104.48V103.87L154.652 131.53V132.14Z" fill="#326E74"/>
      <path d="M154.652 132.76L-2.2182 105.099V104.479L154.652 132.14V132.76Z" fill="#326D73"/>
      <path d="M154.652 133.37L-2.2182 105.71V105.1L154.652 132.76V133.37Z" fill="#316C72"/>
      <path d="M154.652 133.99L-2.2182 106.329V105.709L154.652 133.37V133.99Z" fill="#316A71"/>
      <path d="M154.652 134.61L-2.2182 106.94V106.33L154.652 133.99V134.61Z" fill="#30696F"/>
      <path d="M154.652 135.219L-2.2182 107.56V106.939L154.652 134.609V135.219Z" fill="#2F686E"/>
      <path d="M154.652 135.839L-2.2182 108.18V107.56L154.652 135.219V135.839Z" fill="#2F686D"/>
      <path d="M154.652 136.45L-2.2182 108.79V108.18L154.652 135.84V136.45Z" fill="#2E676C"/>
      <path d="M154.652 137.069L-2.2182 109.41V108.79L154.652 136.449V137.069Z" fill="#2E656B"/>
      <path d="M154.652 137.68L-2.2182 110.02V109.41L154.652 137.07V137.68Z" fill="#2D6469"/>
      <path d="M154.652 138.3L-2.2182 110.64V110.02L154.652 137.68V138.3Z" fill="#2D6268"/>
      <path d="M154.652 138.91L-2.2182 111.25V110.64L154.652 138.3V138.91Z" fill="#2C6167"/>
      <path d="M154.652 139.53L-2.2182 111.87V111.25L154.652 138.91V139.53Z" fill="#2C6066"/>
      <path d="M154.652 140.14L-2.2182 112.48V111.87L154.652 139.53V140.14Z" fill="#2B5F65"/>
      <path d="M154.652 140.76L-2.2182 113.099V112.479L154.652 140.14V140.76Z" fill="#2B5E63"/>
      <path d="M154.652 141.37L-2.2182 113.71V113.1L154.652 140.76V141.37Z" fill="#2A5D62"/>
      <path d="M154.652 141.99L-2.2182 114.329V113.709L154.652 141.37V141.99Z" fill="#2A5C61"/>
      <path d="M154.652 142.61L-2.2182 114.95V114.33L154.652 141.99V142.61Z" fill="#295B60"/>
      <path d="M154.652 143.22L-2.2182 115.56V114.95L154.652 142.61V143.22Z" fill="#295A5F"/>
      <path d="M154.652 143.839L-2.2182 116.18V115.56L154.652 143.219V143.839Z" fill="#28595E"/>
      <path d="M154.652 144.45L-2.2182 116.79V116.18L154.652 143.84V144.45Z" fill="#28575C"/>
      <path d="M154.652 145.069L-2.2182 117.41V116.79L154.652 144.449V145.069Z" fill="#27575B"/>
      <path d="M154.652 145.68L-2.2182 118.02V117.41L154.652 145.07V145.68Z" fill="#27565A"/>
      <path d="M154.652 146.3L-2.2182 118.64V118.02L154.652 145.68V146.3Z" fill="#265559"/>
      <path d="M154.652 146.91L-2.2182 119.25V118.64L154.652 146.3V146.91Z" fill="#265358"/>
      <path d="M154.652 147.53L-2.2182 119.87V119.25L154.652 146.91V147.53Z" fill="#255257"/>
      <path d="M154.652 148.14L-2.2182 120.48V119.87L154.652 147.53V148.14Z" fill="#255156"/>
      <path d="M154.652 148.76L-2.2182 121.099V120.479L154.652 148.14V148.76Z" fill="#245155"/>
      <path d="M154.652 149.37L-2.2182 121.71V121.1L154.652 148.76V149.37Z" fill="#244F54"/>
      <path d="M154.652 149.99L-2.2182 122.329V121.709L154.652 149.37V149.99Z" fill="#234E52"/>
      <path d="M154.652 150.61L-2.2182 122.95V122.33L154.652 149.99V150.61Z" fill="#234D51"/>
      <path d="M154.652 151.22L-2.2182 123.56V122.95L154.652 150.61V151.22Z" fill="#234B50"/>
      <path d="M154.652 151.839L-2.2182 124.18V123.56L154.652 151.219V151.839Z" fill="#224A4F"/>
      <path d="M154.652 152.45L-2.2182 124.79V124.18L154.652 151.84V152.45Z" fill="#224A4E"/>
      <path d="M154.652 153.069L-2.2182 125.41V124.79L154.652 152.449V153.069Z" fill="#21494D"/>
      <path d="M154.652 153.68L-2.2182 126.02V125.41L154.652 153.07V153.68Z" fill="#21484C"/>
      <path d="M154.652 154.3L-2.2182 126.64V126.02L154.652 153.68V154.3Z" fill="#20474B"/>
      <path d="M154.652 154.91L-2.2182 127.25V126.64L154.652 154.3V154.91Z" fill="#20464A"/>
      <path d="M154.652 155.53L-2.2182 127.87V127.25L154.652 154.91V155.53Z" fill="#1F4549"/>
      <path d="M154.652 156.14L-2.2182 128.48V127.87L154.652 155.53V156.14Z" fill="#1F4448"/>
      <path d="M154.652 156.76L-2.2182 129.099V128.479L154.652 156.14V156.76Z" fill="#1E4347"/>
      <path d="M154.652 157.37L-2.2182 129.71V129.1L154.652 156.76V157.37Z" fill="#1E4246"/>
      <path d="M154.652 157.99L-2.2182 130.329V129.709L154.652 157.37V157.99Z" fill="#1E4145"/>
      <path d="M154.652 158.61L-2.2182 130.95V130.33L154.652 157.99V158.61Z" fill="#1D4044"/>
      <path d="M154.652 159.22L-2.2182 131.56V130.95L154.652 158.61V159.22Z" fill="#1D3F43"/>
      <path d="M154.652 159.839L-2.2182 132.18V131.56L154.652 159.219V159.839Z" fill="#1C3E42"/>
      <path d="M154.652 160.45L-2.2182 132.79V132.18L154.652 159.84V160.45Z" fill="#1C3D41"/>
      <path d="M154.652 161.069L-2.2182 133.41V132.79L154.652 160.449V161.069Z" fill="#1B3C40"/>
      <path d="M154.652 161.68L-2.2182 134.02V133.41L154.652 161.07V161.68Z" fill="#1B3B3F"/>
      <path d="M154.652 162.3L-2.2182 134.64V134.02L154.652 161.68V162.3Z" fill="#1B3B3E"/>
      <path d="M154.652 162.91L-2.2182 135.25V134.64L154.652 162.3V162.91Z" fill="#1A3A3D"/>
      <path d="M154.652 163.53L-2.2182 135.87V135.25L154.652 162.91V163.53Z" fill="#1A383C"/>
      <path d="M154.652 164.14L-2.2182 136.48V135.87L154.652 163.53V164.14Z" fill="#19373B"/>
      <path d="M154.652 164.76L-2.2182 137.099V136.479L154.652 164.14V164.76Z" fill="#19373A"/>
      <path d="M154.652 165.38L-2.2182 137.71V137.1L154.652 164.76V165.38Z" fill="#183639"/>
      <path d="M154.652 165.99L-2.2182 138.329V137.709L154.652 165.38V165.99Z" fill="#183538"/>
      <path d="M154.652 166.61L-2.2182 138.95V138.33L154.652 165.99V166.61Z" fill="#183437"/>
      <path d="M154.652 167.22L-2.2182 139.56V138.95L154.652 166.61V167.22Z" fill="#173336"/>
      <path d="M154.652 167.839L-2.2182 140.18V139.56L154.652 167.219V167.839Z" fill="#173235"/>
      <path d="M154.652 168.45L-2.2182 140.79V140.18L154.652 167.84V168.45Z" fill="#163234"/>
      <path d="M154.652 169.069L-2.2182 141.41V140.79L154.652 168.449V169.069Z" fill="#163133"/>
      <path d="M154.652 169.68L-2.2182 142.02V141.41L154.652 169.07V169.68Z" fill="#162F32"/>
      <path d="M154.652 170.3L-2.2182 142.64V142.02L154.652 169.68V170.3Z" fill="#152E31"/>
      <path d="M154.652 170.91L-2.2182 143.25V142.64L154.652 170.3V170.91Z" fill="#152E30"/>
      <path d="M154.652 171.53L-2.2182 143.87V143.25L154.652 170.91V171.53Z" fill="#142D30"/>
      <path d="M154.652 172.14L-2.2182 144.48V143.87L154.652 171.53V172.14Z" fill="#142D2F"/>
      <path d="M154.652 172.76L-2.2182 145.099V144.479L154.652 172.14V172.76Z" fill="#142B2E"/>
      <path d="M154.652 173.38L-2.2182 145.71V145.1L154.652 172.76V173.38Z" fill="#132A2D"/>
      <path d="M154.652 173.99L-2.2182 146.329V145.709L154.652 173.38V173.99Z" fill="#132A2C"/>
      <path d="M154.652 174.61L-2.2182 146.95V146.33L154.652 173.99V174.61Z" fill="#13292B"/>
      <path d="M154.652 175.22L-2.2182 147.56V146.95L154.652 174.61V175.22Z" fill="#12282A"/>
      <path d="M154.652 175.839L-2.2182 148.18V147.56L154.652 175.219V175.839Z" fill="#122729"/>
      <path d="M154.652 176.45L-2.2182 148.79V148.18L154.652 175.84V176.45Z" fill="#112729"/>
      <path d="M154.652 177.069L-2.2182 149.41V148.79L154.652 176.449V177.069Z" fill="#112528"/>
      <path d="M154.652 177.68L-2.2182 150.02V149.41L154.652 177.07V177.68Z" fill="#112527"/>
      <path d="M154.652 178.3L-2.2182 150.64V150.02L154.652 177.68V178.3Z" fill="#102426"/>
      <path d="M154.652 178.91L-2.2182 151.25V150.64L154.652 178.3V178.91Z" fill="#102425"/>
      <path d="M154.652 179.53L-2.2182 151.87V151.25L154.652 178.91V179.53Z" fill="#102325"/>
      <path d="M154.652 180.14L-2.2182 152.48V151.87L154.652 179.53V180.14Z" fill="#0F2224"/>
      <path d="M154.652 180.76L-2.2182 153.099V152.479L154.652 180.14V180.76Z" fill="#0F2123"/>
      <path d="M154.652 181.38L-2.2182 153.72V153.1L154.652 180.76V181.38Z" fill="#0F2022"/>
      <path d="M154.652 181.99L-2.2182 154.33V153.72L154.652 181.38V181.99Z" fill="#0E2021"/>
      <path d="M154.652 182.61L-2.2182 154.95V154.33L154.652 181.99V182.61Z" fill="#0E1F21"/>
      <path d="M154.652 183.22L-2.2182 155.56V154.95L154.652 182.61V183.22Z" fill="#0E1F20"/>
      <path d="M154.652 183.839L-2.2182 156.18V155.56L154.652 183.219V183.839Z" fill="#0D1E1F"/>
      <path d="M154.652 184.45L-2.2182 156.79V156.18L154.652 183.84V184.45Z" fill="#0D1C1E"/>
      <path d="M154.652 185.069L-2.2182 157.41V156.79L154.652 184.449V185.069Z" fill="#0D1C1E"/>
      <path d="M154.652 185.68L-2.2182 158.02V157.41L154.652 185.07V185.68Z" fill="#0C1B1D"/>
      <path d="M154.652 186.3L-2.2182 158.64V158.02L154.652 185.68V186.3Z" fill="#0C151C"/>
      <path d="M154.652 186.91L-2.2182 159.25V158.64L154.652 186.3V186.91Z" fill="#0C141B"/>
      <path d="M154.652 187.53L-2.2182 159.87V159.25L154.652 186.91V187.53Z" fill="#0B141B"/>
      <path d="M154.652 188.14L-2.2182 160.48V159.87L154.652 187.53V188.14Z" fill="#0B131A"/>
      <path d="M154.652 188.76L-2.2182 161.099V160.479L154.652 188.14V188.76Z" fill="#0B1319"/>
      <path d="M154.652 189.38L-2.2182 161.72V161.1L154.652 188.76V189.38Z" fill="#0B1219"/>
      <path d="M154.652 189.99L-2.2182 162.33V161.72L154.652 189.38V189.99Z" fill="#0A1218"/>
      <path d="M154.652 190.61L-2.2182 162.95V162.33L154.652 189.99V190.61Z" fill="#0A1117"/>
      <path d="M154.652 191.22L-2.2182 163.56V162.95L154.652 190.61V191.22Z" fill="#0A1116"/>
      <path d="M154.652 191.839L-2.2182 164.18V163.56L154.652 191.219V191.839Z" fill="#091016"/>
      <path d="M154.652 192.45L-2.2182 164.79V164.18L154.652 191.84V192.45Z" fill="#091015"/>
      <path d="M154.652 193.069L-2.2182 165.41V164.79L154.652 192.449V193.069Z" fill="#090F15"/>
      <path d="M154.652 193.68L-2.2182 166.02V165.41L154.652 193.07V193.68Z" fill="#090F14"/>
      <path d="M154.652 194.3L-2.2182 166.64V166.02L154.652 193.68V194.3Z" fill="#080E13"/>
      <path d="M154.652 194.91L-2.2182 167.25V166.64L154.652 194.3V194.91Z" fill="#080E13"/>
      <path d="M154.652 195.53L-2.2182 167.87V167.25L154.652 194.91V195.53Z" fill="#080D12"/>
      <path d="M154.652 196.14L-2.2182 168.48V167.87L154.652 195.53V196.14Z" fill="#070D11"/>
      <path d="M154.652 196.76L-2.2182 169.099V168.479L154.652 196.14V196.76Z" fill="#070C11"/>
      <path d="M154.652 197.38L-2.2182 169.72V169.1L154.652 196.76V197.38Z" fill="#070C10"/>
      <path d="M154.652 197.99L-2.2182 170.33V169.72L154.652 197.38V197.99Z" fill="#070C10"/>
      <path d="M154.652 198.61L-2.2182 170.95V170.33L154.652 197.99V198.61Z" fill="#060B0F"/>
      <path d="M154.652 199.22L-2.2182 171.56V170.95L154.652 198.61V199.22Z" fill="#060B0E"/>
      <path d="M151.452 199.27L-2.2182 172.18V171.56L154.652 199.219V199.27H151.452Z" fill="#060A0E"/>
      <path d="M147.962 199.27L-2.2182 172.79V172.18L151.452 199.27H147.962Z" fill="#060A0D"/>
      <path d="M144.472 199.27L-2.2182 173.41V172.79L147.962 199.27H144.472Z" fill="#06090D"/>
      <path d="M140.982 199.27L-2.2182 174.02V173.41L144.472 199.27H140.982Z" fill="#05090C"/>
      <path d="M137.492 199.27L-2.2182 174.64V174.02L140.982 199.27H137.492Z" fill="#05090C"/>
      <path d="M134.002 199.27L-2.2182 175.25V174.64L137.492 199.27H134.002Z" fill="#05080B"/>
      <path d="M130.512 199.27L-2.2182 175.87V175.25L134.002 199.27H130.512Z" fill="#05080B"/>
      <path d="M127.022 199.27L-2.2182 176.48V175.87L130.512 199.27H127.022Z" fill="#04080A"/>
      <path d="M123.532 199.27L-2.2182 177.099V176.479L127.022 199.27H123.532Z" fill="#04070A"/>
      <path d="M120.042 199.27L-2.2182 177.72V177.1L123.532 199.27H120.042Z" fill="#040709"/>
      <path d="M116.552 199.27L-2.2182 178.33V177.72L120.042 199.27H116.552Z" fill="#040609"/>
      <path d="M113.062 199.27L-2.2182 178.95V178.33L116.552 199.27H113.062Z" fill="#040608"/>
      <path d="M109.572 199.27L-2.2182 179.56V178.95L113.062 199.27H109.572Z" fill="#030608"/>
      <path d="M106.082 199.27L-2.2182 180.18V179.56L109.572 199.27H106.082Z" fill="#030507"/>
      <path d="M102.592 199.27L-2.2182 180.79V180.18L106.082 199.27H102.592Z" fill="#030507"/>
      <path d="M99.1017 199.27L-2.2182 181.41V180.79L102.592 199.27H99.1017Z" fill="#030507"/>
      <path d="M95.6118 199.27L-2.2182 182.02V181.41L99.1017 199.27H95.6118Z" fill="#030506"/>
      <path d="M92.1218 199.27L-2.2182 182.64V182.02L95.6118 199.27H92.1218Z" fill="#020406"/>
      <path d="M88.6318 199.27L-2.2182 183.25V182.64L92.1218 199.27H88.6318Z" fill="#020405"/>
      <path d="M85.1418 199.27L-2.2182 183.87V183.25L88.6318 199.27H85.1418Z" fill="#020405"/>
      <path d="M81.6518 199.27L-2.2182 184.48V183.87L85.1418 199.27H81.6518Z" fill="#020305"/>
      <path d="M78.1617 199.27L-2.2182 185.099V184.479L81.6518 199.27H78.1617Z" fill="#020304"/>
      <path d="M74.6718 199.27L-2.2182 185.72V185.1L78.1617 199.27H74.6718Z" fill="#020304"/>
      <path d="M71.1818 199.27L-2.2182 186.33V185.72L74.6718 199.27H71.1818Z" fill="#020304"/>
      <path d="M67.6918 199.27L-2.2182 186.95V186.33L71.1818 199.27H67.6918Z" fill="#010203"/>
      <path d="M64.2018 199.27L-2.2182 187.56V186.95L67.6918 199.27H64.2018Z" fill="#010203"/>
      <path d="M60.7118 199.27L-2.2182 188.18V187.56L64.2018 199.27H60.7118Z" fill="#010203"/>
      <path d="M57.2217 199.27L-2.2182 188.79V188.18L60.7118 199.27H57.2217Z" fill="#010202"/>
      <path d="M53.7318 199.27L-2.2182 189.41V188.79L57.2217 199.27H53.7318Z" fill="#010102"/>
      <path d="M50.2418 199.27L-2.2182 190.02V189.41L53.7318 199.27H50.2418Z" fill="#010102"/>
      <path d="M46.7518 199.27L-2.2182 190.64V190.02L50.2418 199.27H46.7518Z" fill="#010101"/>
      <path d="M43.2618 199.27L-2.2182 191.25V190.64L46.7518 199.27H43.2618Z" fill="#010101"/>
      <path d="M39.7718 199.27L-2.2182 191.87V191.25L43.2618 199.27H39.7718Z" fill="#000101"/>
      <path d="M36.2818 199.27L-2.2182 192.49V191.87L39.7718 199.27H36.2818Z" fill="#000101"/>
      <path d="M32.7917 199.27L-2.2182 193.1V192.49L36.2818 199.27H32.7917Z" fill="#000001"/>
      <path d="M29.3018 199.27L-2.2182 193.72V193.1L32.7917 199.27H29.3018Z" fill="black"/>
      <path d="M25.8118 199.27L-2.2182 194.33V193.72L29.3018 199.27H25.8118Z" fill="black"/>
      <path d="M22.3218 199.27L-2.2182 194.95V194.33L25.8118 199.27H22.3218Z" fill="black"/>
      <path d="M18.8318 199.27L-2.2182 195.56V194.95L22.3218 199.27H18.8318Z" fill="black"/>
      <path d="M15.3418 199.27L-2.2182 196.18V195.56L18.8318 199.27H15.3418Z" fill="black"/>
      <path d="M11.8517 199.27L-2.2182 196.79V196.18L15.3418 199.27H11.8517Z" fill="black"/>
      <path d="M-2.2182 196.79L11.8517 199.27H-2.2182V196.79Z" fill="black"/>
    </g>
  </g>
</svg>