<svg xmlns="http://www.w3.org/2000/svg" width="156" height="200" viewBox="0 0 156 200" fill="none">
  <g style="mix-blend-mode:lighten" opacity="0.66">
    <mask id="mask0_1_1898" style="mask-type:luminance" maskUnits="userSpaceOnUse" x="0" y="0" width="156" height="200">
      <path d="M73.4517 199.27C59.8417 199.27 46.4218 197.45 33.1818 193.82C21.1218 190.51 10.6017 185.84 1.64173 179.82C0.161731 178.83 -0.348323 176.89 0.461677 175.3L14.8717 147.17C15.8217 145.32 18.1517 144.7 19.8917 145.84C26.5817 150.23 34.1418 153.83 42.5518 156.63C52.3418 159.89 62.3617 161.52 72.6117 161.52C83.9817 161.52 92.9317 159.24 99.4517 154.67C105.972 150.1 109.242 143.91 109.242 136.07C109.242 128.23 106.352 122.75 100.572 118.45C94.7917 114.16 85.4717 112.02 72.6117 112.02H55.7017C53.7717 112.02 52.2017 110.45 52.2017 108.52V83.6896C52.2017 82.8396 52.5118 82.0196 53.0618 81.3896L102.322 25.0197C104.122 22.9597 107.492 23.6697 108.302 26.2897L110.072 31.9896C110.772 34.2396 109.092 36.5297 106.732 36.5297H12.3617C10.4317 36.5297 8.8617 34.9597 8.8617 33.0297V3.67969C8.8617 1.74969 10.4317 0.179688 12.3617 0.179688H142.382C144.312 0.179688 145.882 1.74969 145.882 3.67969V28.2196C145.882 29.0696 145.572 29.8897 145.012 30.5297L93.5217 89.1896C92.4217 90.4396 90.5917 90.7497 89.1517 89.9197L80.1117 84.7396C77.0017 82.9596 78.2617 78.1996 81.8517 78.1996C105.902 78.1996 124.122 83.6097 136.522 94.4197C148.922 105.23 155.122 119.03 155.122 135.8C155.122 146.99 152.182 157.43 146.312 167.12C140.442 176.81 131.532 184.6 119.612 190.47C107.682 196.34 92.3017 199.28 73.4717 199.28L73.4517 199.27Z" fill="white"/>
    </mask>
    <g mask="url(#mask0_1_1898)">
      <path d="M155.102 1.80969L145.882 0.179688H155.102V1.80969Z" fill="#179FAE"/>
      <path d="M155.102 2.73962L140.582 0.179688H145.882L155.102 1.80969V2.73962Z" fill="#179FAE"/>
      <path d="M155.102 3.67969L135.292 0.179688H140.582L155.102 2.73962V3.67969Z" fill="#18A0AF"/>
      <path d="M155.102 4.60962L129.992 0.179688H135.292L155.102 3.67969V4.60962Z" fill="#19A1B0"/>
      <path d="M155.102 5.53967L124.692 0.179688H129.992L155.102 4.60962V5.53967Z" fill="#1AA2B0"/>
      <path d="M155.102 6.47961L119.402 0.179688H124.692L155.102 5.53967V6.47961Z" fill="#1BA3B1"/>
      <path d="M155.102 7.40967L114.102 0.179688H119.402L155.102 6.47961V7.40967Z" fill="#1DA3B2"/>
      <path d="M155.102 8.3396L108.812 0.179688H114.102L155.102 7.40967V8.3396Z" fill="#1EA4B3"/>
      <path d="M155.102 9.27966L103.512 0.179688H108.812L155.102 8.3396V9.27966Z" fill="#1FA5B4"/>
      <path d="M155.102 10.2096L98.2217 0.179688H103.512L155.102 9.27966V10.2096Z" fill="#20A6B4"/>
      <path d="M155.102 11.1497L92.9218 0.179688H98.2217L155.102 10.2096V11.1497Z" fill="#21A7B5"/>
      <path d="M155.102 12.0796L87.6317 0.179688H92.9218L155.102 11.1497V12.0796Z" fill="#22A8B6"/>
      <path d="M155.102 13.0096L82.3317 0.179688H87.6317L155.102 12.0796V13.0096Z" fill="#23A8B7"/>
      <path d="M155.102 13.9496L77.0417 0.179688H82.3317L155.102 13.0096V13.9496Z" fill="#24A9B8"/>
      <path d="M155.102 14.8796L71.7417 0.179688H77.0417L155.102 13.9496V14.8796Z" fill="#25AAB9"/>
      <path d="M155.102 15.8097L66.4517 0.179688H71.7417L155.102 14.8796V15.8097Z" fill="#26ABB9"/>
      <path d="M155.102 16.7496L61.1517 0.179688H66.4517L155.102 15.8097V16.7496Z" fill="#27ACBA"/>
      <path d="M155.102 17.6797L55.8617 0.179688H61.1517L155.102 16.7496V17.6797Z" fill="#29ACBB"/>
      <path d="M155.102 18.6096L50.5618 0.179688H55.8617L155.102 17.6797V18.6096Z" fill="#2AADBC"/>
      <path d="M155.102 19.5497L45.2717 0.179688H50.5618L155.102 18.6096V19.5497Z" fill="#2BAEBD"/>
      <path d="M155.102 20.4796L39.9717 0.179688H45.2717L155.102 19.5497V20.4796Z" fill="#2CAFBD"/>
      <path d="M155.102 21.4197L34.6818 0.179688H39.9717L155.102 20.4796V21.4197Z" fill="#2DB0BE"/>
      <path d="M155.102 22.3496L29.3817 0.179688H34.6818L155.102 21.4197V22.3496Z" fill="#2EB1BF"/>
      <path d="M155.102 23.2797L24.0917 0.179688H29.3817L155.102 22.3496V23.2797Z" fill="#2FB2C0"/>
      <path d="M155.102 24.2196L18.7917 0.179688H24.0917L155.102 23.2797V24.2196Z" fill="#30B2C0"/>
      <path d="M155.102 25.1497L13.5017 0.179688H18.7917L155.102 24.2196V25.1497Z" fill="#31B3C1"/>
      <path d="M155.102 26.0796L8.20166 0.179688H13.5017L155.102 25.1497V26.0796Z" fill="#32B4C2"/>
      <path d="M155.102 27.0197L6.30176 0.779663L6.41174 0.179688H8.20166L155.102 26.0796V27.0197Z" fill="#33B5C3"/>
      <path d="M155.102 27.9497L6.14172 1.6897L6.30176 0.779785L155.102 27.0198V27.9497Z" fill="#34B5C4"/>
      <path d="M155.102 28.8895L5.98169 2.58948L6.14172 1.68945L155.102 27.9495V28.8895Z" fill="#35B6C4"/>
      <path d="M155.102 29.8196L5.82166 3.49963L5.98169 2.5896L155.102 28.8896V29.8196Z" fill="#36B7C5"/>
      <path d="M155.102 30.7495L5.67175 4.39954L5.82166 3.49951L155.102 29.8195V30.7495Z" fill="#38B8C6"/>
      <path d="M155.102 31.6896L5.51172 5.30969L5.67175 4.39966L155.102 30.7496V31.6896Z" fill="#39B9C7"/>
      <path d="M155.102 32.6195L5.35168 6.20947L5.51172 5.30957L155.102 31.6895V32.6195Z" fill="#3ABAC8"/>
      <path d="M155.102 33.5496L5.19165 7.11951L5.35168 6.20947L155.102 32.6195V33.5496Z" fill="#3BBAC8"/>
      <path d="M155.102 34.4896L5.03174 8.01965L5.19165 7.11963L155.102 33.5497V34.4896Z" fill="#3CBBC9"/>
      <path d="M155.102 35.4196L4.8717 8.92957L5.03174 8.01953L155.102 34.4895V35.4196Z" fill="#3DBCCA"/>
      <path d="M155.102 36.3496L4.71167 9.8396L4.8717 8.92969L155.102 35.4197V36.3496Z" fill="#3EBDCB"/>
      <path d="M155.102 37.2897L4.55176 10.7396L4.71167 9.8396L155.102 36.3496V37.2897Z" fill="#3FBECB"/>
      <path d="M155.102 38.2197L4.39172 11.6498L4.55176 10.7397L155.102 37.2898V38.2197Z" fill="#40BECC"/>
      <path d="M155.102 39.1597L4.23169 12.5497L4.39172 11.6497L155.102 38.2196V39.1597Z" fill="#41BFCD"/>
      <path d="M155.102 40.0897L4.07166 13.4597L4.23169 12.5498L155.102 39.1598V40.0897Z" fill="#42C0CE"/>
      <path d="M155.102 41.0195L3.91174 14.3595L4.07166 13.4595L155.102 40.0895V41.0195Z" fill="#43C1CE"/>
      <path d="M155.102 41.9596L3.75171 15.2697L3.91174 14.3596L155.102 41.0197V41.9596Z" fill="#44C2CF"/>
      <path d="M155.102 42.8895L3.59167 16.1696L3.75171 15.2695L155.102 41.9595V42.8895Z" fill="#45C3D0"/>
      <path d="M155.102 43.8196L3.43176 17.0796L3.59167 16.1697L155.102 42.8896V43.8196Z" fill="#46C4D1"/>
      <path d="M155.102 44.7596L3.27173 17.9896L3.43176 17.0796L155.102 43.8196V44.7596Z" fill="#47C4D1"/>
      <path d="M155.102 45.6897L3.11169 18.8898L3.27173 17.9897L155.102 44.7598V45.6897Z" fill="#48C5D2"/>
      <path d="M155.102 46.6296L2.95166 19.7997L3.11169 18.8896L155.102 45.6896V46.6296Z" fill="#49C6D3"/>
      <path d="M155.102 47.5598L2.79175 20.6997L2.95166 19.7998L155.102 46.6298V47.5598Z" fill="#4AC6D4"/>
      <path d="M155.102 48.4897L2.63171 21.6097L2.79175 20.6997L155.102 47.5598V48.4897Z" fill="#4BC7D4"/>
      <path d="M155.102 49.4297L2.47168 22.5096L2.63171 21.6096L155.102 48.4896V49.4297Z" fill="#4CC8D5"/>
      <path d="M155.102 50.3597L2.31177 23.4198L2.47168 22.5098L155.102 49.4298V50.3597Z" fill="#4DC9D6"/>
      <path d="M155.102 51.2897L2.15173 24.3196L2.31177 23.4197L155.102 50.3596V51.2897Z" fill="#4ECAD7"/>
      <path d="M155.102 52.2296L1.9917 25.2296L2.15173 24.3196L155.102 51.2897V52.2296Z" fill="#4FCBD7"/>
      <path d="M155.102 53.1595L1.83167 26.1395L1.9917 25.2295L155.102 52.2295V53.1595Z" fill="#50CCD8"/>
      <path d="M155.102 54.0896L1.67175 27.0397L1.83167 26.1396L155.102 53.1597V54.0896Z" fill="#51CCD9"/>
      <path d="M155.102 55.0295L1.51172 27.9495L1.67175 27.0396L155.102 54.0895V55.0295Z" fill="#52CDDA"/>
      <path d="M155.102 55.9597L1.35168 28.8497L1.51172 27.9497L155.102 55.0298V55.9597Z" fill="#53CDDA"/>
      <path d="M155.102 56.8997L1.19165 29.7596L1.35168 28.8496L155.102 55.9596V56.8997Z" fill="#54CEDB"/>
      <path d="M155.102 57.8297L1.03174 30.6598L1.19165 29.7598L155.102 56.8998V57.8297Z" fill="#55CFDC"/>
      <path d="M155.102 58.7596L0.881714 31.5696L1.03174 30.6597L155.102 57.8296V58.7596Z" fill="#56D0DC"/>
      <path d="M155.102 59.6996L0.72168 32.4696L0.881714 31.5696L155.102 58.7596V59.6996Z" fill="#57D0DD"/>
      <path d="M155.102 60.6298L0.561768 33.3798L0.72168 32.4697L155.102 59.6997V60.6298Z" fill="#58D1DE"/>
      <path d="M155.102 61.5597L0.401733 34.2897L0.561768 33.3796L155.102 60.6296V61.5597Z" fill="#59D1DE"/>
      <path d="M155.102 62.4995L0.241699 35.1895L0.401733 34.2896L155.102 61.5596V62.4995Z" fill="#5AD2DF"/>
      <path d="M155.102 63.4296L0.081665 36.0995L0.241699 35.1895L155.102 62.4995V63.4296Z" fill="#5BD3E0"/>
      <path d="M155.102 64.3696L-0.0782471 36.9996L0.081665 36.0996L155.102 63.4297V64.3696Z" fill="#5CD3E0"/>
      <path d="M155.102 65.2996L-0.238281 37.9095L-0.0782471 36.9995L155.102 64.3695V65.2996Z" fill="#5CD4E1"/>
      <path d="M155.102 66.2296L-0.398315 38.8097L-0.238281 37.9097L155.102 65.2997V66.2296Z" fill="#5DD5E2"/>
      <path d="M155.102 67.1696L-0.55835 39.7195L-0.398315 38.8096L155.102 66.2295V67.1696Z" fill="#5ED6E2"/>
      <path d="M155.102 68.0997L-0.718262 40.6198L-0.55835 39.7197L155.102 67.1698V68.0997Z" fill="#5FD7E3"/>
      <path d="M155.102 69.0297L-0.878296 41.5297L-0.718262 40.6196L155.102 68.0996V69.0297Z" fill="#60D7E4"/>
      <path d="M155.102 69.9697L-0.928345 42.4597V41.7898L-0.878296 41.5298L155.102 69.0298V69.9697Z" fill="#61D8E4"/>
      <path d="M155.102 70.8995L-0.928345 43.3895V42.4595L155.102 69.9695V70.8995Z" fill="#62D9E5"/>
      <path d="M155.102 71.8296L-0.928345 44.3196V43.3896L155.102 70.8997V71.8296Z" fill="#62D9E5"/>
      <path d="M155.102 72.7697L-0.928345 45.2596V44.3196L155.102 71.8296V72.7697Z" fill="#63DAE6"/>
      <path d="M155.102 73.3898L-0.928345 45.8698V45.2598L155.102 72.7698V73.3898Z" fill="#63DAE6"/>
      <path d="M155.102 74.0096L-0.928345 46.4896V45.8696L155.102 73.3896V74.0096Z" fill="#62D8E4"/>
      <path d="M155.102 74.6198L-0.928345 47.1097V46.4897L155.102 74.0098V74.6198Z" fill="#62D7E3"/>
      <path d="M155.102 75.2396L-0.928345 47.7296V47.1096L155.102 74.6196V75.2396Z" fill="#61D5E1"/>
      <path d="M155.102 75.8595L-0.928345 48.3495V47.7295L155.102 75.2395V75.8595Z" fill="#60D4E0"/>
      <path d="M155.102 76.4796L-0.928345 48.9696V48.3496L155.102 75.8596V76.4796Z" fill="#60D2DE"/>
      <path d="M155.102 77.0997L-0.928345 49.5897V48.9697L155.102 76.4797V77.0997Z" fill="#5FD1DC"/>
      <path d="M155.102 77.7196L-0.928345 50.2096V49.5896L155.102 77.0996V77.7196Z" fill="#5ED0DB"/>
      <path d="M155.102 78.3395L-0.928345 50.8195V50.2095L155.102 77.7195V78.3395Z" fill="#5DCED9"/>
      <path d="M155.102 78.9496L-0.928345 51.4396V50.8196L155.102 78.3396V78.9496Z" fill="#5DCCD8"/>
      <path d="M155.102 79.5695L-0.928345 52.0596V51.4395L155.102 78.9495V79.5695Z" fill="#5CCAD6"/>
      <path d="M155.102 80.1895L-0.928345 52.6796V52.0596L155.102 79.5695V80.1895Z" fill="#5BC9D4"/>
      <path d="M155.102 80.8097L-0.928345 53.2997V52.6797L155.102 80.1896V80.8097Z" fill="#5BC8D3"/>
      <path d="M155.102 81.4298L-0.928345 53.9198V53.2998L155.102 80.8098V81.4298Z" fill="#5AC6D1"/>
      <path d="M155.102 82.0497L-0.928345 54.5397V53.9197L155.102 81.4297V82.0497Z" fill="#59C5D0"/>
      <path d="M155.102 82.6696L-0.928345 55.1495V54.5396L155.102 82.0496V82.6696Z" fill="#59C3CE"/>
      <path d="M155.102 83.2797L-0.928345 55.7697V55.1497L155.102 82.6697V83.2797Z" fill="#58C2CD"/>
      <path d="M155.102 83.8995L-0.928345 56.3895V55.7695L155.102 83.2795V83.8995Z" fill="#57C0CB"/>
      <path d="M155.102 84.5197L-0.928345 57.0096V56.3896L155.102 83.8997V84.5197Z" fill="#57BFCA"/>
      <path d="M155.102 85.1398L-0.928345 57.6298V57.0098L155.102 84.5198V85.1398Z" fill="#56BEC8"/>
      <path d="M155.102 85.7596L-0.928345 58.2496V57.6296L155.102 85.1396V85.7596Z" fill="#55BDC7"/>
      <path d="M155.102 86.3795L-0.928345 58.8695V58.2495L155.102 85.7595V86.3795Z" fill="#55BBC5"/>
      <path d="M155.102 86.9996L-0.928345 59.4796V58.8696L155.102 86.3796V86.9996Z" fill="#54BAC4"/>
      <path d="M155.102 87.6095L-0.928345 60.0995V59.4795L155.102 86.9995V87.6095Z" fill="#53B7C2"/>
      <path d="M155.102 88.2296L-0.928345 60.7196V60.0996L155.102 87.6096V88.2296Z" fill="#53B6C0"/>
      <path d="M155.102 88.8497L-0.928345 61.3397V60.7197L155.102 88.2297V88.8497Z" fill="#52B5BF"/>
      <path d="M155.102 89.4696L-0.928345 61.9596V61.3396L155.102 88.8496V89.4696Z" fill="#52B3BD"/>
      <path d="M155.102 90.0895L-0.928345 62.5795V61.9595L155.102 89.4695V90.0895Z" fill="#51B2BC"/>
      <path d="M155.102 90.7096L-0.928345 63.1996V62.5796L155.102 90.0896V90.7096Z" fill="#50B1BA"/>
      <path d="M155.102 91.3297L-0.928345 63.8098V63.1997L155.102 90.7097V91.3297Z" fill="#50AFB9"/>
      <path d="M155.102 91.9495L-0.928345 64.4296V63.8096L155.102 91.3295V91.9495Z" fill="#4FAEB7"/>
      <path d="M155.102 92.5597L-0.928345 65.0497V64.4297L155.102 91.9496V92.5597Z" fill="#4EADB6"/>
      <path d="M155.102 93.1798L-0.928345 65.6698V65.0498L155.102 92.5598V93.1798Z" fill="#4EAAB5"/>
      <path d="M155.102 93.7997L-0.928345 66.2897V65.6697L155.102 93.1797V93.7997Z" fill="#4DA9B3"/>
      <path d="M155.102 94.4196L-0.928345 66.9095V66.2896L155.102 93.7996V94.4196Z" fill="#4CA8B2"/>
      <path d="M155.102 95.0397L-0.928345 67.5297V66.9097L155.102 94.4197V95.0397Z" fill="#4CA6B0"/>
      <path d="M155.102 95.6598L-0.928345 68.1398V67.5298L155.102 95.0398V95.6598Z" fill="#4BA5AF"/>
      <path d="M155.102 96.2797L-0.928345 68.7596V68.1396L155.102 95.6597V96.2797Z" fill="#4BA4AD"/>
      <path d="M155.102 96.8898L-0.928345 69.3798V68.7598L155.102 96.2798V96.8898Z" fill="#4AA3AC"/>
      <path d="M155.102 97.5096L-0.928345 69.9996V69.3796L155.102 96.8896V97.5096Z" fill="#49A1AA"/>
      <path d="M155.102 98.1295L-0.928345 70.6195V69.9995L155.102 97.5095V98.1295Z" fill="#49A0A9"/>
      <path d="M155.102 98.7496L-0.928345 71.2396V70.6196L155.102 98.1296V98.7496Z" fill="#489FA7"/>
      <path d="M155.102 99.3698L-0.928345 71.8597V71.2397L155.102 98.7498V99.3698Z" fill="#479EA6"/>
      <path d="M155.102 99.9896L-0.928345 72.4696V71.8596L155.102 99.3696V99.9896Z" fill="#479CA5"/>
      <path d="M155.102 100.61L-0.928345 73.0897V72.4697L155.102 99.9897V100.61Z" fill="#469BA3"/>
      <path d="M155.102 101.22L-0.928345 73.7096V73.0896L155.102 100.61V101.22Z" fill="#4699A2"/>
      <path d="M155.102 101.839L-0.928345 74.3295V73.7095L155.102 101.219V101.839Z" fill="#4598A0"/>
      <path d="M155.102 102.46L-0.928345 74.9496V74.3296L155.102 101.84V102.46Z" fill="#44969F"/>
      <path d="M155.102 103.08L-0.928345 75.5697V74.9497L155.102 102.46V103.08Z" fill="#44959E"/>
      <path d="M155.102 103.7L-0.928345 76.1896V75.5696L155.102 103.08V103.7Z" fill="#43939C"/>
      <path d="M155.102 104.319L-0.928345 76.8096V76.1895L155.102 103.699V104.319Z" fill="#43929B"/>
      <path d="M155.102 104.939L-0.928345 77.4196V76.8096L155.102 104.319V104.939Z" fill="#429199"/>
      <path d="M155.102 105.55L-0.928345 78.0397V77.4197L155.102 104.94V105.55Z" fill="#419098"/>
      <path d="M155.102 106.17L-0.928345 78.6595V78.0396L155.102 105.55V106.17Z" fill="#418E97"/>
      <path d="M155.102 106.79L-0.928345 79.2797V78.6597L155.102 106.17V106.79Z" fill="#408D95"/>
      <path d="M155.102 107.41L-0.928345 79.8998V79.2798L155.102 106.79V107.41Z" fill="#408C94"/>
      <path d="M155.102 108.03L-0.928345 80.5197V79.8997L155.102 107.41V108.03Z" fill="#3F8A92"/>
      <path d="M155.102 108.65L-0.928345 81.1395V80.5195L155.102 108.03V108.65Z" fill="#3E8991"/>
      <path d="M155.102 109.27L-0.928345 81.7496V81.1396L155.102 108.65V109.27Z" fill="#3E8890"/>
      <path d="M155.102 109.88L-0.928345 82.3695V81.7495L155.102 109.27V109.88Z" fill="#3D868E"/>
      <path d="M155.102 110.5L-0.928345 82.9896V82.3696L155.102 109.88V110.5Z" fill="#3D858D"/>
      <path d="M155.102 111.12L-0.928345 83.6097V82.9897L155.102 110.5V111.12Z" fill="#3C848C"/>
      <path d="M155.102 111.74L-0.928345 84.2296V83.6096L155.102 111.12V111.74Z" fill="#3C828A"/>
      <path d="M155.102 112.359L-0.928345 84.8495V84.2295L155.102 111.74V112.359Z" fill="#3B8189"/>
      <path d="M155.102 112.98L-0.928345 85.4696V84.8496L155.102 112.36V112.98Z" fill="#3A8088"/>
      <path d="M155.102 113.6L-0.928345 86.0797V85.4697L155.102 112.98V113.6Z" fill="#3A7F86"/>
      <path d="M155.102 114.21L-0.928345 86.6996V86.0796L155.102 113.6V114.21Z" fill="#397E85"/>
      <path d="M155.102 114.83L-0.928345 87.3197V86.6997L155.102 114.21V114.83Z" fill="#397C84"/>
      <path d="M155.102 115.45L-0.928345 87.9396V87.3196L155.102 114.83V115.45Z" fill="#387B82"/>
      <path d="M155.102 116.069L-0.928345 88.5596V87.9395L155.102 115.449V116.069Z" fill="#387A81"/>
      <path d="M155.102 116.689L-0.928345 89.1796V88.5596L155.102 116.069V116.689Z" fill="#377A80"/>
      <path d="M155.102 117.31L-0.928345 89.7997V89.1797L155.102 116.69V117.31Z" fill="#36797F"/>
      <path d="M155.102 117.93L-0.928345 90.4098V89.7998L155.102 117.31V117.93Z" fill="#36777D"/>
      <path d="M155.102 118.55L-0.928345 91.0297V90.4097L155.102 117.93V118.55Z" fill="#35767C"/>
      <path d="M155.102 119.16L-0.928345 91.6498V91.0298L155.102 118.55V119.16Z" fill="#35747B"/>
      <path d="M155.102 119.78L-0.928345 92.2697V91.6497L155.102 119.16V119.78Z" fill="#347379"/>
      <path d="M155.102 120.4L-0.928345 92.8895V92.2695L155.102 119.78V120.4Z" fill="#347278"/>
      <path d="M155.102 121.02L-0.928345 93.5096V92.8896L155.102 120.4V121.02Z" fill="#337177"/>
      <path d="M155.102 121.64L-0.928345 94.1298V93.5098L155.102 121.02V121.64Z" fill="#336F76"/>
      <path d="M155.102 122.26L-0.928345 94.7396V94.1296L155.102 121.64V122.26Z" fill="#326E74"/>
      <path d="M155.102 122.88L-0.928345 95.3597V94.7397L155.102 122.26V122.88Z" fill="#326D73"/>
      <path d="M155.102 123.49L-0.928345 95.9796V95.3596L155.102 122.88V123.49Z" fill="#316C72"/>
      <path d="M155.102 124.109L-0.928345 96.5995V95.9795L155.102 123.49V124.109Z" fill="#316A71"/>
      <path d="M155.102 124.73L-0.928345 97.2196V96.5996L155.102 124.11V124.73Z" fill="#30696F"/>
      <path d="M155.102 125.35L-0.928345 97.8397V97.2197L155.102 124.73V125.35Z" fill="#2F686E"/>
      <path d="M155.102 125.97L-0.928345 98.4596V97.8396L155.102 125.35V125.97Z" fill="#2F686D"/>
      <path d="M155.102 126.589L-0.928345 99.0695V98.4595L155.102 125.969V126.589Z" fill="#2E676C"/>
      <path d="M155.102 127.21L-0.928345 99.6896V99.0696L155.102 126.59V127.21Z" fill="#2E656B"/>
      <path d="M155.102 127.819L-0.928345 100.31V99.6895L155.102 127.209V127.819Z" fill="#2D6469"/>
      <path d="M155.102 128.439L-0.928345 100.93V100.31L155.102 127.819V128.439Z" fill="#2D6268"/>
      <path d="M155.102 129.06L-0.928345 101.55V100.93L155.102 128.44V129.06Z" fill="#2C6167"/>
      <path d="M155.102 129.68L-0.928345 102.17V101.55L155.102 129.06V129.68Z" fill="#2C6066"/>
      <path d="M155.102 130.3L-0.928345 102.79V102.17L155.102 129.68V130.3Z" fill="#2B5F65"/>
      <path d="M155.102 130.92L-0.928345 103.41V102.79L155.102 130.3V130.92Z" fill="#2B5E63"/>
      <path d="M155.102 131.54L-0.928345 104.02V103.41L155.102 130.92V131.54Z" fill="#2A5D62"/>
      <path d="M155.102 132.15L-0.928345 104.64V104.02L155.102 131.54V132.15Z" fill="#2A5C61"/>
      <path d="M155.102 132.77L-0.928345 105.26V104.64L155.102 132.15V132.77Z" fill="#295B60"/>
      <path d="M155.102 133.39L-0.928345 105.88V105.26L155.102 132.77V133.39Z" fill="#295A5F"/>
      <path d="M155.102 134.01L-0.928345 106.5V105.88L155.102 133.39V134.01Z" fill="#28595E"/>
      <path d="M155.102 134.63L-0.928345 107.12V106.5L155.102 134.01V134.63Z" fill="#28575C"/>
      <path d="M155.102 135.25L-0.928345 107.74V107.12L155.102 134.63V135.25Z" fill="#27575B"/>
      <path d="M155.102 135.87L-0.928345 108.35V107.74L155.102 135.25V135.87Z" fill="#27565A"/>
      <path d="M155.102 136.48L-0.928345 108.97V108.35L155.102 135.87V136.48Z" fill="#265559"/>
      <path d="M155.102 137.1L-0.928345 109.59V108.97L155.102 136.48V137.1Z" fill="#265358"/>
      <path d="M155.102 137.72L-0.928345 110.21V109.59L155.102 137.1V137.72Z" fill="#255257"/>
      <path d="M155.102 138.339L-0.928345 110.829V110.209L155.102 137.719V138.339Z" fill="#255156"/>
      <path d="M155.102 138.96L-0.928345 111.45V110.83L155.102 138.34V138.96Z" fill="#245155"/>
      <path d="M155.102 139.58L-0.928345 112.07V111.45L155.102 138.96V139.58Z" fill="#244F54"/>
      <path d="M155.102 140.2L-0.928345 112.68V112.07L155.102 139.58V140.2Z" fill="#234E52"/>
      <path d="M155.102 140.81L-0.928345 113.3V112.68L155.102 140.2V140.81Z" fill="#234D51"/>
      <path d="M155.102 141.43L-0.928345 113.92V113.3L155.102 140.81V141.43Z" fill="#234B50"/>
      <path d="M155.102 142.05L-0.928345 114.54V113.92L155.102 141.43V142.05Z" fill="#224A4F"/>
      <path d="M155.102 142.67L-0.928345 115.16V114.54L155.102 142.05V142.67Z" fill="#224A4E"/>
      <path d="M155.102 143.29L-0.928345 115.78V115.16L155.102 142.67V143.29Z" fill="#21494D"/>
      <path d="M155.102 143.91L-0.928345 116.4V115.78L155.102 143.29V143.91Z" fill="#21484C"/>
      <path d="M155.102 144.53L-0.928345 117.01V116.4L155.102 143.91V144.53Z" fill="#20474B"/>
      <path d="M155.102 145.15L-0.928345 117.63V117.01L155.102 144.53V145.15Z" fill="#20464A"/>
      <path d="M155.102 145.76L-0.928345 118.25V117.63L155.102 145.15V145.76Z" fill="#1F4549"/>
      <path d="M155.102 146.38L-0.928345 118.87V118.25L155.102 145.76V146.38Z" fill="#1F4448"/>
      <path d="M155.102 147L-0.928345 119.49V118.87L155.102 146.38V147Z" fill="#1E4347"/>
      <path d="M155.102 147.62L-0.928345 120.11V119.49L155.102 147V147.62Z" fill="#1E4246"/>
      <path d="M155.102 148.24L-0.928345 120.73V120.11L155.102 147.62V148.24Z" fill="#1E4145"/>
      <path d="M155.102 148.859L-0.928345 121.339V120.729L155.102 148.24V148.859Z" fill="#1D4044"/>
      <path d="M155.102 149.48L-0.928345 121.96V121.34L155.102 148.86V149.48Z" fill="#1D3F43"/>
      <path d="M155.102 150.089L-0.928345 122.579V121.959L155.102 149.479V150.089Z" fill="#1C3E42"/>
      <path d="M155.102 150.71L-0.928345 123.2V122.58L155.102 150.09V150.71Z" fill="#1C3D41"/>
      <path d="M155.102 151.33L-0.928345 123.82V123.2L155.102 150.71V151.33Z" fill="#1B3C40"/>
      <path d="M155.102 151.95L-0.928345 124.44V123.82L155.102 151.33V151.95Z" fill="#1B3B3F"/>
      <path d="M155.102 152.569L-0.928345 125.06V124.439L155.102 151.949V152.569Z" fill="#1B3B3E"/>
      <path d="M155.102 153.189L-0.928345 125.67V125.06L155.102 152.569V153.189Z" fill="#1A3A3D"/>
      <path d="M155.102 153.81L-0.928345 126.29V125.67L155.102 153.19V153.81Z" fill="#1A383C"/>
      <path d="M155.102 154.42L-0.928345 126.91V126.29L155.102 153.81V154.42Z" fill="#19373B"/>
      <path d="M155.102 155.04L-0.928345 127.53V126.91L155.102 154.42V155.04Z" fill="#19373A"/>
      <path d="M155.102 155.66L-0.928345 128.15V127.53L155.102 155.04V155.66Z" fill="#183639"/>
      <path d="M155.102 156.28L-0.928345 128.77V128.15L155.102 155.66V156.28Z" fill="#183538"/>
      <path d="M155.102 156.9L-0.928345 129.39V128.77L155.102 156.28V156.9Z" fill="#183437"/>
      <path d="M155.102 157.52L-0.928345 130.01V129.39L155.102 156.9V157.52Z" fill="#173336"/>
      <path d="M155.102 158.14L-0.928345 130.62V130.01L155.102 157.52V158.14Z" fill="#173235"/>
      <path d="M155.102 158.75L-0.928345 131.24V130.62L155.102 158.14V158.75Z" fill="#163234"/>
      <path d="M155.102 159.37L-0.928345 131.86V131.24L155.102 158.75V159.37Z" fill="#163133"/>
      <path d="M155.102 159.99L-0.928345 132.48V131.86L155.102 159.37V159.99Z" fill="#162F32"/>
      <path d="M155.102 160.609L-0.928345 133.099V132.479L155.102 159.99V160.609Z" fill="#152E31"/>
      <path d="M155.102 160.88L155.042 161.22L-0.928345 133.72V133.1L155.102 160.61V160.88Z" fill="#152E30"/>
      <path d="M155.042 161.22L154.942 161.82L-0.928345 134.34V133.72L155.042 161.22Z" fill="#142D30"/>
      <path d="M154.942 161.82L154.832 162.42L-0.928345 134.95V134.34L154.942 161.82Z" fill="#142D2F"/>
      <path d="M154.832 162.42L154.732 163.02L-0.928345 135.57V134.95L154.832 162.42Z" fill="#142B2E"/>
      <path d="M154.732 163.02L154.622 163.62L-0.928345 136.19V135.57L154.732 163.02Z" fill="#132A2D"/>
      <path d="M154.622 163.62L154.512 164.219L-0.928345 136.81V136.189L154.622 163.62Z" fill="#132A2C"/>
      <path d="M154.512 164.219L154.412 164.819L-0.928345 137.43V136.81L154.512 164.219Z" fill="#13292B"/>
      <path d="M154.412 164.82L154.302 165.42L-0.928345 138.05V137.43L154.412 164.82Z" fill="#12282A"/>
      <path d="M154.302 165.42L154.202 166.02L-0.928345 138.67V138.05L154.302 165.42Z" fill="#122729"/>
      <path d="M154.202 166.02L154.092 166.62L-0.928345 139.28V138.67L154.202 166.02Z" fill="#112729"/>
      <path d="M154.092 166.62L153.992 167.22L-0.928345 139.9V139.28L154.092 166.62Z" fill="#112528"/>
      <path d="M153.992 167.22L153.882 167.82L-0.928345 140.52V139.9L153.992 167.22Z" fill="#112527"/>
      <path d="M153.882 167.819L153.772 168.42L-0.928345 141.14V140.52L153.882 167.819Z" fill="#102426"/>
      <path d="M153.772 168.42L153.672 169.02L-0.928345 141.76V141.14L153.772 168.42Z" fill="#102425"/>
      <path d="M153.672 169.02L153.562 169.62L-0.928345 142.38V141.76L153.672 169.02Z" fill="#102325"/>
      <path d="M153.562 169.62L153.462 170.22L-0.928345 143V142.38L153.562 169.62Z" fill="#0F2224"/>
      <path d="M153.462 170.219L153.352 170.819L-0.928345 143.609V143L153.462 170.219Z" fill="#0F2123"/>
      <path d="M153.352 170.82L153.252 171.42L-0.928345 144.23V143.61L153.352 170.82Z" fill="#0F2022"/>
      <path d="M153.252 171.42L153.142 172.02L-0.928345 144.849V144.229L153.252 171.42Z" fill="#0E2021"/>
      <path d="M153.142 172.02L153.032 172.62L-0.928345 145.47V144.85L153.142 172.02Z" fill="#0E1F21"/>
      <path d="M153.032 172.62L152.932 173.22L-0.928345 146.09V145.47L153.032 172.62Z" fill="#0E1F20"/>
      <path d="M152.932 173.22L152.822 173.82L-0.928345 146.71V146.09L152.932 173.22Z" fill="#0D1E1F"/>
      <path d="M152.822 173.819L152.722 174.42L-0.928345 147.329V146.709L152.822 173.819Z" fill="#0D1C1E"/>
      <path d="M152.722 174.42L152.612 175.02L-0.928345 147.94V147.33L152.722 174.42Z" fill="#0D1C1E"/>
      <path d="M152.612 175.02L152.502 175.62L-0.928345 148.56V147.939L152.612 175.02Z" fill="#0C1B1D"/>
      <path d="M152.502 175.62L152.402 176.219L-0.928345 149.18V148.56L152.502 175.62Z" fill="#0C151C"/>
      <path d="M152.402 176.22L152.292 176.82L-0.928345 149.8V149.18L152.402 176.22Z" fill="#0C141B"/>
      <path d="M152.292 176.82L152.192 177.42L-0.928345 150.42V149.8L152.292 176.82Z" fill="#0B141B"/>
      <path d="M152.192 177.42L152.082 178.02L-0.928345 151.04V150.42L152.192 177.42Z" fill="#0B131A"/>
      <path d="M152.082 178.02L151.982 178.62L-0.928345 151.66V151.04L152.082 178.02Z" fill="#0B1319"/>
      <path d="M151.982 178.62L151.872 179.22L-0.928345 152.27V151.66L151.982 178.62Z" fill="#0B1219"/>
      <path d="M151.872 179.219L151.762 179.819L-0.928345 152.89V152.27L151.872 179.219Z" fill="#0A1218"/>
      <path d="M151.762 179.82L151.662 180.42L-0.928345 153.51V152.89L151.762 179.82Z" fill="#0A1117"/>
      <path d="M151.662 180.42L151.552 181.02L-0.928345 154.13V153.51L151.662 180.42Z" fill="#0A1116"/>
      <path d="M151.552 181.02L151.452 181.62L-0.928345 154.75V154.13L151.552 181.02Z" fill="#091016"/>
      <path d="M151.452 181.62L151.342 182.219L-0.928345 155.37V154.75L151.452 181.62Z" fill="#091015"/>
      <path d="M151.342 182.22L151.242 182.82L-0.928345 155.99V155.37L151.342 182.22Z" fill="#090F15"/>
      <path d="M151.242 182.82L151.132 183.42L-0.928345 156.61V155.99L151.242 182.82Z" fill="#090F14"/>
      <path d="M151.132 183.42L151.022 184.02L-0.928345 157.22V156.61L151.132 183.42Z" fill="#080E13"/>
      <path d="M151.022 184.02L150.922 184.62L-0.928345 157.84V157.22L151.022 184.02Z" fill="#080E13"/>
      <path d="M150.922 184.62L150.812 185.22L-0.928345 158.46V157.84L150.922 184.62Z" fill="#080D12"/>
      <path d="M150.812 185.219L150.712 185.819L-0.928345 159.079V158.459L150.812 185.219Z" fill="#070D11"/>
      <path d="M150.712 185.82L150.602 186.42L-0.928345 159.7V159.08L150.712 185.82Z" fill="#070C11"/>
      <path d="M150.602 186.42L150.492 187.02L-0.928345 160.32V159.7L150.602 186.42Z" fill="#070C10"/>
      <path d="M150.492 187.02L150.392 187.62L-0.928345 160.94V160.32L150.492 187.02Z" fill="#070C10"/>
      <path d="M150.392 187.62L150.282 188.219L-0.928345 161.55V160.939L150.392 187.62Z" fill="#060B0F"/>
      <path d="M150.282 188.22L150.182 188.82L-0.928345 162.17V161.55L150.282 188.22Z" fill="#060B0E"/>
      <path d="M150.182 188.82L150.072 189.42L-0.928345 162.79V162.17L150.182 188.82Z" fill="#060A0E"/>
      <path d="M150.072 189.42L149.972 190.02L-0.928345 163.41V162.79L150.072 189.42Z" fill="#060A0D"/>
      <path d="M149.972 190.02L149.862 190.62L-0.928345 164.03V163.41L149.972 190.02Z" fill="#06090D"/>
      <path d="M149.862 190.62L149.752 191.22L-0.928345 164.65V164.03L149.862 190.62Z" fill="#05090C"/>
      <path d="M149.752 191.22L149.652 191.82L-0.928345 165.27V164.65L149.752 191.22Z" fill="#05090C"/>
      <path d="M149.652 191.819L149.542 192.42L-0.928345 165.88V165.27L149.652 191.819Z" fill="#05080B"/>
      <path d="M149.542 192.42L149.442 193.02L-0.928345 166.5V165.88L149.542 192.42Z" fill="#05080B"/>
      <path d="M149.442 193.02L149.332 193.62L-0.928345 167.12V166.5L149.442 193.02Z" fill="#04080A"/>
      <path d="M149.332 193.62L149.232 194.22L-0.928345 167.74V167.12L149.332 193.62Z" fill="#04070A"/>
      <path d="M149.232 194.22L149.122 194.82L-0.928345 168.36V167.74L149.232 194.22Z" fill="#040709"/>
      <path d="M149.122 194.82L149.012 195.42L-0.928345 168.98V168.36L149.122 194.82Z" fill="#040609"/>
      <path d="M149.012 195.42L148.912 196.02L-0.928345 169.599V168.979L149.012 195.42Z" fill="#040608"/>
      <path d="M148.912 196.02L148.802 196.62L-0.928345 170.21V169.6L148.912 196.02Z" fill="#030608"/>
      <path d="M148.802 196.62L148.702 197.219L-0.928345 170.829V170.209L148.802 196.62Z" fill="#030507"/>
      <path d="M148.702 197.22L148.592 197.82L-0.928345 171.45V170.83L148.702 197.22Z" fill="#030507"/>
      <path d="M148.592 197.82L148.482 198.42L-0.928345 172.07V171.45L148.592 197.82Z" fill="#030507"/>
      <path d="M148.482 198.42L148.382 199.02L-0.928345 172.69V172.07L148.482 198.42Z" fill="#030506"/>
      <path d="M148.382 199.02L148.332 199.27H146.342L-0.928345 173.31V172.689L148.382 199.02Z" fill="#020406"/>
      <path d="M142.832 199.27L-0.928345 173.93V173.31L146.342 199.27H142.832Z" fill="#020405"/>
      <path d="M139.322 199.27L-0.928345 174.54V173.93L142.832 199.27H139.322Z" fill="#020405"/>
      <path d="M135.812 199.27L-0.928345 175.16V174.54L139.322 199.27H135.812Z" fill="#020305"/>
      <path d="M132.302 199.27L-0.928345 175.78V175.16L135.812 199.27H132.302Z" fill="#020304"/>
      <path d="M128.792 199.27L-0.928345 176.4V175.78L132.302 199.27H128.792Z" fill="#020304"/>
      <path d="M125.292 199.27L-0.928345 177.02V176.4L128.792 199.27H125.292Z" fill="#020304"/>
      <path d="M121.782 199.27L-0.928345 177.64V177.02L125.292 199.27H121.782Z" fill="#010203"/>
      <path d="M118.272 199.27L-0.928345 178.26V177.64L121.782 199.27H118.272Z" fill="#010203"/>
      <path d="M114.762 199.27L-0.928345 178.87V178.26L118.272 199.27H114.762Z" fill="#010203"/>
      <path d="M111.252 199.27L-0.928345 179.49V178.87L114.762 199.27H111.252Z" fill="#010202"/>
      <path d="M107.742 199.27L-0.928345 180.11V179.49L111.252 199.27H107.742Z" fill="#010102"/>
      <path d="M104.242 199.27L-0.928345 180.73V180.11L107.742 199.27H104.242Z" fill="#010102"/>
      <path d="M100.732 199.27L-0.928345 181.349V180.729L104.242 199.27H100.732Z" fill="#010101"/>
      <path d="M97.2217 199.27L-0.928345 181.97V181.35L100.732 199.27H97.2217Z" fill="#010101"/>
      <path d="M93.7117 199.27L-0.928345 182.59V181.97L97.2217 199.27H93.7117Z" fill="#000101"/>
      <path d="M90.2017 199.27L-0.928345 183.21V182.59L93.7117 199.27H90.2017Z" fill="#000101"/>
      <path d="M86.6917 199.27L-0.928345 183.819V183.209L90.2017 199.27H86.6917Z" fill="#000001"/>
      <path d="M83.1917 199.27L-0.928345 184.44V183.82L86.6917 199.27H83.1917Z" fill="black"/>
      <path d="M79.6818 199.27L-0.928345 185.06V184.439L83.1917 199.27H79.6818Z" fill="black"/>
      <path d="M76.1718 199.27L-0.928345 185.68V185.06L79.6818 199.27H76.1718Z" fill="black"/>
      <path d="M72.6617 199.27L-0.928345 186.3V185.68L76.1718 199.27H72.6617Z" fill="black"/>
      <path d="M69.1517 199.27L-0.928345 186.92V186.3L72.6617 199.27H69.1517Z" fill="black"/>
      <path d="M65.6417 199.27L-0.928345 187.54V186.92L69.1517 199.27H65.6417Z" fill="black"/>
      <path d="M-0.928345 187.54L65.6417 199.27H-0.928345V187.54Z" fill="black"/>
    </g>
  </g>
</svg>