<svg xmlns="http://www.w3.org/2000/svg" width="93" height="104" viewBox="0 0 93 104" fill="none">
  <path d="M82.78 94.04C81.98 93.9 79.93 94.33 79.79 94.29C79.54 94.23 77.63 90.4999 77.17 89.9299C75.41 87.7499 72.7099 85.94 69.8199 85.82C68.5699 85.77 64.8399 86.89 64.5899 86.82C64.3399 86.74 61.9599 83.54 61.0999 82.83C57.4599 79.85 53.3 78.6399 48.76 77.7199C47.62 63.8499 49.7899 55.6999 59.4799 45.9399C64.0299 41.3499 69.2 37.7199 75.06 34.9699C68.24 41.2499 60.7399 47.27 56.2399 55.53C76.4899 57.75 89.08 39.7399 88.64 21.1299C76.48 20.7299 62.1699 24.1999 55.7399 35.4599C53.2899 39.7499 53.3799 41.7099 52.2499 46.1799C51.4599 49.2999 51.49 48.9899 49.76 51.6599C48.91 52.9699 47.5 54.4899 46.64 55.8999C46.09 53.7599 42.07 50.09 41.53 48.55C41.41 48.2 41.45 46.8599 41.28 46.1799C40.33 42.4699 40.31 40.6299 38.54 36.9599C32.66 24.7899 17.33 20.1699 4.63996 21.3799C4.86996 39.6699 17 58.18 37.29 55.28C32.29 47.24 24.9899 41.1699 18.2199 34.7199C23.5699 37.6699 28.88 40.9499 33.3 45.1899C43.32 54.7999 46.06 63.7399 44.77 77.7199C39.92 78.6299 35.74 80.16 31.93 83.33C31.2 83.93 29.1599 86.75 28.9399 86.82C28.7099 86.89 25.4899 85.84 24.6999 85.82C21.2999 85.77 18.4599 87.7099 16.3499 90.1799C15.8099 90.8099 14.0899 94.2 13.7299 94.29C13.5099 94.35 10.3999 94.05 9.23993 94.29C5.47993 95.08 -1.26005 99.1 3.25995 103.01H90.4999C94.8399 97.91 86.9 94.75 82.77 94.04H82.78Z" stroke="white" stroke-width="2" stroke-miterlimit="10"/>
  <path d="M44.89 37.71L47.01 15.6499L48.88 37.71C60.75 27.85 57.16 11.3301 46.64 2.07007C36.52 11.5101 32.77 28.24 44.9 37.71H44.89Z" stroke="white" stroke-width="2" stroke-miterlimit="10"/>
</svg>