<svg xmlns="http://www.w3.org/2000/svg" width="103" height="77" viewBox="0 0 103 77" fill="none">
  <path d="M11.76 75.1599L11.31 51.3501L25.66 41.74L26.1 74.71L11.76 75.1599Z" stroke="white" stroke-width="2" stroke-miterlimit="10"/>
  <path d="M51.09 75.1599L36.75 74.72V34.5C37.18 34.27 38.72 32.8701 38.97 32.8701C39.77 32.8901 49.6 42.0401 51.24 43.0701L51.09 75.1599Z" stroke="white" stroke-width="2" stroke-miterlimit="10"/>
  <path d="M58.19 43.51C56.22 43.43 40.48 28.2699 38.97 28.4299L6.73998 50.02C2.57998 51.62 -0.0800217 46.7301 3.48998 44.1101L39.57 20.1599L58.2 35.24L86.74 7.87988C86.79 7.23988 82.35 3.81005 83.34 3.30005L98.42 1.22998L95.02 16.46L91.32 13.0601L59.38 43.22C58.85 43.06 58.62 43.53 58.2 43.52L58.19 43.51Z" stroke="white" stroke-width="2" stroke-miterlimit="10"/>
  <path d="M62.33 75.1599L61.88 46.03L76.23 32.28L76.37 75.01L62.33 75.1599Z" stroke="white" stroke-width="2" stroke-miterlimit="10"/>
  <path d="M101.66 75.1598H87.46C86.43 57.9198 87.31 40.1198 87.02 22.6698C87.58 22.2698 90.47 19.3199 90.72 19.2699C91.62 19.0899 93.21 20.7899 94.27 21.0399C95.47 21.3299 101.53 21.45 101.81 22.08L101.66 75.1598Z" stroke="white" stroke-width="2" stroke-miterlimit="10"/>
  <path d="M95.01 16.45L98.41 1.21997L83.33 3.29004C82.34 3.81004 86.78 7.23012 86.73 7.87012L58.19 35.23L39.56 20.1499L3.48001 44.1001C-0.0899928 46.7201 2.58001 51.62 6.73001 50.01L38.96 28.4199C40.47 28.2599 56.21 43.42 58.18 43.5C58.6 43.52 58.83 43.04 59.36 43.2L91.3 13.04L95 16.4399L95.01 16.45Z" stroke="white" stroke-width="2" stroke-miterlimit="10"/>
  <path d="M90.72 19.2601C90.47 19.3101 87.58 22.26 87.02 22.66C87.31 40.11 86.44 57.92 87.46 75.15H101.66L101.81 22.0701C101.53 21.4401 95.47 21.3201 94.27 21.0301C93.21 20.7801 91.62 19.0701 90.72 19.2601Z" stroke="white" stroke-width="2" stroke-miterlimit="10"/>
  <path d="M36.75 34.49V74.71L51.09 75.1499L51.24 43.0601C49.59 42.0301 39.76 32.8801 38.97 32.8601C38.72 32.8601 37.18 34.25 36.75 34.49Z" stroke="white" stroke-width="2" stroke-miterlimit="10"/>
  <path d="M61.88 46.03L62.33 75.1599L76.37 75.01L76.23 32.28L61.88 46.03Z" stroke="white" stroke-width="2" stroke-miterlimit="10"/>
  <path d="M11.31 51.3501L11.76 75.1599L26.1 74.71L25.66 41.74L11.31 51.3501Z" stroke="white" stroke-width="2" stroke-miterlimit="10"/>
</svg>