<svg xmlns="http://www.w3.org/2000/svg" width="121" height="77" viewBox="0 0 121 77" fill="none">
  <path d="M97.71 0.700195C95.97 1.8202 83.13 10.62 82.96 11.52C82.96 11.57 83.37 12.2402 83.32 12.4102C83.21 12.8102 80.32 14.08 80.1 15.27C80.01 15.76 80.62 16.8502 80.19 16.9702C74.01 16.0802 69.18 12.9701 62.66 13.3901C60.21 13.5501 47.79 15.9699 46.21 17.1499C45.64 17.5699 44.81 19.0401 44.42 19.1201C43.64 19.2801 41.01 18.53 40.13 18.23C39.64 17.67 42.23 16.3598 40.49 14.2998C39.58 13.2198 37.41 13.2799 38.08 11.1699C36.31 10.1299 24.37 0.459961 23.5 0.709961L0.700012 32.4502C2.51001 33.4802 14.04 42.9502 14.92 42.9102C15.21 42.9002 15.92 42.02 15.99 42.02C16.78 41.97 19.68 46.7702 21.71 42.9102L28.6 49.4399C25.53 52.1499 25.55 56.8 29.76 58.29C30.09 58.41 31.71 58.4101 31.82 58.5601C31.96 58.7601 31.56 60.9398 32.54 62.3198C34.18 64.6298 37.13 63.66 37.64 64.02C37.82 64.15 37.75 66.7602 39.43 67.9502C41.43 69.3802 43.17 68.3002 43.72 68.4902C43.92 68.5602 44.48 71.1998 45.87 72.0698C47.95 73.3698 49.7 72.2502 50.34 72.4302C50.6 72.5002 51.45 75.7799 53.92 76.1899C57.05 76.7099 58.56 74.6902 60.18 72.4302C64.39 75.8602 70.09 75.7598 71.09 69.5698C73.59 71.8998 78.86 70.3802 79.76 67.1602C79.95 66.4902 79.82 64.1598 80.21 64.0298C84.42 65.0898 87.37 61.11 87.36 57.23C92.99 58.23 96.78 52.24 93.08 47.75C94.67 47.87 99.11 42.7002 99.52 42.7402C99.72 42.7602 100.47 44.8101 102.38 44.3501C102.73 44.2701 105.06 42.0298 105.24 42.0298C105.39 42.0298 106.21 43.36 106.85 42.75L120.71 32.1099L97.73 0.720215L97.71 0.700195ZM14.73 37.3701C11.54 37.9401 11.11 33.4699 13.48 32.8999C16.75 32.1199 17.36 36.9001 14.73 37.3701ZM19.55 42.3701L17.14 40.4902L36.72 14.1099L39.13 15.8101L19.55 42.3701ZM32.97 55.9702C30.64 57.4602 27.59 55.7298 28.41 52.8398C28.74 51.6798 32.78 46.8099 34.04 46.6699C35.87 46.4599 37.81 47.8698 37.53 49.7998C37.48 50.1798 33.37 55.7102 32.97 55.9702ZM38.15 61.6899C35.98 62.9999 33.13 61.6099 33.59 58.9199C33.72 58.1399 39.22 50.9698 39.94 50.7798C42.17 50.2098 44.36 52.1702 43.79 54.4502C43.68 54.9002 38.55 61.4599 38.16 61.6899H38.15ZM43.88 66.52C41.66 67.67 38.92 65.9401 39.68 63.3901C39.88 62.7201 45.17 55.92 45.67 55.79C47.84 55.25 50 57.22 49.34 59.46C49.21 59.91 44.28 66.32 43.89 66.52H43.88ZM50.14 70.4502C47.87 71.6002 45.35 70.14 45.94 67.5C46.1 66.77 50.43 61.3199 51.22 61.1499C53.31 60.7099 55.4 62.4901 54.71 64.6401C54.6 64.9901 50.48 70.2902 50.15 70.4502H50.14ZM52.73 73.04C51.83 71.38 54.46 67.3798 55.68 67.0498C56.83 66.7398 58.73 67.3898 59.17 68.5698C60.06 70.9798 54.81 76.88 52.73 73.04ZM88.59 55.25C85.37 55.18 74.33 44.8802 70.53 42.9102C69.28 42.2602 67.66 42.3698 68.12 44.0698C68.37 45.0098 82.04 54.1399 83.77 55.6099C86.65 58.1699 83.89 62.6501 80.19 61.8701L66.06 51.6802L64.81 51.8599C64.3 52.3399 64.24 52.9201 64.54 53.5601C68.8 57.1301 73.84 59.86 77.77 63.75C78.64 66.44 76.3 69.0402 73.57 68.4902C71.38 68.0502 63.5 60.4199 60.69 59.1899C59.39 58.6199 58.2 59.17 58.63 60.71C58.84 61.44 66.17 65.9701 67.3 67.0601C70.67 70.3101 67.66 73.86 63.72 72.25C63.5 72.16 61.17 70.5201 61.13 70.3701C60.99 69.9201 61.27 68.8699 61.13 68.3999C60.24 65.3399 56.58 65.1198 56.48 64.8198C56.45 64.7198 56.79 63.2699 56.66 62.6699C56.35 61.2099 54.88 59.8799 53.53 59.3599C53.05 59.1699 51.78 59.2802 51.56 59.1802C51.28 59.0602 51.31 55.2699 48.52 54.1699C47.77 53.8799 46.26 53.9201 46.02 53.8101C45.82 53.7201 45.31 50.8799 44.05 49.8799C42.1 48.3099 40.44 49.3002 39.58 48.9902C39.36 48.9102 38.94 47.24 38.6 46.75C37.24 44.81 34.34 44.41 32.25 45.23C31.37 45.58 29.92 47.5498 29.75 47.5498C29.25 47.5798 22.93 41.7502 22.86 41.2002L38.69 19.8301C38.94 19.7501 42.93 21.3602 43.79 20.9902C44.2 21.5102 39.11 30.4801 39.86 32.0801C42.45 36.1901 48.73 34.2901 51.93 31.8101C55.06 29.3801 54.81 27.35 59.98 26.98C64.15 26.68 73.69 35.7801 77.33 38.6001C79.38 40.1901 91.49 48.83 92.08 49.96C93.3 52.26 91.08 55.2902 88.59 55.2402V55.25ZM91.45 46.3101L64.45 25.5601C61.95 24.2101 56.35 24.9201 53.9 26.1001C53.16 26.4601 52.04 28.5498 51.22 29.3198C49.07 31.3298 44.74 33.3002 42.19 31.2002C43.68 29.0302 46.17 19.84 48 18.77C48.99 18.2 61.39 15.82 63.02 15.73C69.87 15.36 75.07 19.8 81.8 18.77L98.34 41.04C96.31 43.13 94.29 45.2998 91.45 46.3198V46.3101ZM101.82 42.3701L82.06 15.8101C82.31 15.5501 83.98 14.1299 84.12 14.1099C85.74 13.8699 101.06 37.6099 103.88 40.1299C104.23 41.0499 102.33 41.5301 101.82 42.3701ZM107.9 37.0098C104.38 37.8798 103.96 33 106.65 32.54C109.85 31.99 110.26 36.4298 107.9 37.0098Z" fill="white"/>
</svg>