<svg xmlns="http://www.w3.org/2000/svg" width="47" height="67" viewBox="0 0 47 67" fill="none">
  <path d="M16.9807 33.4711C26.0622 33.4711 33.4242 26.1085 33.4242 17.0265C33.4242 7.94446 26.0622 0.58252 16.9807 0.58252C7.89914 0.58252 0.537109 7.94446 0.537109 17.0265C0.537109 26.1085 7.89914 33.4711 16.9807 33.4711Z" stroke="url(#paint0_linear_69_246)" stroke-width="0.888841" stroke-miterlimit="10"/>
  <path d="M23.8401 14.6137C23.8401 10.825 20.7693 7.74744 16.9741 7.74744C13.179 7.74744 10.1216 10.825 10.1216 14.6137C10.1216 16.0229 10.5536 17.3458 11.298 18.4292V18.4558L16.9675 26.9839L22.6769 18.4292H22.6636C23.4014 17.3458 23.8334 16.0295 23.8334 14.6137H23.8401ZM16.9741 18.4292C14.8672 18.4292 13.1524 16.7142 13.1524 14.6137C13.1524 12.5133 14.8605 10.7918 16.9741 10.7918C19.0877 10.7918 20.7892 12.5067 20.7892 14.6137C20.7892 16.7208 19.101 18.4292 16.9741 18.4292Z" fill="url(#paint1_linear_69_246)"/>
  <path d="M43.0085 49.0356C48.8461 58.3672 45.5006 66.3566 35.2069 66.3566C24.9132 66.3566 12.4795 58.3672 7.71188 49.0356C3.21515 40.2356 7.25814 33.4696 16.5157 33.4696C25.7733 33.4696 37.5095 40.2423 43.0153 49.0356H43.0085Z" stroke="url(#paint2_linear_69_246)" stroke-width="0.888841" stroke-miterlimit="10"/>
  <path d="M31.306 46.6496C29.1321 42.9808 24.202 40.0564 20.247 40.0564C16.2921 40.0564 14.7006 42.9741 16.6984 46.6496C17.4569 48.0387 18.6353 49.3549 20.0372 50.4382L20.0506 50.4649L31.1841 59.2909L32.3083 50.4382H32.2948C32.4505 49.3549 32.1322 48.0387 31.306 46.6496ZM26.1524 50.4382C23.8769 50.4382 21.0868 48.7233 19.9288 46.6496C18.791 44.5959 19.6714 42.9473 21.8927 42.9473C24.114 42.9473 26.8703 44.6025 28.0622 46.6496C29.2541 48.6967 28.4481 50.4382 26.1524 50.4382Z" fill="url(#paint3_linear_69_246)"/>
  <defs>
    <linearGradient id="paint0_linear_69_246" x1="0.204782" y1="-5659.83" x2="33.7565" y2="-5659.83" gradientUnits="userSpaceOnUse">
      <stop stop-color="#0097A4"/>
      <stop offset="1" stop-color="#011108"/>
    </linearGradient>
    <linearGradient id="paint1_linear_69_246" x1="10.1282" y1="17.3657" x2="23.8401" y2="17.3657" gradientUnits="userSpaceOnUse">
      <stop stop-color="#0097A4"/>
      <stop offset="1" stop-color="#005E8F"/>
    </linearGradient>
    <linearGradient id="paint2_linear_69_246" x1="5.53124" y1="-5659.56" x2="46.2049" y2="-5659.56" gradientUnits="userSpaceOnUse">
      <stop offset="0.23"/>
      <stop offset="1" stop-color="#006591"/>
    </linearGradient>
    <linearGradient id="paint3_linear_69_246" x1="15.8384" y1="49.6736" x2="32.3286" y2="49.6736" gradientUnits="userSpaceOnUse">
      <stop offset="0.23"/>
      <stop offset="1" stop-color="#006591"/>
    </linearGradient>
  </defs>
</svg>