<svg xmlns="http://www.w3.org/2000/svg" width="40" height="67" viewBox="0 0 40 67" fill="none">
  <path d="M22.2146 33.471C31.2961 33.471 38.6581 26.1085 38.6581 17.0265C38.6581 7.94445 31.2961 0.58252 22.2146 0.58252C13.1331 0.58252 5.771 7.94445 5.771 17.0265C5.771 26.1085 13.1331 33.471 22.2146 33.471Z" stroke="url(#paint0_linear_69_224)" stroke-width="0.888841" stroke-miterlimit="10"/>
  <path d="M21.1442 13.5567C22.108 12.44 21.0579 10.9713 20.4131 9.97422C20.0476 9.39594 19.5159 8.57138 18.7582 8.46503C18.0403 8.38527 17.3956 9.18305 16.9237 9.62175C15.7871 10.652 15.1557 12.0011 15.0893 13.5365C15.0959 13.7094 15.0959 14.0023 15.0693 13.7365C15.1823 14.6604 15.2886 15.531 15.6143 16.4017C15.9134 17.2259 16.3255 17.9833 16.7974 18.7145C17.8143 20.2499 18.9908 21.7391 20.3866 22.9688C21.7491 24.1785 23.2778 25.262 25.0923 25.6541C26.7938 25.9998 28.4555 25.6411 29.7981 24.5377C30.2832 24.1389 31.1805 23.5606 31.2138 22.8759C31.2536 22.1847 30.702 21.6263 30.2234 21.2142C29.2132 20.3102 27.7243 18.8009 26.3485 19.9043C25.8101 20.343 25.2452 21.1543 24.5274 21.2739C23.8162 21.3936 23.1249 20.8747 22.6131 20.4626C21.4633 19.5253 20.34 18.2492 19.6554 16.9132C19.3696 16.3216 19.1171 15.5575 19.5358 14.9659C19.9678 14.3876 20.679 14.1082 21.1442 13.5632V13.5567Z" fill="url(#paint1_linear_69_224)"/>
  <path d="M36.7498 49.0356C35.5293 58.3672 26.2216 66.3566 16.022 66.3566C5.82239 66.3566 -0.487837 58.3672 1.79215 49.0356C3.94473 40.2356 13.0245 33.4696 22.1914 33.4696C31.3583 33.4696 37.8965 40.2423 36.7498 49.0356Z" stroke="url(#paint2_linear_69_224)" stroke-width="0.888841" stroke-miterlimit="10"/>
  <path d="M18.7917 45.6194C20.0054 44.536 19.1806 43.1202 18.6978 42.1631C18.4295 41.6114 18.0272 40.8335 17.2694 40.7339C16.5452 40.6607 15.7204 41.412 15.1437 41.8308C13.7556 42.8145 12.8234 44.1105 12.4412 45.5993C12.4144 45.7721 12.3541 46.0511 12.3809 45.7985C12.3071 46.7025 12.2333 47.56 12.401 48.424C12.5418 49.2415 12.8235 50.0062 13.1789 50.7373C13.9501 52.2926 14.909 53.8146 16.1697 55.0841C17.4035 56.3403 18.8587 57.4767 20.7699 57.8887C22.567 58.2543 24.4514 57.8751 26.101 56.712C26.6979 56.2932 27.7641 55.6955 27.9183 54.9777C28.0726 54.2598 27.5629 53.6882 27.1203 53.2628C26.1815 52.339 24.8403 50.8104 23.1773 51.927C22.5268 52.3724 21.7691 53.2029 20.9711 53.3225C20.1798 53.4422 19.536 52.9105 19.0599 52.4917C18.0071 51.5346 17.0481 50.2519 16.5854 48.916C16.3977 48.3245 16.2769 47.5665 16.8335 46.9883C17.3968 46.4167 18.2083 46.1511 18.7917 45.6194Z" fill="url(#paint3_linear_69_224)"/>
  <defs>
    <linearGradient id="paint0_linear_69_224" x1="5.43867" y1="-5659.82" x2="38.9904" y2="-5659.82" gradientUnits="userSpaceOnUse">
      <stop stop-color="#0097A4"/>
      <stop offset="1" stop-color="#011108"/>
    </linearGradient>
    <linearGradient id="paint1_linear_69_224" x1="15.076" y1="17.1261" x2="31.2271" y2="17.1261" gradientUnits="userSpaceOnUse">
      <stop stop-color="#0097A4"/>
      <stop offset="1" stop-color="#005E8F"/>
    </linearGradient>
    <linearGradient id="paint2_linear_69_224" x1="0.994158" y1="-5659.56" x2="37.2125" y2="-5659.56" gradientUnits="userSpaceOnUse">
      <stop offset="0.23"/>
      <stop offset="1" stop-color="#006591"/>
    </linearGradient>
    <linearGradient id="paint3_linear_69_224" x1="12.2937" y1="49.3744" x2="27.9452" y2="49.3744" gradientUnits="userSpaceOnUse">
      <stop offset="0.23"/>
      <stop offset="1" stop-color="#006591"/>
    </linearGradient>
  </defs>
</svg>