<svg
            xmlns="http://www.w3.org/2000/svg"
            width="120"
            height="62"
            viewBox="0 0 240 112"
            fill="none"
          >
            <path
              d="M127.44 72.2801V43.3101H116.19V33.0601H151.64V43.3101H140.39V72.2801H127.44Z"
              fill="url(#paint0_linear_1_3118)"
            />
            <path
              d="M154.98 72.2801V33.0601H165.63L180.99 58.6601H175.39L190.32 33.0601H200.97L201.08 72.2801H189.28L189.17 51.2101H191.04L180.83 68.7501H175.12L164.47 51.2101H166.77V72.2801H154.97H154.98Z"
              fill="url(#paint1_linear_1_3118)"
            />
            <path
              d="M215.67 72.2801V43.3101H204.42V33.0601H239.87V43.3101H228.62V72.2801H215.67Z"
              fill="url(#paint2_linear_1_3118)"
            />
            <path
              d="M127.28 81.0501C127.62 80.4401 128.09 79.9601 128.69 79.6201C129.29 79.2801 129.94 79.1001 130.67 79.1001C131.52 79.1001 132.27 79.3101 132.9 79.7201C133.54 80.1301 134 80.7201 134.29 81.4701H133.07C132.85 81.0001 132.54 80.6401 132.13 80.3801C131.72 80.1301 131.23 80.0001 130.67 80.0001C130.11 80.0001 129.63 80.1301 129.2 80.3801C128.77 80.6301 128.43 81.0001 128.18 81.4601C127.93 81.9201 127.81 82.4801 127.81 83.1001C127.81 83.7201 127.93 84.2701 128.18 84.7301C128.43 85.1901 128.77 85.5601 129.2 85.8101C129.63 86.0601 130.12 86.1901 130.67 86.1901C131.22 86.1901 131.73 86.0601 132.13 85.8101C132.53 85.5601 132.85 85.2001 133.07 84.7301H134.29C134 85.4801 133.53 86.0601 132.9 86.4601C132.26 86.8701 131.52 87.0701 130.67 87.0701C129.94 87.0701 129.28 86.9001 128.69 86.5601C128.1 86.2201 127.63 85.7501 127.28 85.1401C126.94 84.5301 126.76 83.8501 126.76 83.0901C126.76 82.3301 126.93 81.6401 127.28 81.0301V81.0501Z"
              fill="url(#paint3_linear_1_3118)"
            />
            <path
              d="M139.61 86.5896C139.01 86.2496 138.54 85.7696 138.19 85.1696C137.84 84.5596 137.67 83.8696 137.67 83.1096C137.67 82.3496 137.84 81.6596 138.19 81.0496C138.54 80.4396 139.01 79.9696 139.61 79.6296C140.21 79.2896 140.87 79.1196 141.6 79.1196C142.33 79.1196 143 79.2896 143.6 79.6296C144.2 79.9696 144.67 80.4396 145.01 81.0496C145.35 81.6596 145.53 82.3396 145.53 83.1096C145.53 83.8796 145.36 84.5696 145.01 85.1696C144.67 85.7796 144.19 86.2496 143.6 86.5896C143.01 86.9296 142.34 87.0996 141.6 87.0996C140.86 87.0996 140.21 86.9296 139.61 86.5896ZM143.07 85.8296C143.51 85.5796 143.85 85.2096 144.1 84.7396C144.35 84.2696 144.48 83.7196 144.48 83.0996C144.48 82.4796 144.35 81.9196 144.1 81.4596C143.85 80.9896 143.51 80.6296 143.07 80.3796C142.64 80.1296 142.14 79.9996 141.59 79.9996C141.04 79.9996 140.54 80.1296 140.11 80.3796C139.68 80.6296 139.33 80.9996 139.08 81.4596C138.83 81.9296 138.7 82.4796 138.7 83.0996C138.7 83.7196 138.83 84.2696 139.08 84.7396C139.33 85.2096 139.67 85.5696 140.11 85.8296C140.55 86.0796 141.04 86.2096 141.59 86.2096C142.14 86.2096 142.63 86.0796 143.06 85.8296H143.07Z"
              fill="url(#paint4_linear_1_3118)"
            />
            <path
              d="M155.26 87.0199H154.24L150.13 80.7899V87.0199H149.11V79.1899H150.13L154.24 85.4099V79.1899H155.26V87.0199Z"
              fill="url(#paint5_linear_1_3118)"
            />
            <path
              d="M160.34 86.8299C159.93 86.6499 159.61 86.3899 159.38 86.0699C159.15 85.7399 159.03 85.3699 159.02 84.9399H160.11C160.15 85.3099 160.3 85.6199 160.56 85.8699C160.83 86.1199 161.21 86.2499 161.72 86.2499C162.23 86.2499 162.59 86.1299 162.87 85.8899C163.15 85.6499 163.29 85.3299 163.29 84.9499C163.29 84.6499 163.21 84.4099 163.04 84.2199C162.88 84.0299 162.67 83.8899 162.42 83.7899C162.17 83.6899 161.84 83.5899 161.42 83.4799C160.9 83.3499 160.49 83.2099 160.18 83.0799C159.87 82.9499 159.6 82.7299 159.38 82.4499C159.16 82.1599 159.05 81.7799 159.05 81.2899C159.05 80.8599 159.16 80.4899 159.37 80.1599C159.58 79.8299 159.89 79.5799 160.28 79.3999C160.67 79.2199 161.12 79.1299 161.63 79.1299C162.36 79.1299 162.96 79.3099 163.43 79.6799C163.9 80.0499 164.16 80.5299 164.22 81.1399H163.1C163.06 80.8399 162.9 80.5799 162.63 80.3499C162.35 80.1199 161.99 80.0099 161.53 80.0099C161.1 80.0099 160.76 80.1199 160.49 80.3399C160.22 80.5599 160.09 80.8699 160.09 81.2699C160.09 81.5499 160.17 81.7899 160.33 81.9699C160.49 82.1499 160.69 82.2899 160.92 82.3799C161.15 82.4699 161.49 82.5799 161.91 82.6999C162.43 82.8399 162.84 82.9799 163.16 83.1199C163.48 83.2599 163.74 83.4699 163.97 83.7599C164.19 84.0499 164.31 84.4399 164.31 84.9299C164.31 85.3099 164.21 85.6699 164.01 86.0099C163.81 86.3499 163.51 86.6199 163.11 86.8299C162.71 87.0399 162.25 87.1399 161.71 87.1399C161.17 87.1399 160.73 87.0499 160.32 86.8699L160.34 86.8299Z"
              fill="url(#paint6_linear_1_3118)"
            />
            <path
              d="M169.07 79.1997V84.1497C169.07 84.8497 169.24 85.3597 169.58 85.6997C169.92 86.0397 170.39 86.1997 171 86.1997C171.61 86.1997 172.07 86.0297 172.41 85.6997C172.75 85.3597 172.92 84.8497 172.92 84.1497V79.1997H173.94V84.1397C173.94 84.7897 173.81 85.3397 173.55 85.7797C173.29 86.2297 172.93 86.5597 172.49 86.7697C172.05 86.9797 171.55 87.0997 170.99 87.0997C170.43 87.0997 169.94 86.9897 169.49 86.7697C169.04 86.5497 168.69 86.2197 168.43 85.7797C168.17 85.3397 168.04 84.7897 168.04 84.1397V79.1997H169.06H169.07Z"
              fill="url(#paint7_linear_1_3118)"
            />
            <path
              d="M178.91 86.1897H181.65V87.0197H177.89V79.1997H178.91V86.1897Z"
              fill="url(#paint8_linear_1_3118)"
            />
            <path
              d="M189.79 79.1997V80.0297H187.66V87.0197H186.64V80.0297H184.5V79.1997H189.8H189.79Z"
              fill="url(#paint9_linear_1_3118)"
            />
            <path
              d="M197.92 85.2797H194.51L193.88 87.0197H192.8L195.63 79.2397H196.81L199.63 87.0197H198.55L197.92 85.2797ZM197.62 84.4497L196.21 80.4997L194.8 84.4497H197.63H197.62Z"
              fill="url(#paint10_linear_1_3118)"
            />
            <path
              d="M209.25 87.0199H208.23L204.12 80.7899V87.0199H203.1V79.1899H204.12L208.23 85.4099V79.1899H209.25V87.0199Z"
              fill="url(#paint11_linear_1_3118)"
            />
            <path
              d="M213.36 81.0501C213.7 80.4401 214.17 79.9601 214.77 79.6201C215.37 79.2801 216.02 79.1001 216.75 79.1001C217.6 79.1001 218.35 79.3101 218.98 79.7201C219.62 80.1301 220.08 80.7201 220.37 81.4701H219.15C218.93 81.0001 218.62 80.6401 218.21 80.3801C217.8 80.1301 217.31 80.0001 216.75 80.0001C216.19 80.0001 215.71 80.1301 215.28 80.3801C214.85 80.6301 214.51 81.0001 214.26 81.4601C214.01 81.9201 213.89 82.4801 213.89 83.1001C213.89 83.7201 214.01 84.2701 214.26 84.7301C214.51 85.1901 214.85 85.5601 215.28 85.8101C215.71 86.0601 216.2 86.1901 216.75 86.1901C217.3 86.1901 217.81 86.0601 218.21 85.8101C218.61 85.5601 218.93 85.2001 219.15 84.7301H220.37C220.08 85.4801 219.61 86.0601 218.98 86.4601C218.34 86.8701 217.6 87.0701 216.75 87.0701C216.02 87.0701 215.36 86.9001 214.77 86.5601C214.18 86.2201 213.71 85.7501 213.36 85.1401C213.01 84.5301 212.84 83.8501 212.84 83.0901C212.84 82.3301 213.01 81.6401 213.36 81.0301V81.0501Z"
              fill="url(#paint12_linear_1_3118)"
            />
            <path
              d="M229.61 79.1997L227.06 84.0697V87.0197H226.04V84.0697L223.48 79.1997H224.61L226.54 83.1597L228.47 79.1997H229.6H229.61Z"
              fill="url(#paint13_linear_1_3118)"
            />
            <path
              d="M34.13 104.44C33.87 104.18 33.62 103.92 33.38 103.65C24.7 94.17 24.98 79.59 34.02 70.45L62.48 41.65C64.75 39.35 68.46 39.33 70.75 41.6L70.77 41.62C73.04 43.89 73.06 47.58 70.79 49.87L42.33 78.67C37.69 83.37 37.54 90.87 42 95.74C44.25 98.18 47.3 99.61 50.61 99.75C53.9 99.89 57.04 98.74 59.47 96.53L88.72 67.79C91.01 65.54 94.69 65.56 96.96 67.82L97 67.86C99.26 70.16 99.23 73.87 96.93 76.13L67.48 105.06C62.74 109.44 56.58 111.7 50.13 111.43C44.05 111.18 38.4 108.69 34.13 104.42V104.44Z"
              fill="url(#paint14_linear_1_3118)"
            />
            <path
              d="M7.97999 78.2296C7.71999 77.9696 7.46999 77.7096 7.22999 77.4396C-1.45001 67.9596 -1.17001 53.3796 7.86999 44.2396L36.72 15.0396C38.99 12.7396 42.7 12.7196 44.99 14.9896L45.01 15.0096C47.28 17.2796 47.3 20.9696 45.03 23.2596L16.17 52.4596C11.52 57.1596 11.38 64.6596 15.84 69.5296C18.08 71.9696 21.14 73.3996 24.46 73.5396C27.75 73.6796 30.89 72.5296 33.32 70.3196L62.47 41.6796C64.76 39.4296 68.44 39.4496 70.71 41.7196L70.75 41.7596C73.01 44.0596 72.98 47.7696 70.68 50.0296L41.33 78.8696C36.59 83.2496 30.43 85.5096 23.98 85.2396C17.9 84.9896 12.25 82.4996 7.96999 78.2296H7.97999Z"
              fill="url(#paint15_linear_1_3118)"
            />
            <path
              d="M109.48 55.1799C104.26 49.9599 97.23 47.6499 90.4 48.2099C90.96 41.3799 88.64 34.3499 83.43 29.1299C83.34 29.0399 83.24 28.9799 83.15 28.8999C83.07 28.8099 83.01 28.6999 82.92 28.6199C77.7 23.3999 70.67 21.0899 63.84 21.6499C64.4 14.8199 62.08 7.78986 56.87 2.56986C54.59 0.289863 50.88 0.289863 48.6 2.56986C46.32 4.84986 46.32 8.55986 48.6 10.8399C53.46 15.6999 53.46 23.6099 48.6 28.4799L20.21 56.8699C17.93 59.1499 17.93 62.8599 20.21 65.1399C20.23 65.1599 20.26 65.1799 20.29 65.2099C20.31 65.2399 20.33 65.2599 20.35 65.2899C22.63 67.5699 26.34 67.5699 28.62 65.2899L57.01 36.8999C61.87 32.0399 69.78 32.0399 74.65 36.8999C74.74 36.9899 74.84 37.0499 74.93 37.1299C75.01 37.2199 75.07 37.3199 75.16 37.4099C80.02 42.2699 80.02 50.1799 75.16 55.0499L46.77 83.4399C44.49 85.7199 44.48 89.4299 46.77 91.7099C46.79 91.7299 46.82 91.7499 46.85 91.7699C46.87 91.7999 46.89 91.8199 46.92 91.8499C49.21 94.1399 52.91 94.1299 55.19 91.8499L83.58 63.4599C88.44 58.5999 96.35 58.5999 101.22 63.4599C103.51 65.7499 107.21 65.7399 109.49 63.4599C111.77 61.1799 111.78 57.4699 109.49 55.1899L109.48 55.1799Z"
              fill="url(#paint16_linear_1_3118)"
            />
            <defs>
              <linearGradient
                id="paint0_linear_1_3118"
                x1="116.19"
                y1="52.6801"
                x2="151.64"
                y2="52.6801"
                gradientUnits="userSpaceOnUse"
              >
                <stop stop-color="#0097A4" />
                <stop offset="1" stop-color="#005E8F" />
              </linearGradient>
              <linearGradient
                id="paint1_linear_1_3118"
                x1="154.98"
                y1="52.6801"
                x2="201.07"
                y2="52.6801"
                gradientUnits="userSpaceOnUse"
              >
                <stop stop-color="#0097A4" />
                <stop offset="1" stop-color="#005E8F" />
              </linearGradient>
              <linearGradient
                id="paint2_linear_1_3118"
                x1="204.42"
                y1="52.6801"
                x2="239.87"
                y2="52.6801"
                gradientUnits="userSpaceOnUse"
              >
                <stop stop-color="#0097A4" />
                <stop offset="1" stop-color="#005E8F" />
              </linearGradient>
              <linearGradient
                id="paint3_linear_1_3118"
                x1="126.76"
                y1="83.1001"
                x2="134.29"
                y2="83.1001"
                gradientUnits="userSpaceOnUse"
              >
                <stop stop-color="#0097A4" />
                <stop offset="1" stop-color="#005E8F" />
              </linearGradient>
              <linearGradient
                id="paint4_linear_1_3118"
                x1="137.67"
                y1="83.1096"
                x2="145.52"
                y2="83.1096"
                gradientUnits="userSpaceOnUse"
              >
                <stop stop-color="#0097A4" />
                <stop offset="1" stop-color="#005E8F" />
              </linearGradient>
              <linearGradient
                id="paint5_linear_1_3118"
                x1="149.11"
                y1="83.1099"
                x2="155.26"
                y2="83.1099"
                gradientUnits="userSpaceOnUse"
              >
                <stop stop-color="#0097A4" />
                <stop offset="1" stop-color="#005E8F" />
              </linearGradient>
              <linearGradient
                id="paint6_linear_1_3118"
                x1="159.02"
                y1="83.0999"
                x2="164.32"
                y2="83.0999"
                gradientUnits="userSpaceOnUse"
              >
                <stop stop-color="#0097A4" />
                <stop offset="1" stop-color="#005E8F" />
              </linearGradient>
              <linearGradient
                id="paint7_linear_1_3118"
                x1="168.05"
                y1="83.1497"
                x2="173.94"
                y2="83.1497"
                gradientUnits="userSpaceOnUse"
              >
                <stop stop-color="#0097A4" />
                <stop offset="1" stop-color="#005E8F" />
              </linearGradient>
              <linearGradient
                id="paint8_linear_1_3118"
                x1="177.89"
                y1="83.1097"
                x2="181.65"
                y2="83.1097"
                gradientUnits="userSpaceOnUse"
              >
                <stop stop-color="#0097A4" />
                <stop offset="1" stop-color="#005E8F" />
              </linearGradient>
              <linearGradient
                id="paint9_linear_1_3118"
                x1="184.5"
                y1="83.1097"
                x2="189.79"
                y2="83.1097"
                gradientUnits="userSpaceOnUse"
              >
                <stop stop-color="#0097A4" />
                <stop offset="1" stop-color="#005E8F" />
              </linearGradient>
              <linearGradient
                id="paint10_linear_1_3118"
                x1="192.8"
                y1="83.1297"
                x2="199.62"
                y2="83.1297"
                gradientUnits="userSpaceOnUse"
              >
                <stop stop-color="#0097A4" />
                <stop offset="1" stop-color="#005E8F" />
              </linearGradient>
              <linearGradient
                id="paint11_linear_1_3118"
                x1="203.1"
                y1="83.1099"
                x2="209.25"
                y2="83.1099"
                gradientUnits="userSpaceOnUse"
              >
                <stop stop-color="#0097A4" />
                <stop offset="1" stop-color="#005E8F" />
              </linearGradient>
              <linearGradient
                id="paint12_linear_1_3118"
                x1="212.85"
                y1="83.1001"
                x2="220.38"
                y2="83.1001"
                gradientUnits="userSpaceOnUse"
              >
                <stop stop-color="#0097A4" />
                <stop offset="1" stop-color="#005E8F" />
              </linearGradient>
              <linearGradient
                id="paint13_linear_1_3118"
                x1="223.49"
                y1="83.1097"
                x2="229.61"
                y2="83.1097"
                gradientUnits="userSpaceOnUse"
              >
                <stop stop-color="#0097A4" />
                <stop offset="1" stop-color="#005E8F" />
              </linearGradient>
              <linearGradient
                id="paint14_linear_1_3118"
                x1="27.05"
                y1="75.7"
                x2="98.69"
                y2="75.7"
                gradientUnits="userSpaceOnUse"
              >
                <stop stop-color="#0097A4" />
                <stop offset="1" stop-color="#005E8F" />
              </linearGradient>
              <linearGradient
                id="paint15_linear_1_3118"
                x1="0.89999"
                y1="49.2896"
                x2="72.43"
                y2="49.2896"
                gradientUnits="userSpaceOnUse"
              >
                <stop stop-color="#0097A4" />
                <stop offset="1" stop-color="#005E8F" />
              </linearGradient>
              <linearGradient
                id="paint16_linear_1_3118"
                x1="18.48"
                y1="47.1999"
                x2="111.2"
                y2="47.1999"
                gradientUnits="userSpaceOnUse"
              >
                <stop stop-color="#0097A4" />
                <stop offset="1" stop-color="#005E8F" />
              </linearGradient>
            </defs>
          </svg>