<svg xmlns="http://www.w3.org/2000/svg" width="88" height="88" viewBox="0 0 88 88" fill="none">
  <path d="M86.0699 1.47998C79.5499 1.43998 76.84 1.6602 70.33 1.7002V21.0498H70.54L70.33 25.9399C76.91 25.9199 79.8 25.8899 86.38 25.9399V1.91016C86.06 1.91016 86.2299 1.46996 86.0699 1.45996V1.47998Z" stroke="white" stroke-width="2" stroke-miterlimit="10"/>
  <path d="M70.08 82.0098C70.15 82.0098 70.22 82.0098 70.29 82.0098L70.08 86.6802C76.78 86.6602 79.68 86.7302 86.39 86.6802V62.4302C79.72 62.4802 76.75 62.6899 70.08 62.6499V82V82.0098Z" stroke="white" stroke-width="2" stroke-miterlimit="10"/>
  <path d="M34.66 27.4998C41.13 24.9498 57.6 25.9697 65.25 25.9397L65.47 21.0496H65.25V1.69999C49.88 1.77999 34.92 -0.79023 21.09 7.47977C9.39995 14.4798 1.75001 27.6196 1.40001 41.2996C1.38001 42.1796 1.38001 43.09 1.40001 43.97C1.45001 45.72 1.62995 48.0098 1.83995 49.7498C4.29995 69.7198 18.63 84.6097 38.77 86.8997C47.59 86.9197 56.43 86.71 65.24 86.68L65.4599 82.0096C65.3899 82.0096 65.31 82.0096 65.24 82.0096V62.6599C57.69 62.6099 40.71 63.4699 34.43 61.0999C28.39 58.8299 21.47 50.9097 21.86 44.1897C22.23 37.6897 28.67 29.8598 34.65 27.4998H34.66Z" stroke="white" stroke-width="2" stroke-miterlimit="10"/>
</svg>