<svg width="1364" height="249" viewBox="0 0 1364 249" fill="none" xmlns="http://www.w3.org/2000/svg">
<path d="M57.39 65.3401L52.68 57.6702L48.07 65.3401H57.39Z" fill="#007096"/>
<path d="M57.39 65.3401L52.68 57.6702L48.07 65.3401H57.39Z" fill="url(#paint0_linear_1_2677)"/>
<path d="M52.68 57.6701L57.39 65.3401H48.07L52.68 57.6701L18.28 1.62012H0.700012V91.9201H20.51V38.6601L16.18 31.6701H20.51V38.6601L47.55 82.2401H57L84.06 38.0601L84.03 31.6701H87.97L84.06 38.0601L84.29 91.9201H104.11V1.62012H86.39L52.68 57.6701Z" fill="#007096"/>
<path d="M52.68 57.6701L57.39 65.3401H48.07L52.68 57.6701L18.28 1.62012H0.700012V91.9201H20.51V38.6601L16.18 31.6701H20.51V38.6601L47.55 82.2401H57L84.06 38.0601L84.03 31.6701H87.97L84.06 38.0601L84.29 91.9201H104.11V1.62012H86.39L52.68 57.6701Z" fill="url(#paint1_linear_1_2677)"/>
<path d="M84.03 31.6702L84.06 38.0602L87.97 31.6702H84.03Z" fill="#007096"/>
<path d="M84.03 31.6702L84.06 38.0602L87.97 31.6702H84.03Z" fill="url(#paint2_linear_1_2677)"/>
<path d="M206.08 80.3101C210.63 76.1001 214.15 71.1301 216.64 65.4101C219.13 59.6901 220.38 53.48 220.38 46.7701C220.38 40.0601 219.13 33.7401 216.64 28.0601C214.15 22.3801 210.62 17.4401 206.08 13.2301C201.53 9.02007 196.22 5.77005 190.14 3.49005C184.06 1.21005 177.39 0.0700684 170.13 0.0700684C162.87 0.0700684 156.2 1.23005 150.12 3.55005C144.04 5.87005 138.72 9.14007 134.18 13.3501C129.63 17.5601 126.11 22.4901 123.62 28.1201C121.13 33.7501 119.88 39.9701 119.88 46.7601C119.88 53.5501 121.13 59.6601 123.62 65.3401C126.11 71.0201 129.63 75.9601 134.18 80.1801C138.73 84.3901 144.07 87.6601 150.19 89.9801C156.31 92.3001 163.01 93.4601 170.27 93.4601C177.53 93.4601 184.07 92.3201 190.15 90.0401C196.23 87.7601 201.55 84.5201 206.09 80.3L206.08 80.3101ZM170.12 75.7901C166.01 75.7901 162.2 75.0801 158.7 73.6601C155.2 72.2401 152.16 70.2201 149.58 67.6001C147 64.9801 144.99 61.9201 143.54 58.4401C142.1 54.9601 141.37 51.07 141.37 46.7701C141.37 42.4701 142.09 38.5801 143.54 35.1001C144.98 31.6201 147 28.5701 149.58 25.9401C152.16 23.3201 155.2 21.3001 158.7 19.8801C162.2 18.4601 166 17.7501 170.12 17.7501C174.24 17.7501 178.01 18.4601 181.47 19.8801C184.93 21.3001 187.97 23.3201 190.59 25.9401C193.21 28.5601 195.25 31.6201 196.69 35.1001C198.13 38.5801 198.86 42.48 198.86 46.7701C198.86 51.0601 198.14 54.9601 196.69 58.4401C195.25 61.9201 193.21 64.9801 190.59 67.6001C187.97 70.2201 184.92 72.2401 181.47 73.6601C178.01 75.0801 174.23 75.7901 170.12 75.7901Z" fill="#007096"/>
<path d="M206.08 80.3101C210.63 76.1001 214.15 71.1301 216.64 65.4101C219.13 59.6901 220.38 53.48 220.38 46.7701C220.38 40.0601 219.13 33.7401 216.64 28.0601C214.15 22.3801 210.62 17.4401 206.08 13.2301C201.53 9.02007 196.22 5.77005 190.14 3.49005C184.06 1.21005 177.39 0.0700684 170.13 0.0700684C162.87 0.0700684 156.2 1.23005 150.12 3.55005C144.04 5.87005 138.72 9.14007 134.18 13.3501C129.63 17.5601 126.11 22.4901 123.62 28.1201C121.13 33.7501 119.88 39.9701 119.88 46.7601C119.88 53.5501 121.13 59.6601 123.62 65.3401C126.11 71.0201 129.63 75.9601 134.18 80.1801C138.73 84.3901 144.07 87.6601 150.19 89.9801C156.31 92.3001 163.01 93.4601 170.27 93.4601C177.53 93.4601 184.07 92.3201 190.15 90.0401C196.23 87.7601 201.55 84.5201 206.09 80.3L206.08 80.3101ZM170.12 75.7901C166.01 75.7901 162.2 75.0801 158.7 73.6601C155.2 72.2401 152.16 70.2201 149.58 67.6001C147 64.9801 144.99 61.9201 143.54 58.4401C142.1 54.9601 141.37 51.07 141.37 46.7701C141.37 42.4701 142.09 38.5801 143.54 35.1001C144.98 31.6201 147 28.5701 149.58 25.9401C152.16 23.3201 155.2 21.3001 158.7 19.8801C162.2 18.4601 166 17.7501 170.12 17.7501C174.24 17.7501 178.01 18.4601 181.47 19.8801C184.93 21.3001 187.97 23.3201 190.59 25.9401C193.21 28.5601 195.25 31.6201 196.69 35.1001C198.13 38.5801 198.86 42.48 198.86 46.7701C198.86 51.0601 198.14 54.9601 196.69 58.4401C195.25 61.9201 193.21 64.9801 190.59 67.6001C187.97 70.2201 184.92 72.2401 181.47 73.6601C178.01 75.0801 174.23 75.7901 170.12 75.7901Z" fill="url(#paint3_linear_1_2677)"/>
<path d="M307.79 66.6302L299.26 56.4001V66.6302H307.79Z" fill="#007096"/>
<path d="M307.79 66.6302L299.26 56.4001V66.6302H307.79Z" fill="url(#paint4_linear_1_2677)"/>
<path d="M248.47 26.9001L257 37.1302V26.9001H248.47Z" fill="#007096"/>
<path d="M248.47 26.9001L257 37.1302V26.9001H248.47Z" fill="url(#paint5_linear_1_2677)"/>
<path d="M257 37.1301L248.47 26.9001H257V37.1301L302.67 91.9201H320.25V1.62012H299.26V56.4001L307.79 66.6301H299.26V56.4001L253.59 1.62012H236V91.9201H257V37.1301Z" fill="#007096"/>
<path d="M257 37.1301L248.47 26.9001H257V37.1301L302.67 91.9201H320.25V1.62012H299.26V56.4001L307.79 66.6301H299.26V56.4001L253.59 1.62012H236V91.9201H257V37.1301Z" fill="url(#paint6_linear_1_2677)"/>
<path d="M362.77 54.2501H361.2V37.8701H362.77V18.3901H411.07V1.62012H341.64V91.9201H412.77V75.1501H362.77V54.2501Z" fill="#007096"/>
<path d="M362.77 54.2501H361.2V37.8701H362.77V18.3901H411.07V1.62012H341.64V91.9201H412.77V75.1501H362.77V54.2501Z" fill="url(#paint7_linear_1_2677)"/>
<path d="M405.42 37.8701H362.77V54.2501H405.42V37.8701Z" fill="#007096"/>
<path d="M405.42 37.8701H362.77V54.2501H405.42V37.8701Z" fill="url(#paint8_linear_1_2677)"/>
<path d="M362.77 37.8701H361.2V54.2501H362.77V37.8701Z" fill="#007096"/>
<path d="M362.77 37.8701H361.2V54.2501H362.77V37.8701Z" fill="url(#paint9_linear_1_2677)"/>
<path d="M467.76 67.66L472.62 59.7V55.02L467.76 67.66Z" fill="#007096"/>
<path d="M467.76 67.66L472.62 59.7V55.02L467.76 67.66Z" fill="url(#paint10_linear_1_2677)"/>
<path d="M469.2 52.1801L462.72 41.6001L456.21 52.1801H469.2Z" fill="#007096"/>
<path d="M469.2 52.1801L462.72 41.6001L456.21 52.1801H469.2Z" fill="url(#paint11_linear_1_2677)"/>
<path d="M451.22 55.0201L456.08 67.6601L451.22 59.7601V91.9201H472.62V59.7001L467.76 67.6601L472.62 55.0201V59.7001L508.05 1.62012H487.31L462.72 41.6001L469.2 52.1801H456.21L462.72 41.6001L438.23 1.62012H415.53L451.22 59.7601V55.0201Z" fill="#007096"/>
<path d="M451.22 55.0201L456.08 67.6601L451.22 59.7601V91.9201H472.62V59.7001L467.76 67.6601L472.62 55.0201V59.7001L508.05 1.62012H487.31L462.72 41.6001L469.2 52.1801H456.21L462.72 41.6001L438.23 1.62012H415.53L451.22 59.7601V55.0201Z" fill="url(#paint12_linear_1_2677)"/>
<path d="M451.22 55.02V59.76L456.08 67.66L451.22 55.02Z" fill="#007096"/>
<path d="M451.22 55.02V59.76L456.08 67.66L451.22 55.02Z" fill="url(#paint13_linear_1_2677)"/>
<path d="M568.94 31.6702L573.27 38.6602V31.6702H568.94Z" fill="#007096"/>
<path d="M568.94 31.6702L573.27 38.6602V31.6702H568.94Z" fill="url(#paint14_linear_1_2677)"/>
<path d="M610.15 65.3401L605.44 57.6702L600.83 65.3401H610.15Z" fill="#007096"/>
<path d="M610.15 65.3401L605.44 57.6702L600.83 65.3401H610.15Z" fill="url(#paint15_linear_1_2677)"/>
<path d="M656.87 1.62012H639.15L605.44 57.6701L610.15 65.3401H600.83L605.44 57.6701L571.04 1.62012H553.46V91.9201H573.27V38.6601L568.94 31.6701H573.27V38.6601L600.31 82.2401H609.76L636.82 38.0601L636.79 31.6701H640.73L636.82 38.0601L637.05 91.9201H656.87V1.62012Z" fill="#007096"/>
<path d="M656.87 1.62012H639.15L605.44 57.6701L610.15 65.3401H600.83L605.44 57.6701L571.04 1.62012H553.46V91.9201H573.27V38.6601L568.94 31.6701H573.27V38.6601L600.31 82.2401H609.76L636.82 38.0601L636.79 31.6701H640.73L636.82 38.0601L637.05 91.9201H656.87V1.62012Z" fill="url(#paint16_linear_1_2677)"/>
<path d="M636.79 31.6702L636.82 38.0602L640.73 31.6702H636.79Z" fill="#007096"/>
<path d="M636.79 31.6702L636.82 38.0602L640.73 31.6702H636.79Z" fill="url(#paint17_linear_1_2677)"/>
<path d="M769.4 65.4101C771.89 59.6901 773.14 53.48 773.14 46.7701C773.14 40.0601 771.89 33.7401 769.4 28.0601C766.91 22.3801 763.38 17.4401 758.84 13.2301C754.29 9.02007 748.97 5.77005 742.9 3.49005C736.82 1.21005 730.15 0.0700684 722.89 0.0700684C715.63 0.0700684 708.96 1.23005 702.88 3.55005C696.8 5.87005 691.48 9.14007 686.93 13.3501C682.38 17.5601 678.86 22.4901 676.37 28.1201C673.88 33.7501 672.63 39.9701 672.63 46.7601C672.63 53.5501 673.88 59.6601 676.37 65.3401C678.86 71.0201 682.38 75.9601 686.93 80.1801C691.48 84.3901 696.82 87.6601 702.94 89.9801C709.06 92.3001 715.75 93.4601 723.02 93.4601C730.29 93.4601 736.82 92.3201 742.9 90.0401C748.98 87.7601 754.29 84.5201 758.84 80.3C763.39 76.09 766.91 71.1201 769.4 65.4001V65.4101ZM749.45 58.4401C748.01 61.9201 745.97 64.9801 743.35 67.6001C740.73 70.2201 737.68 72.2401 734.23 73.6601C730.77 75.0801 726.99 75.7901 722.88 75.7901C718.77 75.7901 714.96 75.0801 711.46 73.6601C707.96 72.2401 704.92 70.2201 702.34 67.6001C699.76 64.9801 697.75 61.9201 696.3 58.4401C694.85 54.9601 694.14 51.07 694.14 46.7701C694.14 42.4701 694.86 38.5801 696.3 35.1001C697.74 31.6201 699.76 28.5701 702.34 25.9401C704.92 23.3201 707.96 21.3001 711.46 19.8801C714.96 18.4601 718.76 17.7501 722.88 17.7501C727 17.7501 730.77 18.4601 734.23 19.8801C737.69 21.3001 740.73 23.3201 743.35 25.9401C745.97 28.5601 748.01 31.6201 749.45 35.1001C750.89 38.5801 751.62 42.48 751.62 46.7701C751.62 51.0601 750.9 54.9601 749.45 58.4401Z" fill="#007096"/>
<path d="M769.4 65.4101C771.89 59.6901 773.14 53.48 773.14 46.7701C773.14 40.0601 771.89 33.7401 769.4 28.0601C766.91 22.3801 763.38 17.4401 758.84 13.2301C754.29 9.02007 748.97 5.77005 742.9 3.49005C736.82 1.21005 730.15 0.0700684 722.89 0.0700684C715.63 0.0700684 708.96 1.23005 702.88 3.55005C696.8 5.87005 691.48 9.14007 686.93 13.3501C682.38 17.5601 678.86 22.4901 676.37 28.1201C673.88 33.7501 672.63 39.9701 672.63 46.7601C672.63 53.5501 673.88 59.6601 676.37 65.3401C678.86 71.0201 682.38 75.9601 686.93 80.1801C691.48 84.3901 696.82 87.6601 702.94 89.9801C709.06 92.3001 715.75 93.4601 723.02 93.4601C730.29 93.4601 736.82 92.3201 742.9 90.0401C748.98 87.7601 754.29 84.5201 758.84 80.3C763.39 76.09 766.91 71.1201 769.4 65.4001V65.4101ZM749.45 58.4401C748.01 61.9201 745.97 64.9801 743.35 67.6001C740.73 70.2201 737.68 72.2401 734.23 73.6601C730.77 75.0801 726.99 75.7901 722.88 75.7901C718.77 75.7901 714.96 75.0801 711.46 73.6601C707.96 72.2401 704.92 70.2201 702.34 67.6001C699.76 64.9801 697.75 61.9201 696.3 58.4401C694.85 54.9601 694.14 51.07 694.14 46.7701C694.14 42.4701 694.86 38.5801 696.3 35.1001C697.74 31.6201 699.76 28.5701 702.34 25.9401C704.92 23.3201 707.96 21.3001 711.46 19.8801C714.96 18.4601 718.76 17.7501 722.88 17.7501C727 17.7501 730.77 18.4601 734.23 19.8801C737.69 21.3001 740.73 23.3201 743.35 25.9401C745.97 28.5601 748.01 31.6201 749.45 35.1001C750.89 38.5801 751.62 42.48 751.62 46.7701C751.62 51.0601 750.9 54.9601 749.45 58.4401Z" fill="url(#paint18_linear_1_2677)"/>
<path d="M834.3 91.9201L874.06 1.62012H852.93L824.57 66.1101L831.28 81.6001H817.76L824.57 66.1101L796.63 1.62012H773.54L813.3 91.9201H834.3Z" fill="#007096"/>
<path d="M834.3 91.9201L874.06 1.62012H852.93L824.57 66.1101L831.28 81.6001H817.76L824.57 66.1101L796.63 1.62012H773.54L813.3 91.9201H834.3Z" fill="url(#paint19_linear_1_2677)"/>
<path d="M831.28 81.6001L824.57 66.1101L817.76 81.6001H831.28Z" fill="#007096"/>
<path d="M831.28 81.6001L824.57 66.1101L817.76 81.6001H831.28Z" fill="url(#paint20_linear_1_2677)"/>
<path d="M902.41 37.8701H900.83V54.2501H902.41V37.8701Z" fill="#007096"/>
<path d="M902.41 37.8701H900.83V54.2501H902.41V37.8701Z" fill="url(#paint21_linear_1_2677)"/>
<path d="M952.41 75.1501H902.41V54.2501H900.83V37.8701H902.41V18.3901H950.7V1.62012H881.28V91.9201H952.41V75.1501Z" fill="#007096"/>
<path d="M952.41 75.1501H902.41V54.2501H900.83V37.8701H902.41V18.3901H950.7V1.62012H881.28V91.9201H952.41V75.1501Z" fill="url(#paint22_linear_1_2677)"/>
<path d="M945.06 37.8701H902.41V54.2501H945.06V37.8701Z" fill="#007096"/>
<path d="M945.06 37.8701H902.41V54.2501H945.06V37.8701Z" fill="url(#paint23_linear_1_2677)"/>
<path d="M1009.43 75.4001C1006.85 76.2601 1003.46 76.6901 999.26 76.6901C993.75 76.6901 988.28 75.8101 982.86 74.0501C977.43 72.2901 972.8 70.0301 968.95 67.2801L961.73 83.0201C965.84 86.1201 971.29 88.6301 978.07 90.5701C984.85 92.5101 991.91 93.4701 999.26 93.4701C1007.92 93.4701 1015.14 92.1801 1020.91 89.6001C1026.68 87.0201 1030.99 83.6201 1033.84 79.4101C1036.68 75.2001 1038.1 70.5501 1038.1 65.4801C1038.1 60.8401 1037.12 56.9501 1035.15 53.8101C1033.18 50.6701 1030.62 48.1801 1027.47 46.3301C1024.32 44.4801 1020.86 42.9601 1017.1 41.7501C1013.34 40.5501 1009.53 39.5401 1005.68 38.7201C1001.83 37.9001 998.33 37.0901 995.18 36.2701C992.03 35.4501 989.49 34.3101 987.57 32.8501C985.65 31.3901 984.68 29.4501 984.68 27.0401C984.68 25.1501 985.27 23.4301 986.45 21.8801C987.63 20.3301 989.49 19.1101 992.03 18.2001C994.57 17.3001 997.94 16.8501 1002.14 16.8501C1006.34 16.8501 1010.36 17.4301 1014.74 18.5901C1019.11 19.7501 1023.36 21.4901 1027.47 23.8101L1034.16 8.0701C1029.96 5.4901 1025.04 3.51011 1019.4 2.14011C1013.76 0.770106 1008.05 0.0800781 1002.27 0.0800781C993.61 0.0800781 986.41 1.35011 980.68 3.89011C974.95 6.43011 970.68 9.82008 967.89 14.0801C965.09 18.3401 963.69 23.0501 963.69 28.2101C963.69 32.9401 964.63 36.8801 966.51 40.0101C968.39 43.1501 970.93 45.6901 974.12 47.6201C977.31 49.5601 980.81 51.1001 984.62 52.2601C988.43 53.4201 992.21 54.4101 995.97 55.2301C999.73 56.0501 1003.21 56.9101 1006.4 57.8101C1009.59 58.7101 1012.15 59.8701 1014.08 61.2901C1016 62.7101 1016.97 64.6201 1016.97 67.0301C1016.97 68.9201 1016.36 70.5801 1015.13 72.0001C1013.9 73.4201 1012 74.5601 1009.42 75.4201L1009.43 75.4001Z" fill="#007096"/>
<path d="M1009.43 75.4001C1006.85 76.2601 1003.46 76.6901 999.26 76.6901C993.75 76.6901 988.28 75.8101 982.86 74.0501C977.43 72.2901 972.8 70.0301 968.95 67.2801L961.73 83.0201C965.84 86.1201 971.29 88.6301 978.07 90.5701C984.85 92.5101 991.91 93.4701 999.26 93.4701C1007.92 93.4701 1015.14 92.1801 1020.91 89.6001C1026.68 87.0201 1030.99 83.6201 1033.84 79.4101C1036.68 75.2001 1038.1 70.5501 1038.1 65.4801C1038.1 60.8401 1037.12 56.9501 1035.15 53.8101C1033.18 50.6701 1030.62 48.1801 1027.47 46.3301C1024.32 44.4801 1020.86 42.9601 1017.1 41.7501C1013.34 40.5501 1009.53 39.5401 1005.68 38.7201C1001.83 37.9001 998.33 37.0901 995.18 36.2701C992.03 35.4501 989.49 34.3101 987.57 32.8501C985.65 31.3901 984.68 29.4501 984.68 27.0401C984.68 25.1501 985.27 23.4301 986.45 21.8801C987.63 20.3301 989.49 19.1101 992.03 18.2001C994.57 17.3001 997.94 16.8501 1002.14 16.8501C1006.34 16.8501 1010.36 17.4301 1014.74 18.5901C1019.11 19.7501 1023.36 21.4901 1027.47 23.8101L1034.16 8.0701C1029.96 5.4901 1025.04 3.51011 1019.4 2.14011C1013.76 0.770106 1008.05 0.0800781 1002.27 0.0800781C993.61 0.0800781 986.41 1.35011 980.68 3.89011C974.95 6.43011 970.68 9.82008 967.89 14.0801C965.09 18.3401 963.69 23.0501 963.69 28.2101C963.69 32.9401 964.63 36.8801 966.51 40.0101C968.39 43.1501 970.93 45.6901 974.12 47.6201C977.31 49.5601 980.81 51.1001 984.62 52.2601C988.43 53.4201 992.21 54.4101 995.97 55.2301C999.73 56.0501 1003.21 56.9101 1006.4 57.8101C1009.59 58.7101 1012.15 59.8701 1014.08 61.2901C1016 62.7101 1016.97 64.6201 1016.97 67.0301C1016.97 68.9201 1016.36 70.5801 1015.13 72.0001C1013.9 73.4201 1012 74.5601 1009.42 75.4201L1009.43 75.4001Z" fill="url(#paint24_linear_1_2677)"/>
<path d="M1152.8 42.25H1110.41V59.02H1152.8V42.25Z" fill="#007096"/>
<path d="M1152.8 42.25H1110.41V59.02H1152.8V42.25Z" fill="url(#paint25_linear_1_2677)"/>
<path d="M1110.42 42.25H1108.71V59.02H1110.42V42.25Z" fill="#007096"/>
<path d="M1110.42 42.25H1108.71V59.02H1110.42V42.25Z" fill="url(#paint26_linear_1_2677)"/>
<path d="M1089.02 91.9201H1110.41V59.0201H1108.71V42.2501H1110.41V18.3901H1158.45V1.62012H1089.02V91.9201Z" fill="#007096"/>
<path d="M1089.02 91.9201H1110.41V59.0201H1108.71V42.2501H1110.41V18.3901H1158.45V1.62012H1089.02V91.9201Z" fill="url(#paint27_linear_1_2677)"/>
<path d="M1252.02 13.2301C1247.47 9.02007 1242.15 5.77005 1236.08 3.49005C1230 1.21005 1223.33 0.0700684 1216.07 0.0700684C1208.81 0.0700684 1202.14 1.23005 1196.06 3.55005C1189.98 5.87005 1184.66 9.14007 1180.12 13.3501C1175.57 17.5601 1172.05 22.4901 1169.56 28.1201C1167.07 33.7501 1165.82 39.9701 1165.82 46.7601C1165.82 53.5501 1167.07 59.6601 1169.56 65.3401C1172.05 71.0201 1175.57 75.9601 1180.12 80.1801C1184.67 84.3901 1190.01 87.6601 1196.13 89.9801C1202.25 92.3001 1208.95 93.4601 1216.21 93.4601C1223.47 93.4601 1230.01 92.3201 1236.09 90.0401C1242.17 87.7601 1247.48 84.5201 1252.03 80.3C1256.58 76.09 1260.1 71.1201 1262.59 65.4001C1265.08 59.6801 1266.33 53.4701 1266.33 46.7601C1266.33 40.0501 1265.08 33.73 1262.59 28.05C1260.1 22.37 1256.57 17.4301 1252.03 13.2201L1252.02 13.2301ZM1242.63 58.4401C1241.19 61.9201 1239.15 64.9801 1236.53 67.6001C1233.91 70.2201 1230.86 72.2401 1227.41 73.6601C1223.95 75.0801 1220.17 75.7901 1216.06 75.7901C1211.95 75.7901 1208.14 75.0801 1204.64 73.6601C1201.14 72.2401 1198.1 70.2201 1195.52 67.6001C1192.94 64.9801 1190.93 61.9201 1189.48 58.4401C1188.03 54.9601 1187.31 51.07 1187.31 46.7701C1187.31 42.4701 1188.03 38.5801 1189.48 35.1001C1190.92 31.6201 1192.94 28.5701 1195.52 25.9401C1198.1 23.3201 1201.14 21.3001 1204.64 19.8801C1208.14 18.4601 1211.94 17.7501 1216.06 17.7501C1220.18 17.7501 1223.95 18.4601 1227.41 19.8801C1230.87 21.3001 1233.91 23.3201 1236.53 25.9401C1239.15 28.5601 1241.19 31.6201 1242.63 35.1001C1244.07 38.5801 1244.8 42.48 1244.8 46.7701C1244.8 51.0601 1244.08 54.9601 1242.63 58.4401Z" fill="#007096"/>
<path d="M1252.02 13.2301C1247.47 9.02007 1242.15 5.77005 1236.08 3.49005C1230 1.21005 1223.33 0.0700684 1216.07 0.0700684C1208.81 0.0700684 1202.14 1.23005 1196.06 3.55005C1189.98 5.87005 1184.66 9.14007 1180.12 13.3501C1175.57 17.5601 1172.05 22.4901 1169.56 28.1201C1167.07 33.7501 1165.82 39.9701 1165.82 46.7601C1165.82 53.5501 1167.07 59.6601 1169.56 65.3401C1172.05 71.0201 1175.57 75.9601 1180.12 80.1801C1184.67 84.3901 1190.01 87.6601 1196.13 89.9801C1202.25 92.3001 1208.95 93.4601 1216.21 93.4601C1223.47 93.4601 1230.01 92.3201 1236.09 90.0401C1242.17 87.7601 1247.48 84.5201 1252.03 80.3C1256.58 76.09 1260.1 71.1201 1262.59 65.4001C1265.08 59.6801 1266.33 53.4701 1266.33 46.7601C1266.33 40.0501 1265.08 33.73 1262.59 28.05C1260.1 22.37 1256.57 17.4301 1252.03 13.2201L1252.02 13.2301ZM1242.63 58.4401C1241.19 61.9201 1239.15 64.9801 1236.53 67.6001C1233.91 70.2201 1230.86 72.2401 1227.41 73.6601C1223.95 75.0801 1220.17 75.7901 1216.06 75.7901C1211.95 75.7901 1208.14 75.0801 1204.64 73.6601C1201.14 72.2401 1198.1 70.2201 1195.52 67.6001C1192.94 64.9801 1190.93 61.9201 1189.48 58.4401C1188.03 54.9601 1187.31 51.07 1187.31 46.7701C1187.31 42.4701 1188.03 38.5801 1189.48 35.1001C1190.92 31.6201 1192.94 28.5701 1195.52 25.9401C1198.1 23.3201 1201.14 21.3001 1204.64 19.8801C1208.14 18.4601 1211.94 17.7501 1216.06 17.7501C1220.18 17.7501 1223.95 18.4601 1227.41 19.8801C1230.87 21.3001 1233.91 23.3201 1236.53 25.9401C1239.15 28.5601 1241.19 31.6201 1242.63 35.1001C1244.07 38.5801 1244.8 42.48 1244.8 46.7701C1244.8 51.0601 1244.08 54.9601 1242.63 58.4401Z" fill="url(#paint28_linear_1_2677)"/>
<path d="M1302.14 58.71L1293.62 66.63H1303.33V59.92L1302.14 58.71Z" fill="#007096"/>
<path d="M1302.14 58.71L1293.62 66.63H1303.33V59.92L1302.14 58.71Z" fill="url(#paint29_linear_1_2677)"/>
<path d="M1340.21 59.1501H1317.38L1322.64 66.6101C1330.41 66.5201 1337.15 65.2801 1342.84 62.8701L1340.21 59.1401V59.1501Z" fill="#007096"/>
<path d="M1340.21 59.1501H1317.38L1322.64 66.6101C1330.41 66.5201 1337.15 65.2801 1342.84 62.8701L1340.21 59.1401V59.1501Z" fill="url(#paint30_linear_1_2677)"/>
<path d="M1303.33 57.6001L1302.14 58.7101L1303.33 59.9201V57.6001Z" fill="#007096"/>
<path d="M1303.33 57.6001L1302.14 58.7101L1303.33 59.9201V57.6001Z" fill="url(#paint31_linear_1_2677)"/>
<path d="M1340.21 59.1501L1342.84 62.8801C1342.84 62.8801 1342.93 62.8501 1342.97 62.8301C1348.92 60.2901 1353.51 56.6001 1356.75 51.7401C1359.99 46.8801 1361.61 41.0601 1361.61 34.2601C1361.61 24.1101 1358.07 16.1401 1350.98 10.3301C1343.89 4.52011 1333.96 1.62012 1321.19 1.62012H1281.95V91.9201H1303.34V66.6401H1293.63L1302.15 58.7201L1293.63 50.0001H1303.34V18.6501H1293.63L1303.34 8.72012V18.6501H1320.53C1327 18.6501 1331.9 20.0001 1335.23 22.7101C1338.55 25.4201 1340.22 29.2701 1340.22 34.2601C1340.22 39.2501 1338.56 43.1201 1335.23 45.8701C1331.9 48.6201 1327.01 50.0001 1320.53 50.0001H1303.34V66.6401H1321.71C1322.03 66.6401 1322.33 66.6301 1322.64 66.6201L1317.38 59.1601H1340.21V59.1501Z" fill="#007096"/>
<path d="M1340.21 59.1501L1342.84 62.8801C1342.84 62.8801 1342.93 62.8501 1342.97 62.8301C1348.92 60.2901 1353.51 56.6001 1356.75 51.7401C1359.99 46.8801 1361.61 41.0601 1361.61 34.2601C1361.61 24.1101 1358.07 16.1401 1350.98 10.3301C1343.89 4.52011 1333.96 1.62012 1321.19 1.62012H1281.95V91.9201H1303.34V66.6401H1293.63L1302.15 58.7201L1293.63 50.0001H1303.34V18.6501H1293.63L1303.34 8.72012V18.6501H1320.53C1327 18.6501 1331.9 20.0001 1335.23 22.7101C1338.55 25.4201 1340.22 29.2701 1340.22 34.2601C1340.22 39.2501 1338.56 43.1201 1335.23 45.8701C1331.9 48.6201 1327.01 50.0001 1320.53 50.0001H1303.34V66.6401H1321.71C1322.03 66.6401 1322.33 66.6301 1322.64 66.6201L1317.38 59.1601H1340.21V59.1501Z" fill="url(#paint32_linear_1_2677)"/>
<path d="M1322.63 66.6101L1340.47 91.9101H1363.3L1342.83 62.8701C1337.13 65.2801 1330.4 66.5101 1322.63 66.6101Z" fill="#007096"/>
<path d="M1322.63 66.6101L1340.47 91.9101H1363.3L1342.83 62.8701C1337.13 65.2801 1330.4 66.5101 1322.63 66.6101Z" fill="url(#paint33_linear_1_2677)"/>
<path d="M1293.62 18.64H1303.33V8.70996L1293.62 18.64Z" fill="#007096"/>
<path d="M1293.62 18.64H1303.33V8.70996L1293.62 18.64Z" fill="url(#paint34_linear_1_2677)"/>
<path d="M1303.33 49.99H1293.62L1302.14 58.71L1303.33 57.6V49.99Z" fill="#007096"/>
<path d="M1303.33 49.99H1293.62L1302.14 58.71L1303.33 57.6V49.99Z" fill="url(#paint35_linear_1_2677)"/>
<path d="M230.82 220.14L226.11 212.47L221.5 220.14H230.82Z" fill="#007096"/>
<path d="M230.82 220.14L226.11 212.47L221.5 220.14H230.82Z" fill="url(#paint36_linear_1_2677)"/>
<path d="M189.61 186.47L193.94 193.46V186.47H189.61Z" fill="#007096"/>
<path d="M189.61 186.47L193.94 193.46V186.47H189.61Z" fill="url(#paint37_linear_1_2677)"/>
<path d="M226.11 212.47L230.82 220.14H221.5L226.11 212.47L191.71 156.42H174.12V246.72H193.94V193.46L189.61 186.47H193.94V193.46L220.97 237.04H230.42L257.48 192.86L257.46 186.47H261.39L257.48 192.86L257.72 246.72H277.54V156.42H259.82L226.11 212.47Z" fill="#007096"/>
<path d="M226.11 212.47L230.82 220.14H221.5L226.11 212.47L191.71 156.42H174.12V246.72H193.94V193.46L189.61 186.47H193.94V193.46L220.97 237.04H230.42L257.48 192.86L257.46 186.47H261.39L257.48 192.86L257.72 246.72H277.54V156.42H259.82L226.11 212.47Z" fill="url(#paint38_linear_1_2677)"/>
<path d="M257.46 186.47L257.48 192.86L261.39 186.47H257.46Z" fill="#007096"/>
<path d="M257.46 186.47L257.48 192.86L261.39 186.47H257.46Z" fill="url(#paint39_linear_1_2677)"/>
<path d="M320.45 156.42H299.06V246.72H320.45V156.42Z" fill="#007096"/>
<path d="M320.45 156.42H299.06V246.72H320.45V156.42Z" fill="url(#paint40_linear_1_2677)"/>
<path d="M363.1 156.42H341.71V246.72H408.9V229.69H363.1V156.42Z" fill="#007096"/>
<path d="M363.1 156.42H341.71V246.72H408.9V229.69H363.1V156.42Z" fill="url(#paint41_linear_1_2677)"/>
<path d="M441.97 156.42H420.58V246.72H487.77V229.69H441.97V156.42Z" fill="#007096"/>
<path d="M441.97 156.42H420.58V246.72H487.77V229.69H441.97V156.42Z" fill="url(#paint42_linear_1_2677)"/>
<path d="M520.84 156.42H499.45V246.72H520.84V156.42Z" fill="#007096"/>
<path d="M520.84 156.42H499.45V246.72H520.84V156.42Z" fill="url(#paint43_linear_1_2677)"/>
<path d="M622.55 168.03C618 163.82 612.69 160.57 606.61 158.29C600.53 156.01 593.86 154.87 586.6 154.87C579.34 154.87 572.67 156.03 566.59 158.35C560.51 160.67 555.19 163.94 550.65 168.15C546.1 172.36 542.58 177.29 540.09 182.92C537.6 188.55 536.35 194.77 536.35 201.56C536.35 208.35 537.6 214.46 540.09 220.14C542.58 225.82 546.1 230.76 550.65 234.97C555.2 239.18 560.54 242.45 566.66 244.77C572.78 247.09 579.48 248.25 586.74 248.25C594 248.25 600.54 247.11 606.62 244.83C612.7 242.55 618.02 239.3 622.56 235.09C627.11 230.88 630.63 225.91 633.12 220.19C635.61 214.47 636.86 208.26 636.86 201.55C636.86 194.84 635.61 188.52 633.12 182.84C630.63 177.16 627.1 172.22 622.56 168.01L622.55 168.03ZM613.17 213.24C611.73 216.72 609.69 219.78 607.07 222.4C604.45 225.02 601.4 227.04 597.95 228.46C594.49 229.88 590.71 230.59 586.6 230.59C582.49 230.59 578.68 229.88 575.18 228.46C571.68 227.04 568.64 225.02 566.06 222.4C563.48 219.78 561.47 216.72 560.02 213.24C558.58 209.76 557.85 205.87 557.85 201.57C557.85 197.27 558.57 193.38 560.02 189.9C561.46 186.42 563.48 183.37 566.06 180.74C568.64 178.12 571.68 176.1 575.18 174.68C578.68 173.26 582.48 172.55 586.6 172.55C590.72 172.55 594.49 173.26 597.95 174.68C601.41 176.1 604.45 178.12 607.07 180.74C609.69 183.36 611.73 186.42 613.17 189.9C614.61 193.38 615.34 197.28 615.34 201.57C615.34 205.86 614.62 209.76 613.17 213.24Z" fill="#007096"/>
<path d="M622.55 168.03C618 163.82 612.69 160.57 606.61 158.29C600.53 156.01 593.86 154.87 586.6 154.87C579.34 154.87 572.67 156.03 566.59 158.35C560.51 160.67 555.19 163.94 550.65 168.15C546.1 172.36 542.58 177.29 540.09 182.92C537.6 188.55 536.35 194.77 536.35 201.56C536.35 208.35 537.6 214.46 540.09 220.14C542.58 225.82 546.1 230.76 550.65 234.97C555.2 239.18 560.54 242.45 566.66 244.77C572.78 247.09 579.48 248.25 586.74 248.25C594 248.25 600.54 247.11 606.62 244.83C612.7 242.55 618.02 239.3 622.56 235.09C627.11 230.88 630.63 225.91 633.12 220.19C635.61 214.47 636.86 208.26 636.86 201.55C636.86 194.84 635.61 188.52 633.12 182.84C630.63 177.16 627.1 172.22 622.56 168.01L622.55 168.03ZM613.17 213.24C611.73 216.72 609.69 219.78 607.07 222.4C604.45 225.02 601.4 227.04 597.95 228.46C594.49 229.88 590.71 230.59 586.6 230.59C582.49 230.59 578.68 229.88 575.18 228.46C571.68 227.04 568.64 225.02 566.06 222.4C563.48 219.78 561.47 216.72 560.02 213.24C558.58 209.76 557.85 205.87 557.85 201.57C557.85 197.27 558.57 193.38 560.02 189.9C561.46 186.42 563.48 183.37 566.06 180.74C568.64 178.12 571.68 176.1 575.18 174.68C578.68 173.26 582.48 172.55 586.6 172.55C590.72 172.55 594.49 173.26 597.95 174.68C601.41 176.1 604.45 178.12 607.07 180.74C609.69 183.36 611.73 186.42 613.17 189.9C614.61 193.38 615.34 197.28 615.34 201.57C615.34 205.86 614.62 209.76 613.17 213.24Z" fill="url(#paint44_linear_1_2677)"/>
<path d="M664.94 181.7L673.47 191.93V181.7H664.94Z" fill="#007096"/>
<path d="M664.94 181.7L673.47 191.93V181.7H664.94Z" fill="url(#paint45_linear_1_2677)"/>
<path d="M724.26 221.43L715.73 211.2V221.43H724.26Z" fill="#007096"/>
<path d="M724.26 221.43L715.73 211.2V221.43H724.26Z" fill="url(#paint46_linear_1_2677)"/>
<path d="M715.73 211.2L724.26 221.43H715.73V211.2L670.06 156.42H652.47V246.72H673.47V191.93L664.94 181.7H673.47V191.93L719.14 246.72H736.72V156.42H715.73V211.2Z" fill="#007096"/>
<path d="M715.73 211.2L724.26 221.43H715.73V211.2L670.06 156.42H652.47V246.72H673.47V191.93L664.94 181.7H673.47V191.93L719.14 246.72H736.72V156.42H715.73V211.2Z" fill="url(#paint47_linear_1_2677)"/>
<path d="M782.73 211.5L776.01 227.37H818.56L811.85 211.5H782.73Z" fill="#007096"/>
<path d="M782.73 211.5L776.01 227.37H818.56L811.85 211.5H782.73Z" fill="url(#paint48_linear_1_2677)"/>
<path d="M819.53 211.5H811.85L818.56 227.37H825.04L819.53 211.5Z" fill="#007096"/>
<path d="M819.53 211.5H811.85L818.56 227.37H825.04L819.53 211.5Z" fill="url(#paint49_linear_1_2677)"/>
<path d="M786.86 156.42L746.04 246.72H767.83L776.01 227.37H766.65L772.03 211.5H782.73L797.29 177.08L793.02 166.99H801.55L797.29 177.08L811.85 211.5H819.53L825.04 227.37H818.56L826.75 246.72H849.06L807.85 156.42H786.86Z" fill="#007096"/>
<path d="M786.86 156.42L746.04 246.72H767.83L776.01 227.37H766.65L772.03 211.5H782.73L797.29 177.08L793.02 166.99H801.55L797.29 177.08L811.85 211.5H819.53L825.04 227.37H818.56L826.75 246.72H849.06L807.85 156.42H786.86Z" fill="url(#paint50_linear_1_2677)"/>
<path d="M772.03 211.5L766.65 227.37H776.01L782.73 211.5H772.03Z" fill="#007096"/>
<path d="M772.03 211.5L766.65 227.37H776.01L782.73 211.5H772.03Z" fill="url(#paint51_linear_1_2677)"/>
<path d="M793.02 166.99L797.29 177.08L801.55 166.99H793.02Z" fill="#007096"/>
<path d="M793.02 166.99L797.29 177.08L801.55 166.99H793.02Z" fill="url(#paint52_linear_1_2677)"/>
<path d="M879.64 156.42H858.25V246.72H879.64V156.42Z" fill="#007096"/>
<path d="M879.64 156.42H858.25V246.72H879.64V156.42Z" fill="url(#paint53_linear_1_2677)"/>
<path d="M959.17 213.95L961.8 217.68C961.8 217.68 961.89 217.65 961.93 217.63C967.88 215.09 972.47 211.4 975.71 206.54C978.95 201.68 980.57 195.86 980.57 189.06C980.57 178.91 977.03 170.94 969.94 165.13C962.85 159.32 952.92 156.42 940.15 156.42H900.91V246.72H922.3V221.44H912.59L921.11 213.52L912.59 204.8H922.3V173.45H912.59L922.3 163.52V173.45H939.49C945.96 173.45 950.86 174.8 954.19 177.51C957.51 180.22 959.18 184.07 959.18 189.06C959.18 194.05 957.52 197.92 954.19 200.67C950.86 203.42 945.97 204.8 939.49 204.8H922.3V221.44H940.67C940.99 221.44 941.29 221.43 941.6 221.42L936.34 213.96H959.17V213.95Z" fill="#007096"/>
<path d="M959.17 213.95L961.8 217.68C961.8 217.68 961.89 217.65 961.93 217.63C967.88 215.09 972.47 211.4 975.71 206.54C978.95 201.68 980.57 195.86 980.57 189.06C980.57 178.91 977.03 170.94 969.94 165.13C962.85 159.32 952.92 156.42 940.15 156.42H900.91V246.72H922.3V221.44H912.59L921.11 213.52L912.59 204.8H922.3V173.45H912.59L922.3 163.52V173.45H939.49C945.96 173.45 950.86 174.8 954.19 177.51C957.51 180.22 959.18 184.07 959.18 189.06C959.18 194.05 957.52 197.92 954.19 200.67C950.86 203.42 945.97 204.8 939.49 204.8H922.3V221.44H940.67C940.99 221.44 941.29 221.43 941.6 221.42L936.34 213.96H959.17V213.95Z" fill="url(#paint54_linear_1_2677)"/>
<path d="M921.1 213.51L912.58 221.43H922.29V214.72L921.1 213.51Z" fill="#007096"/>
<path d="M921.1 213.51L912.58 221.43H922.29V214.72L921.1 213.51Z" fill="url(#paint55_linear_1_2677)"/>
<path d="M959.17 213.95H936.34L941.6 221.41C949.37 221.32 956.1 220.08 961.8 217.67L959.17 213.94V213.95Z" fill="#007096"/>
<path d="M959.17 213.95H936.34L941.6 221.41C949.37 221.32 956.1 220.08 961.8 217.67L959.17 213.94V213.95Z" fill="url(#paint56_linear_1_2677)"/>
<path d="M941.59 221.41L959.43 246.71H982.26L961.79 217.67C956.1 220.08 949.36 221.31 941.59 221.41Z" fill="#007096"/>
<path d="M941.59 221.41L959.43 246.71H982.26L961.79 217.67C956.1 220.08 949.36 221.31 941.59 221.41Z" fill="url(#paint57_linear_1_2677)"/>
<path d="M922.29 212.4L921.1 213.51L922.29 214.72V212.4Z" fill="#007096"/>
<path d="M922.29 212.4L921.1 213.51L922.29 214.72V212.4Z" fill="url(#paint58_linear_1_2677)"/>
<path d="M912.58 173.44H922.29V163.51L912.58 173.44Z" fill="#007096"/>
<path d="M912.58 173.44H922.29V163.51L912.58 173.44Z" fill="url(#paint59_linear_1_2677)"/>
<path d="M922.29 204.79H912.58L921.1 213.51L922.29 212.4V204.79Z" fill="#007096"/>
<path d="M922.29 204.79H912.58L921.1 213.51L922.29 212.4V204.79Z" fill="url(#paint60_linear_1_2677)"/>
<path d="M1018.09 209.05H1016.52V192.67H1018.09V173.19H1066.38V156.42H996.96V246.72H1068.09V229.95H1018.09V209.05Z" fill="#007096"/>
<path d="M1018.09 209.05H1016.52V192.67H1018.09V173.19H1066.38V156.42H996.96V246.72H1068.09V229.95H1018.09V209.05Z" fill="url(#paint61_linear_1_2677)"/>
<path d="M1060.74 192.67H1018.09V209.05H1060.74V192.67Z" fill="#007096"/>
<path d="M1060.74 192.67H1018.09V209.05H1060.74V192.67Z" fill="url(#paint62_linear_1_2677)"/>
<path d="M1018.1 192.67H1016.52V209.05H1018.1V192.67Z" fill="#007096"/>
<path d="M1018.1 192.67H1016.52V209.05H1018.1V192.67Z" fill="url(#paint63_linear_1_2677)"/>
<path d="M1143.16 201.11C1140.01 199.26 1136.55 197.74 1132.79 196.53C1129.03 195.33 1125.22 194.32 1121.37 193.5C1117.52 192.68 1114.02 191.87 1110.87 191.05C1107.72 190.23 1105.18 189.09 1103.26 187.63C1101.34 186.17 1100.37 184.23 1100.37 181.82C1100.37 179.93 1100.96 178.21 1102.14 176.66C1103.32 175.11 1105.18 173.89 1107.72 172.98C1110.26 172.08 1113.63 171.63 1117.83 171.63C1122.03 171.63 1126.05 172.21 1130.43 173.37C1134.8 174.53 1139.05 176.27 1143.16 178.59L1149.85 162.85C1145.65 160.27 1140.73 158.29 1135.09 156.92C1129.45 155.55 1123.74 154.86 1117.96 154.86C1109.3 154.86 1102.1 156.13 1096.37 158.67C1090.64 161.21 1086.37 164.6 1083.58 168.86C1080.78 173.12 1079.38 177.83 1079.38 182.99C1079.38 187.72 1080.32 191.66 1082.2 194.79C1084.08 197.93 1086.62 200.47 1089.81 202.4C1093 204.34 1096.5 205.88 1100.31 207.04C1104.12 208.2 1107.9 209.19 1111.66 210.01C1115.42 210.83 1118.9 211.69 1122.09 212.59C1125.28 213.49 1127.84 214.65 1129.77 216.07C1131.69 217.49 1132.66 219.4 1132.66 221.81C1132.66 223.7 1132.05 225.36 1130.82 226.78C1129.59 228.2 1127.69 229.34 1125.11 230.2C1122.53 231.06 1119.14 231.49 1114.94 231.49C1109.43 231.49 1103.96 230.61 1098.54 228.85C1093.11 227.09 1088.48 224.83 1084.63 222.08L1077.41 237.82C1081.52 240.92 1086.97 243.43 1093.75 245.37C1100.53 247.3 1107.59 248.27 1114.94 248.27C1123.6 248.27 1130.82 246.98 1136.59 244.4C1142.36 241.82 1146.67 238.42 1149.52 234.21C1152.36 230 1153.78 225.35 1153.78 220.28C1153.78 215.64 1152.8 211.75 1150.83 208.61C1148.86 205.47 1146.3 202.98 1143.15 201.13L1143.16 201.11Z" fill="#007096"/>
<path d="M1143.16 201.11C1140.01 199.26 1136.55 197.74 1132.79 196.53C1129.03 195.33 1125.22 194.32 1121.37 193.5C1117.52 192.68 1114.02 191.87 1110.87 191.05C1107.72 190.23 1105.18 189.09 1103.26 187.63C1101.34 186.17 1100.37 184.23 1100.37 181.82C1100.37 179.93 1100.96 178.21 1102.14 176.66C1103.32 175.11 1105.18 173.89 1107.72 172.98C1110.26 172.08 1113.63 171.63 1117.83 171.63C1122.03 171.63 1126.05 172.21 1130.43 173.37C1134.8 174.53 1139.05 176.27 1143.16 178.59L1149.85 162.85C1145.65 160.27 1140.73 158.29 1135.09 156.92C1129.45 155.55 1123.74 154.86 1117.96 154.86C1109.3 154.86 1102.1 156.13 1096.37 158.67C1090.64 161.21 1086.37 164.6 1083.58 168.86C1080.78 173.12 1079.38 177.83 1079.38 182.99C1079.38 187.72 1080.32 191.66 1082.2 194.79C1084.08 197.93 1086.62 200.47 1089.81 202.4C1093 204.34 1096.5 205.88 1100.31 207.04C1104.12 208.2 1107.9 209.19 1111.66 210.01C1115.42 210.83 1118.9 211.69 1122.09 212.59C1125.28 213.49 1127.84 214.65 1129.77 216.07C1131.69 217.49 1132.66 219.4 1132.66 221.81C1132.66 223.7 1132.05 225.36 1130.82 226.78C1129.59 228.2 1127.69 229.34 1125.11 230.2C1122.53 231.06 1119.14 231.49 1114.94 231.49C1109.43 231.49 1103.96 230.61 1098.54 228.85C1093.11 227.09 1088.48 224.83 1084.63 222.08L1077.41 237.82C1081.52 240.92 1086.97 243.43 1093.75 245.37C1100.53 247.3 1107.59 248.27 1114.94 248.27C1123.6 248.27 1130.82 246.98 1136.59 244.4C1142.36 241.82 1146.67 238.42 1149.52 234.21C1152.36 230 1153.78 225.35 1153.78 220.28C1153.78 215.64 1152.8 211.75 1150.83 208.61C1148.86 205.47 1146.3 202.98 1143.15 201.13L1143.16 201.11Z" fill="url(#paint64_linear_1_2677)"/>
<path d="M1176.88 222.59C1173.38 222.59 1170.38 223.75 1167.89 226.07C1165.4 228.39 1164.15 231.45 1164.15 235.23C1164.15 239.01 1165.4 241.83 1167.89 244.2C1170.38 246.57 1173.38 247.75 1176.88 247.75C1180.38 247.75 1183.49 246.57 1185.94 244.2C1188.39 241.84 1189.61 238.85 1189.61 235.23C1189.61 231.61 1188.38 228.39 1185.94 226.07C1183.49 223.75 1180.47 222.59 1176.88 222.59Z" fill="#007096"/>
<path d="M1176.88 222.59C1173.38 222.59 1170.38 223.75 1167.89 226.07C1165.4 228.39 1164.15 231.45 1164.15 235.23C1164.15 239.01 1165.4 241.83 1167.89 244.2C1170.38 246.57 1173.38 247.75 1176.88 247.75C1180.38 247.75 1183.49 246.57 1185.94 244.2C1188.39 241.84 1189.61 238.85 1189.61 235.23C1189.61 231.61 1188.38 228.39 1185.94 226.07C1183.49 223.75 1180.47 222.59 1176.88 222.59Z" fill="url(#paint65_linear_1_2677)"/>
<defs>
<linearGradient id="paint0_linear_1_2677" x1="-12.24" y1="61.5101" x2="1375.84" y2="61.5101" gradientUnits="userSpaceOnUse">
<stop stop-color="#0097A4"/>
<stop offset="1" stop-color="#005E8F"/>
</linearGradient>
<linearGradient id="paint1_linear_1_2677" x1="-12.24" y1="46.7701" x2="1375.84" y2="46.7701" gradientUnits="userSpaceOnUse">
<stop stop-color="#0097A4"/>
<stop offset="1" stop-color="#005E8F"/>
</linearGradient>
<linearGradient id="paint2_linear_1_2677" x1="-12.24" y1="34.8602" x2="1375.84" y2="34.8602" gradientUnits="userSpaceOnUse">
<stop stop-color="#0097A4"/>
<stop offset="1" stop-color="#005E8F"/>
</linearGradient>
<linearGradient id="paint3_linear_1_2677" x1="-12.24" y1="46.7701" x2="1375.84" y2="46.7701" gradientUnits="userSpaceOnUse">
<stop stop-color="#0097A4"/>
<stop offset="1" stop-color="#005E8F"/>
</linearGradient>
<linearGradient id="paint4_linear_1_2677" x1="-12.2388" y1="61.5201" x2="1375.84" y2="61.5201" gradientUnits="userSpaceOnUse">
<stop stop-color="#0097A4"/>
<stop offset="1" stop-color="#005E8F"/>
</linearGradient>
<linearGradient id="paint5_linear_1_2677" x1="-12.2409" y1="32.0201" x2="1375.84" y2="32.0201" gradientUnits="userSpaceOnUse">
<stop stop-color="#0097A4"/>
<stop offset="1" stop-color="#005E8F"/>
</linearGradient>
<linearGradient id="paint6_linear_1_2677" x1="-12.24" y1="46.7701" x2="1375.84" y2="46.7701" gradientUnits="userSpaceOnUse">
<stop stop-color="#0097A4"/>
<stop offset="1" stop-color="#005E8F"/>
</linearGradient>
<linearGradient id="paint7_linear_1_2677" x1="-12.24" y1="46.7701" x2="1375.84" y2="46.7701" gradientUnits="userSpaceOnUse">
<stop stop-color="#0097A4"/>
<stop offset="1" stop-color="#005E8F"/>
</linearGradient>
<linearGradient id="paint8_linear_1_2677" x1="-12.2397" y1="46.0601" x2="1375.84" y2="46.0601" gradientUnits="userSpaceOnUse">
<stop stop-color="#0097A4"/>
<stop offset="1" stop-color="#005E8F"/>
</linearGradient>
<linearGradient id="paint9_linear_1_2677" x1="-12.2418" y1="46.0601" x2="1375.84" y2="46.0601" gradientUnits="userSpaceOnUse">
<stop stop-color="#0097A4"/>
<stop offset="1" stop-color="#005E8F"/>
</linearGradient>
<linearGradient id="paint10_linear_1_2677" x1="-12.2385" y1="61.34" x2="1375.84" y2="61.34" gradientUnits="userSpaceOnUse">
<stop stop-color="#0097A4"/>
<stop offset="1" stop-color="#005E8F"/>
</linearGradient>
<linearGradient id="paint11_linear_1_2677" x1="-12.2396" y1="46.8901" x2="1375.84" y2="46.8901" gradientUnits="userSpaceOnUse">
<stop stop-color="#0097A4"/>
<stop offset="1" stop-color="#005E8F"/>
</linearGradient>
<linearGradient id="paint12_linear_1_2677" x1="-12.2398" y1="46.7701" x2="1375.84" y2="46.7701" gradientUnits="userSpaceOnUse">
<stop stop-color="#0097A4"/>
<stop offset="1" stop-color="#005E8F"/>
</linearGradient>
<linearGradient id="paint13_linear_1_2677" x1="-12.2445" y1="61.34" x2="1375.85" y2="61.34" gradientUnits="userSpaceOnUse">
<stop stop-color="#0097A4"/>
<stop offset="1" stop-color="#005E8F"/>
</linearGradient>
<linearGradient id="paint14_linear_1_2677" x1="-12.2423" y1="35.1602" x2="1375.84" y2="35.1602" gradientUnits="userSpaceOnUse">
<stop stop-color="#0097A4"/>
<stop offset="1" stop-color="#005E8F"/>
</linearGradient>
<linearGradient id="paint15_linear_1_2677" x1="-12.2404" y1="61.5101" x2="1375.84" y2="61.5101" gradientUnits="userSpaceOnUse">
<stop stop-color="#0097A4"/>
<stop offset="1" stop-color="#005E8F"/>
</linearGradient>
<linearGradient id="paint16_linear_1_2677" x1="-12.2399" y1="46.7701" x2="1375.84" y2="46.7701" gradientUnits="userSpaceOnUse">
<stop stop-color="#0097A4"/>
<stop offset="1" stop-color="#005E8F"/>
</linearGradient>
<linearGradient id="paint17_linear_1_2677" x1="-12.2404" y1="34.8602" x2="1375.84" y2="34.8602" gradientUnits="userSpaceOnUse">
<stop stop-color="#0097A4"/>
<stop offset="1" stop-color="#005E8F"/>
</linearGradient>
<linearGradient id="paint18_linear_1_2677" x1="-12.2401" y1="46.7701" x2="1375.84" y2="46.7701" gradientUnits="userSpaceOnUse">
<stop stop-color="#0097A4"/>
<stop offset="1" stop-color="#005E8F"/>
</linearGradient>
<linearGradient id="paint19_linear_1_2677" x1="-12.2401" y1="46.7701" x2="1375.84" y2="46.7701" gradientUnits="userSpaceOnUse">
<stop stop-color="#0097A4"/>
<stop offset="1" stop-color="#005E8F"/>
</linearGradient>
<linearGradient id="paint20_linear_1_2677" x1="-12.2412" y1="73.8501" x2="1375.84" y2="73.8501" gradientUnits="userSpaceOnUse">
<stop stop-color="#0097A4"/>
<stop offset="1" stop-color="#005E8F"/>
</linearGradient>
<linearGradient id="paint21_linear_1_2677" x1="-12.2852" y1="46.0601" x2="1375.86" y2="46.0601" gradientUnits="userSpaceOnUse">
<stop stop-color="#0097A4"/>
<stop offset="1" stop-color="#005E8F"/>
</linearGradient>
<linearGradient id="paint22_linear_1_2677" x1="-12.2401" y1="46.7701" x2="1375.84" y2="46.7701" gradientUnits="userSpaceOnUse">
<stop stop-color="#0097A4"/>
<stop offset="1" stop-color="#005E8F"/>
</linearGradient>
<linearGradient id="paint23_linear_1_2677" x1="-12.2405" y1="46.0601" x2="1375.84" y2="46.0601" gradientUnits="userSpaceOnUse">
<stop stop-color="#0097A4"/>
<stop offset="1" stop-color="#005E8F"/>
</linearGradient>
<linearGradient id="paint24_linear_1_2677" x1="-12.24" y1="46.7701" x2="1375.84" y2="46.7701" gradientUnits="userSpaceOnUse">
<stop stop-color="#0097A4"/>
<stop offset="1" stop-color="#005E8F"/>
</linearGradient>
<linearGradient id="paint25_linear_1_2677" x1="-12.2405" y1="50.64" x2="1375.84" y2="50.64" gradientUnits="userSpaceOnUse">
<stop stop-color="#0097A4"/>
<stop offset="1" stop-color="#005E8F"/>
</linearGradient>
<linearGradient id="paint26_linear_1_2677" x1="-12.2944" y1="50.64" x2="1375.85" y2="50.64" gradientUnits="userSpaceOnUse">
<stop stop-color="#0097A4"/>
<stop offset="1" stop-color="#005E8F"/>
</linearGradient>
<linearGradient id="paint27_linear_1_2677" x1="-12.2388" y1="46.7701" x2="1375.84" y2="46.7701" gradientUnits="userSpaceOnUse">
<stop stop-color="#0097A4"/>
<stop offset="1" stop-color="#005E8F"/>
</linearGradient>
<linearGradient id="paint28_linear_1_2677" x1="-12.2403" y1="46.7701" x2="1375.84" y2="46.7701" gradientUnits="userSpaceOnUse">
<stop stop-color="#0097A4"/>
<stop offset="1" stop-color="#005E8F"/>
</linearGradient>
<linearGradient id="paint29_linear_1_2677" x1="-12.2348" y1="62.67" x2="1375.84" y2="62.67" gradientUnits="userSpaceOnUse">
<stop stop-color="#0097A4"/>
<stop offset="1" stop-color="#005E8F"/>
</linearGradient>
<linearGradient id="paint30_linear_1_2677" x1="-12.238" y1="62.8801" x2="1375.84" y2="62.8801" gradientUnits="userSpaceOnUse">
<stop stop-color="#0097A4"/>
<stop offset="1" stop-color="#005E8F"/>
</linearGradient>
<linearGradient id="paint31_linear_1_2677" x1="-12.1753" y1="58.7601" x2="1375.84" y2="58.7601" gradientUnits="userSpaceOnUse">
<stop stop-color="#0097A4"/>
<stop offset="1" stop-color="#005E8F"/>
</linearGradient>
<linearGradient id="paint32_linear_1_2677" x1="-12.2406" y1="46.7701" x2="1375.84" y2="46.7701" gradientUnits="userSpaceOnUse">
<stop stop-color="#0097A4"/>
<stop offset="1" stop-color="#005E8F"/>
</linearGradient>
<linearGradient id="paint33_linear_1_2677" x1="-12.2415" y1="77.4001" x2="1375.84" y2="77.4001" gradientUnits="userSpaceOnUse">
<stop stop-color="#0097A4"/>
<stop offset="1" stop-color="#005E8F"/>
</linearGradient>
<linearGradient id="paint34_linear_1_2677" x1="-12.2348" y1="13.68" x2="1375.84" y2="13.68" gradientUnits="userSpaceOnUse">
<stop stop-color="#0097A4"/>
<stop offset="1" stop-color="#005E8F"/>
</linearGradient>
<linearGradient id="paint35_linear_1_2677" x1="-12.2348" y1="54.35" x2="1375.84" y2="54.35" gradientUnits="userSpaceOnUse">
<stop stop-color="#0097A4"/>
<stop offset="1" stop-color="#005E8F"/>
</linearGradient>
<linearGradient id="paint36_linear_1_2677" x1="-12.2402" y1="216.31" x2="1375.84" y2="216.31" gradientUnits="userSpaceOnUse">
<stop stop-color="#0097A4"/>
<stop offset="1" stop-color="#005E8F"/>
</linearGradient>
<linearGradient id="paint37_linear_1_2677" x1="-12.2408" y1="189.96" x2="1375.84" y2="189.96" gradientUnits="userSpaceOnUse">
<stop stop-color="#0097A4"/>
<stop offset="1" stop-color="#005E8F"/>
</linearGradient>
<linearGradient id="paint38_linear_1_2677" x1="-12.24" y1="201.57" x2="1375.84" y2="201.57" gradientUnits="userSpaceOnUse">
<stop stop-color="#0097A4"/>
<stop offset="1" stop-color="#005E8F"/>
</linearGradient>
<linearGradient id="paint39_linear_1_2677" x1="-12.2395" y1="189.66" x2="1375.84" y2="189.66" gradientUnits="userSpaceOnUse">
<stop stop-color="#0097A4"/>
<stop offset="1" stop-color="#005E8F"/>
</linearGradient>
<linearGradient id="paint40_linear_1_2677" x1="-12.2402" y1="201.57" x2="1375.84" y2="201.57" gradientUnits="userSpaceOnUse">
<stop stop-color="#0097A4"/>
<stop offset="1" stop-color="#005E8F"/>
</linearGradient>
<linearGradient id="paint41_linear_1_2677" x1="-12.24" y1="201.57" x2="1375.84" y2="201.57" gradientUnits="userSpaceOnUse">
<stop stop-color="#0097A4"/>
<stop offset="1" stop-color="#005E8F"/>
</linearGradient>
<linearGradient id="paint42_linear_1_2677" x1="-12.24" y1="201.57" x2="1375.84" y2="201.57" gradientUnits="userSpaceOnUse">
<stop stop-color="#0097A4"/>
<stop offset="1" stop-color="#005E8F"/>
</linearGradient>
<linearGradient id="paint43_linear_1_2677" x1="-12.2403" y1="201.57" x2="1375.84" y2="201.57" gradientUnits="userSpaceOnUse">
<stop stop-color="#0097A4"/>
<stop offset="1" stop-color="#005E8F"/>
</linearGradient>
<linearGradient id="paint44_linear_1_2677" x1="-12.2401" y1="201.57" x2="1375.84" y2="201.57" gradientUnits="userSpaceOnUse">
<stop stop-color="#0097A4"/>
<stop offset="1" stop-color="#005E8F"/>
</linearGradient>
<linearGradient id="paint45_linear_1_2677" x1="-12.2375" y1="186.82" x2="1375.84" y2="186.82" gradientUnits="userSpaceOnUse">
<stop stop-color="#0097A4"/>
<stop offset="1" stop-color="#005E8F"/>
</linearGradient>
<linearGradient id="paint46_linear_1_2677" x1="-12.2426" y1="216.32" x2="1375.84" y2="216.32" gradientUnits="userSpaceOnUse">
<stop stop-color="#0097A4"/>
<stop offset="1" stop-color="#005E8F"/>
</linearGradient>
<linearGradient id="paint47_linear_1_2677" x1="-12.24" y1="201.57" x2="1375.84" y2="201.57" gradientUnits="userSpaceOnUse">
<stop stop-color="#0097A4"/>
<stop offset="1" stop-color="#005E8F"/>
</linearGradient>
<linearGradient id="paint48_linear_1_2677" x1="-12.2409" y1="219.43" x2="1375.84" y2="219.43" gradientUnits="userSpaceOnUse">
<stop stop-color="#0097A4"/>
<stop offset="1" stop-color="#005E8F"/>
</linearGradient>
<linearGradient id="paint49_linear_1_2677" x1="-12.244" y1="219.43" x2="1375.84" y2="219.43" gradientUnits="userSpaceOnUse">
<stop stop-color="#0097A4"/>
<stop offset="1" stop-color="#005E8F"/>
</linearGradient>
<linearGradient id="paint50_linear_1_2677" x1="-12.2401" y1="201.57" x2="1375.84" y2="201.57" gradientUnits="userSpaceOnUse">
<stop stop-color="#0097A4"/>
<stop offset="1" stop-color="#005E8F"/>
</linearGradient>
<linearGradient id="paint51_linear_1_2677" x1="-12.2378" y1="219.43" x2="1375.84" y2="219.43" gradientUnits="userSpaceOnUse">
<stop stop-color="#0097A4"/>
<stop offset="1" stop-color="#005E8F"/>
</linearGradient>
<linearGradient id="paint52_linear_1_2677" x1="-12.2428" y1="172.03" x2="1375.84" y2="172.03" gradientUnits="userSpaceOnUse">
<stop stop-color="#0097A4"/>
<stop offset="1" stop-color="#005E8F"/>
</linearGradient>
<linearGradient id="paint53_linear_1_2677" x1="-12.2406" y1="201.57" x2="1375.84" y2="201.57" gradientUnits="userSpaceOnUse">
<stop stop-color="#0097A4"/>
<stop offset="1" stop-color="#005E8F"/>
</linearGradient>
<linearGradient id="paint54_linear_1_2677" x1="-12.239" y1="201.57" x2="1375.84" y2="201.57" gradientUnits="userSpaceOnUse">
<stop stop-color="#0097A4"/>
<stop offset="1" stop-color="#005E8F"/>
</linearGradient>
<linearGradient id="paint55_linear_1_2677" x1="-12.248" y1="217.47" x2="1375.84" y2="217.47" gradientUnits="userSpaceOnUse">
<stop stop-color="#0097A4"/>
<stop offset="1" stop-color="#005E8F"/>
</linearGradient>
<linearGradient id="paint56_linear_1_2677" x1="-12.2431" y1="217.68" x2="1375.84" y2="217.68" gradientUnits="userSpaceOnUse">
<stop stop-color="#0097A4"/>
<stop offset="1" stop-color="#005E8F"/>
</linearGradient>
<linearGradient id="paint57_linear_1_2677" x1="-12.2411" y1="232.2" x2="1375.84" y2="232.2" gradientUnits="userSpaceOnUse">
<stop stop-color="#0097A4"/>
<stop offset="1" stop-color="#005E8F"/>
</linearGradient>
<linearGradient id="paint58_linear_1_2677" x1="-12.2898" y1="213.56" x2="1375.86" y2="213.56" gradientUnits="userSpaceOnUse">
<stop stop-color="#0097A4"/>
<stop offset="1" stop-color="#005E8F"/>
</linearGradient>
<linearGradient id="paint59_linear_1_2677" x1="-12.248" y1="168.48" x2="1375.84" y2="168.48" gradientUnits="userSpaceOnUse">
<stop stop-color="#0097A4"/>
<stop offset="1" stop-color="#005E8F"/>
</linearGradient>
<linearGradient id="paint60_linear_1_2677" x1="-12.248" y1="209.15" x2="1375.84" y2="209.15" gradientUnits="userSpaceOnUse">
<stop stop-color="#0097A4"/>
<stop offset="1" stop-color="#005E8F"/>
</linearGradient>
<linearGradient id="paint61_linear_1_2677" x1="-12.2401" y1="201.57" x2="1375.84" y2="201.57" gradientUnits="userSpaceOnUse">
<stop stop-color="#0097A4"/>
<stop offset="1" stop-color="#005E8F"/>
</linearGradient>
<linearGradient id="paint62_linear_1_2677" x1="-12.2406" y1="200.86" x2="1375.84" y2="200.86" gradientUnits="userSpaceOnUse">
<stop stop-color="#0097A4"/>
<stop offset="1" stop-color="#005E8F"/>
</linearGradient>
<linearGradient id="paint63_linear_1_2677" x1="-12.2113" y1="200.86" x2="1375.83" y2="200.86" gradientUnits="userSpaceOnUse">
<stop stop-color="#0097A4"/>
<stop offset="1" stop-color="#005E8F"/>
</linearGradient>
<linearGradient id="paint64_linear_1_2677" x1="-12.24" y1="201.57" x2="1375.84" y2="201.57" gradientUnits="userSpaceOnUse">
<stop stop-color="#0097A4"/>
<stop offset="1" stop-color="#005E8F"/>
</linearGradient>
<linearGradient id="paint65_linear_1_2677" x1="-12.2382" y1="235.17" x2="1375.84" y2="235.17" gradientUnits="userSpaceOnUse">
<stop stop-color="#0097A4"/>
<stop offset="1" stop-color="#005E8F"/>
</linearGradient>
</defs>
</svg>
