<svg width="715" height="74" viewBox="0 0 715 74" fill="none" xmlns="http://www.w3.org/2000/svg">
<path d="M67.23 10.83C63.76 7.55996 59.6601 5.02998 54.9301 3.22998C50.2001 1.42998 45.0301 0.530029 39.4301 0.530029C33.8301 0.530029 28.6601 1.42998 23.9301 3.22998C19.2001 5.02998 15.1 7.58 11.63 10.88C8.16 14.18 5.44998 18.0301 3.47998 22.4301C1.50998 26.8301 0.530029 31.63 0.530029 36.83C0.530029 42.03 1.50998 46.94 3.47998 51.38C5.44998 55.81 8.16 59.68 11.63 62.98C15.1 66.28 19.21 68.83 23.98 70.63C28.75 72.43 33.9001 73.33 39.4301 73.33C44.9601 73.33 50.2001 72.43 54.9301 70.63C59.6601 68.83 63.78 66.29 67.28 63.03C70.78 59.76 73.5001 55.91 75.4301 51.48C77.3601 47.04 78.33 42.16 78.33 36.83C78.33 31.5 77.35 26.73 75.38 22.33C73.41 17.93 70.7 14.09 67.23 10.83ZM56.87 45.1801C55.9 47.6101 54.57 49.71 52.87 51.48C51.17 53.24 49.17 54.59 46.87 55.53C44.57 56.46 42.09 56.9301 39.42 56.9301C36.75 56.9301 34.27 56.46 31.97 55.53C29.67 54.59 27.65 53.24 25.92 51.48C24.19 49.71 22.85 47.6101 21.92 45.1801C20.99 42.7401 20.52 39.9901 20.52 36.9301C20.52 33.8701 20.99 31.1101 21.92 28.6801C22.85 26.2401 24.19 24.14 25.92 22.38C27.65 20.61 29.67 19.26 31.97 18.33C34.27 17.39 36.75 16.9301 39.42 16.9301C42.09 16.9301 44.57 17.39 46.87 18.33C49.17 19.26 51.17 20.61 52.87 22.38C54.57 24.14 55.9 26.2401 56.87 28.6801C57.84 31.1101 58.3199 33.8601 58.3199 36.9301C58.3199 40.0001 57.84 42.7401 56.87 45.1801Z" fill="url(#paint0_linear_1_3097)"/>
<path d="M134.32 40.2301C134.32 46.1601 133.17 50.4302 130.87 53.0302C128.57 55.6301 125.35 56.9302 121.22 56.9302C117.09 56.9302 113.85 55.6301 111.52 53.0302C109.19 50.4302 108.02 46.1601 108.02 40.2301V1.93018H88.22V40.8301C88.22 51.1601 91.1 59.1601 96.87 64.8301C102.64 70.4901 110.69 73.3301 121.02 73.3301C131.35 73.3301 139.34 70.4901 145.17 64.8301C151 59.1601 153.92 51.1601 153.92 40.8301V1.93018H134.32V40.2301Z" fill="url(#paint1_linear_1_3097)"/>
<path d="M226.68 41.5302C229.18 37.7302 230.43 33.1301 230.43 27.7301C230.43 19.7301 227.7 13.4301 222.23 8.83008C216.76 4.23008 208.9 1.93018 198.63 1.93018H167.43V71.9302H187.23V53.3301H197.94L210.63 71.9302H231.83L216.72 49.9202C221 47.9102 224.32 45.1102 226.68 41.5302ZM207.43 35.3301C205.36 37.1301 202.26 38.0302 198.13 38.0302H187.23V17.5302H198.13C202.26 17.5302 205.36 18.4402 207.43 20.2802C209.5 22.1102 210.53 24.5901 210.53 27.7301C210.53 30.8701 209.5 33.5301 207.43 35.3301Z" fill="url(#paint2_linear_1_3097)"/>
<path d="M335.43 1.93018L311.37 42.3701L286.82 1.93018H270.52V71.9302H288.73V35.8301L306.62 65.0302H315.43L333.45 34.7902L333.62 71.9302H351.82L351.73 1.93018H335.43Z" fill="url(#paint3_linear_1_3097)"/>
<path d="M385.73 1.93018H365.93V71.9302H385.73V1.93018Z" fill="url(#paint4_linear_1_3097)"/>
<path d="M447.48 35.6801C445.11 34.1801 442.53 32.98 439.73 32.08C436.93 31.18 434.11 30.43 431.28 29.83C428.45 29.23 425.86 28.64 423.53 28.08C421.2 27.51 419.3 26.78 417.83 25.88C416.36 24.98 415.63 23.73 415.63 22.13C415.63 21.06 416 20.06 416.73 19.13C417.46 18.19 418.66 17.43 420.33 16.83C422 16.23 424.2 15.9301 426.93 15.9301C430 15.9301 433.16 16.36 436.43 17.23C439.7 18.09 443 19.46 446.33 21.33L452.33 6.72998C448.93 4.65998 445.01 3.10996 440.58 2.07996C436.15 1.03996 431.63 0.530029 427.03 0.530029C420.16 0.530029 414.43 1.56 409.83 3.63C405.23 5.69 401.8 8.42996 399.53 11.83C397.26 15.23 396.13 18.99 396.13 23.13C396.13 26.86 396.85 29.9601 398.28 32.4301C399.71 34.8901 401.6 36.8901 403.93 38.4301C406.26 39.9601 408.86 41.19 411.73 42.13C414.6 43.06 417.41 43.81 420.18 44.38C422.95 44.94 425.51 45.5401 427.88 46.1801C430.25 46.8101 432.16 47.58 433.63 48.48C435.1 49.38 435.83 50.59 435.83 52.13C435.83 53.33 435.45 54.36 434.68 55.23C433.91 56.09 432.71 56.76 431.08 57.23C429.45 57.69 427.23 57.9301 424.43 57.9301C420.36 57.9301 416.28 57.28 412.18 55.98C408.08 54.68 404.46 53.03 401.33 51.03L394.83 65.73C398.1 67.93 402.38 69.7401 407.68 71.1801C412.98 72.6101 418.53 73.33 424.33 73.33C431.26 73.33 437.03 72.29 441.63 70.23C446.23 68.16 449.68 65.41 451.98 61.98C454.28 58.54 455.43 54.79 455.43 50.73C455.43 47.06 454.7 44.01 453.23 41.58C451.76 39.14 449.85 37.1801 447.48 35.6801Z" fill="url(#paint5_linear_1_3097)"/>
<path d="M512.18 35.6801C509.81 34.1801 507.23 32.98 504.43 32.08C501.63 31.18 498.81 30.43 495.98 29.83C493.15 29.23 490.56 28.64 488.23 28.08C485.9 27.51 484 26.78 482.53 25.88C481.06 24.98 480.33 23.73 480.33 22.13C480.33 21.06 480.7 20.06 481.43 19.13C482.16 18.19 483.36 17.43 485.03 16.83C486.7 16.23 488.9 15.9301 491.63 15.9301C494.7 15.9301 497.86 16.36 501.13 17.23C504.4 18.09 507.7 19.46 511.03 21.33L517.03 6.72998C513.63 4.65998 509.71 3.10996 505.28 2.07996C500.85 1.03996 496.33 0.530029 491.73 0.530029C484.86 0.530029 479.13 1.56 474.53 3.63C469.93 5.69 466.5 8.42996 464.23 11.83C461.96 15.23 460.83 18.99 460.83 23.13C460.83 26.86 461.55 29.9601 462.98 32.4301C464.41 34.8901 466.3 36.8901 468.63 38.4301C470.96 39.9601 473.56 41.19 476.43 42.13C479.3 43.06 482.11 43.81 484.88 44.38C487.65 44.94 490.21 45.5401 492.58 46.1801C494.95 46.8101 496.86 47.58 498.33 48.48C499.8 49.38 500.53 50.59 500.53 52.13C500.53 53.33 500.15 54.36 499.38 55.23C498.61 56.09 497.41 56.76 495.78 57.23C494.15 57.69 491.93 57.9301 489.13 57.9301C485.06 57.9301 480.98 57.28 476.88 55.98C472.78 54.68 469.16 53.03 466.03 51.03L459.53 65.73C462.8 67.93 467.08 69.7401 472.38 71.1801C477.68 72.6101 483.23 73.33 489.03 73.33C495.96 73.33 501.73 72.29 506.33 70.23C510.93 68.16 514.38 65.41 516.68 61.98C518.98 58.54 520.13 54.79 520.13 50.73C520.13 47.06 519.4 44.01 517.93 41.58C516.46 39.14 514.55 37.1801 512.18 35.6801Z" fill="url(#paint6_linear_1_3097)"/>
<path d="M549.03 1.93018H529.23V71.9302H549.03V1.93018Z" fill="url(#paint7_linear_1_3097)"/>
<path d="M626.12 10.83C622.65 7.55996 618.55 5.02998 613.82 3.22998C609.09 1.42998 603.92 0.530029 598.32 0.530029C592.72 0.530029 587.55 1.42998 582.82 3.22998C578.09 5.02998 573.99 7.58 570.52 10.88C567.05 14.18 564.34 18.0301 562.37 22.4301C560.4 26.8301 559.42 31.63 559.42 36.83C559.42 42.03 560.4 46.94 562.37 51.38C564.34 55.81 567.05 59.68 570.52 62.98C573.99 66.28 578.1 68.83 582.87 70.63C587.64 72.43 592.79 73.33 598.32 73.33C603.85 73.33 609.09 72.43 613.82 70.63C618.55 68.83 622.67 66.29 626.17 63.03C629.67 59.76 632.39 55.91 634.32 51.48C636.25 47.04 637.22 42.16 637.22 36.83C637.22 31.5 636.24 26.73 634.27 22.33C632.3 17.93 629.59 14.09 626.12 10.83ZM615.77 45.1801C614.8 47.6101 613.47 49.71 611.77 51.48C610.07 53.24 608.07 54.59 605.77 55.53C603.47 56.46 600.99 56.9301 598.32 56.9301C595.65 56.9301 593.17 56.46 590.87 55.53C588.57 54.59 586.55 53.24 584.82 51.48C583.09 49.71 581.75 47.6101 580.82 45.1801C579.89 42.7401 579.42 39.9901 579.42 36.9301C579.42 33.8701 579.89 31.1101 580.82 28.6801C581.75 26.2401 583.09 24.14 584.82 22.38C586.55 20.61 588.57 19.26 590.87 18.33C593.17 17.39 595.65 16.9301 598.32 16.9301C600.99 16.9301 603.47 17.39 605.77 18.33C608.07 19.26 610.07 20.61 611.77 22.38C613.47 24.14 614.8 26.2401 615.77 28.6801C616.74 31.1101 617.22 33.8601 617.22 36.9301C617.22 40.0001 616.74 42.7401 615.77 45.1801Z" fill="url(#paint8_linear_1_3097)"/>
<path d="M694.82 39.2101L664.02 1.93018H647.73V71.9302H667.02V34.6301L697.93 71.9302H714.23V1.93018H694.82V39.2101Z" fill="url(#paint9_linear_1_3097)"/>
<defs>
<linearGradient id="paint0_linear_1_3097" x1="-51.0099" y1="36.93" x2="765.759" y2="36.93" gradientUnits="userSpaceOnUse">
<stop stop-color="#2AFFF0"/>
<stop offset="0.74" stop-color="#005E8F"/>
</linearGradient>
<linearGradient id="paint1_linear_1_3097" x1="-51.0102" y1="37.6301" x2="765.761" y2="37.6301" gradientUnits="userSpaceOnUse">
<stop stop-color="#2AFFF0"/>
<stop offset="0.74" stop-color="#005E8F"/>
</linearGradient>
<linearGradient id="paint2_linear_1_3097" x1="-51.0096" y1="36.9302" x2="765.759" y2="36.9302" gradientUnits="userSpaceOnUse">
<stop stop-color="#2AFFF0"/>
<stop offset="0.74" stop-color="#005E8F"/>
</linearGradient>
<linearGradient id="paint3_linear_1_3097" x1="-51.0097" y1="36.9302" x2="765.76" y2="36.9302" gradientUnits="userSpaceOnUse">
<stop stop-color="#2AFFF0"/>
<stop offset="0.74" stop-color="#005E8F"/>
</linearGradient>
<linearGradient id="paint4_linear_1_3097" x1="-51.0084" y1="36.9302" x2="765.759" y2="36.9302" gradientUnits="userSpaceOnUse">
<stop stop-color="#2AFFF0"/>
<stop offset="0.74" stop-color="#005E8F"/>
</linearGradient>
<linearGradient id="paint5_linear_1_3097" x1="-51.0108" y1="36.93" x2="765.761" y2="36.93" gradientUnits="userSpaceOnUse">
<stop stop-color="#2AFFF0"/>
<stop offset="0.74" stop-color="#005E8F"/>
</linearGradient>
<linearGradient id="paint6_linear_1_3097" x1="-51.0098" y1="36.93" x2="765.76" y2="36.93" gradientUnits="userSpaceOnUse">
<stop stop-color="#2AFFF0"/>
<stop offset="0.74" stop-color="#005E8F"/>
</linearGradient>
<linearGradient id="paint7_linear_1_3097" x1="-51.0115" y1="36.9302" x2="765.761" y2="36.9302" gradientUnits="userSpaceOnUse">
<stop stop-color="#2AFFF0"/>
<stop offset="0.74" stop-color="#005E8F"/>
</linearGradient>
<linearGradient id="paint8_linear_1_3097" x1="-51.0094" y1="36.93" x2="765.76" y2="36.93" gradientUnits="userSpaceOnUse">
<stop stop-color="#2AFFF0"/>
<stop offset="0.74" stop-color="#005E8F"/>
</linearGradient>
<linearGradient id="paint9_linear_1_3097" x1="-51.01" y1="36.9302" x2="765.76" y2="36.9302" gradientUnits="userSpaceOnUse">
<stop stop-color="#2AFFF0"/>
<stop offset="0.74" stop-color="#005E8F"/>
</linearGradient>
</defs>
</svg>
