<svg width="629" height="74" viewBox="0 0 629 74" fill="none" xmlns="http://www.w3.org/2000/svg">
<path d="M11.3 63.0701C14.77 66.3701 18.88 68.9201 23.65 70.7201C28.42 72.5201 33.57 73.4202 39.1 73.4202C44.63 73.4202 49.87 72.5201 54.6 70.7201C59.33 68.9201 63.45 66.3901 66.95 63.1201C70.45 59.8501 73.16 56.0001 75.1 51.5701C77.03 47.1401 78 42.2502 78 36.9202C78 31.5902 77.02 26.8202 75.05 22.4202C73.08 18.0202 70.37 14.1902 66.9 10.9202C63.43 7.65017 59.33 5.12007 54.6 3.32007C49.87 1.52007 44.7 0.620117 39.1 0.620117C33.5 0.620117 28.33 1.52007 23.6 3.32007C18.87 5.12007 14.77 7.67009 11.3 10.9701C7.83002 14.2701 5.12002 18.1201 3.15002 22.5201C1.18002 26.9201 0.200012 31.7202 0.200012 36.9202C0.200012 42.1202 1.18002 47.0401 3.15002 51.4701C5.12002 55.9001 7.83002 59.7701 11.3 63.0701ZM21.6 28.7701C22.53 26.3401 23.87 24.2401 25.6 22.4701C27.33 20.7001 29.35 19.3502 31.65 18.4202C33.95 17.4902 36.43 17.0201 39.1 17.0201C41.77 17.0201 44.25 17.4902 46.55 18.4202C48.85 19.3502 50.85 20.7001 52.55 22.4701C54.25 24.2401 55.58 26.3401 56.55 28.7701C57.52 31.2001 58 33.9501 58 37.0201C58 40.0901 57.52 42.8401 56.55 45.2701C55.58 47.7001 54.25 49.8001 52.55 51.5701C50.85 53.3401 48.85 54.6901 46.55 55.6201C44.25 56.5501 41.77 57.0201 39.1 57.0201C36.43 57.0201 33.95 56.5501 31.65 55.6201C29.35 54.6901 27.33 53.3401 25.6 51.5701C23.87 49.8001 22.53 47.7001 21.6 45.2701C20.67 42.8401 20.2 40.0901 20.2 37.0201C20.2 33.9501 20.66 31.2001 21.6 28.7701Z" fill="url(#paint0_linear_1_3108)"/>
<path d="M134 40.3199C134 46.2499 132.85 50.52 130.55 53.12C128.25 55.72 125.03 57.02 120.9 57.02C116.77 57.02 113.53 55.72 111.2 53.12C108.87 50.52 107.7 46.2499 107.7 40.3199V2.02002H87.9V40.92C87.9 51.25 90.78 59.25 96.55 64.92C102.32 70.59 110.37 73.42 120.7 73.42C131.03 73.42 139.02 70.59 144.85 64.92C150.68 59.25 153.6 51.25 153.6 40.92V2.02002H134V40.3199Z" fill="url(#paint1_linear_1_3108)"/>
<path d="M226.35 41.62C228.85 37.82 230.1 33.2199 230.1 27.8199C230.1 19.8199 227.36 13.52 221.9 8.92004C216.43 4.32004 208.56 2.02002 198.3 2.02002H167.1V72.02H186.9V53.42H197.61L210.3 72.02H231.5L216.39 50.01C220.67 47.99 223.99 45.2 226.35 41.62ZM207.1 35.42C205.03 37.22 201.93 38.12 197.8 38.12H186.9V17.62H197.8C201.93 17.62 205.03 18.53 207.1 20.37C209.16 22.2 210.2 24.6799 210.2 27.8199C210.2 30.9599 209.16 33.62 207.1 35.42Z" fill="url(#paint2_linear_1_3108)"/>
<path d="M302.06 47.6801L283 2.02002H261.7L291.6 72.02H311.1L341.1 2.02002H321.5L302.06 47.6801Z" fill="url(#paint3_linear_1_3108)"/>
<path d="M365.1 2.02002H345.3V72.02H365.1V2.02002Z" fill="url(#paint4_linear_1_3108)"/>
<path d="M426.85 35.7701C424.48 34.2701 421.9 33.0702 419.1 32.1702C416.3 31.2702 413.48 30.5202 410.65 29.9202C407.82 29.3202 405.23 28.7402 402.9 28.1702C400.57 27.6002 398.67 26.8701 397.2 25.9701C395.73 25.0701 395 23.8201 395 22.2201C395 21.1501 395.37 20.1501 396.1 19.2201C396.83 18.2901 398.03 17.5202 399.7 16.9202C401.37 16.3202 403.57 16.0201 406.3 16.0201C409.37 16.0201 412.53 16.4501 415.8 17.3201C419.07 18.1901 422.37 19.5502 425.7 21.4202L431.7 6.82007C428.3 4.75007 424.38 3.20017 419.95 2.17017C415.52 1.14017 411 0.620117 406.4 0.620117C399.53 0.620117 393.8 1.65009 389.2 3.72009C384.6 5.79009 381.17 8.52017 378.9 11.9202C376.63 15.3202 375.5 19.0901 375.5 23.2201C375.5 26.9501 376.21 30.0501 377.65 32.5201C379.08 34.9901 380.97 36.9901 383.3 38.5201C385.63 40.0501 388.23 41.2901 391.1 42.2201C393.97 43.1501 396.78 43.9001 399.55 44.4701C402.32 45.0401 404.88 45.6401 407.25 46.2701C409.62 46.9001 411.53 47.6701 413 48.5701C414.46 49.4701 415.2 50.6901 415.2 52.2201C415.2 53.4201 414.82 54.4501 414.05 55.3201C413.28 56.1901 412.08 56.8501 410.45 57.3201C408.82 57.7901 406.6 58.0201 403.8 58.0201C399.73 58.0201 395.65 57.3701 391.55 56.0701C387.45 54.7701 383.83 53.1201 380.7 51.1201L374.2 65.8201C377.47 68.0201 381.75 69.8401 387.05 71.2701C392.35 72.7001 397.9 73.4202 403.7 73.4202C410.63 73.4202 416.4 72.3901 421 70.3201C425.6 68.2501 429.05 65.5001 431.35 62.0701C433.65 58.6401 434.8 54.8901 434.8 50.8201C434.8 47.1501 434.07 44.1002 432.6 41.6702C431.13 39.2402 429.22 37.2701 426.85 35.7701Z" fill="url(#paint5_linear_1_3108)"/>
<path d="M463.7 2.02002H443.9V72.02H463.7V2.02002Z" fill="url(#paint6_linear_1_3108)"/>
<path d="M540.8 10.9202C537.33 7.65017 533.23 5.12007 528.5 3.32007C523.77 1.52007 518.6 0.620117 513 0.620117C507.4 0.620117 502.23 1.52007 497.5 3.32007C492.77 5.12007 488.67 7.67009 485.2 10.9701C481.73 14.2701 479.02 18.1201 477.05 22.5201C475.08 26.9201 474.1 31.7202 474.1 36.9202C474.1 42.1202 475.08 47.0401 477.05 51.4701C479.02 55.9001 481.73 59.7701 485.2 63.0701C488.67 66.3701 492.78 68.9201 497.55 70.7201C502.32 72.5201 507.47 73.4202 513 73.4202C518.53 73.4202 523.77 72.5201 528.5 70.7201C533.23 68.9201 537.35 66.3901 540.85 63.1201C544.35 59.8501 547.06 56.0001 549 51.5701C550.93 47.1401 551.9 42.2502 551.9 36.9202C551.9 31.5902 550.92 26.8202 548.95 22.4202C546.98 18.0202 544.27 14.1902 540.8 10.9202ZM530.45 45.2701C529.48 47.7001 528.15 49.8001 526.45 51.5701C524.75 53.3401 522.75 54.6901 520.45 55.6201C518.15 56.5501 515.67 57.0201 513 57.0201C510.33 57.0201 507.85 56.5501 505.55 55.6201C503.25 54.6901 501.23 53.3401 499.5 51.5701C497.77 49.8001 496.43 47.7001 495.5 45.2701C494.57 42.8401 494.1 40.0901 494.1 37.0201C494.1 33.9501 494.56 31.2001 495.5 28.7701C496.43 26.3401 497.77 24.2401 499.5 22.4701C501.23 20.7001 503.25 19.3502 505.55 18.4202C507.85 17.4902 510.33 17.0201 513 17.0201C515.67 17.0201 518.15 17.4902 520.45 18.4202C522.75 19.3502 524.75 20.7001 526.45 22.4701C528.15 24.2401 529.48 26.3401 530.45 28.7701C531.42 31.2001 531.9 33.9501 531.9 37.0201C531.9 40.0901 531.42 42.8401 530.45 45.2701Z" fill="url(#paint7_linear_1_3108)"/>
<path d="M609.5 39.3L578.7 2.02002H562.4V72.02H581.7V34.72L612.6 72.02H628.9V2.02002H609.5V39.3Z" fill="url(#paint8_linear_1_3108)"/>
<defs>
<linearGradient id="paint0_linear_1_3108" x1="0.200012" y1="37.0201" x2="640.25" y2="37.0201" gradientUnits="userSpaceOnUse">
<stop stop-color="#2AFFF0"/>
<stop offset="0.74" stop-color="#005E8F"/>
</linearGradient>
<linearGradient id="paint1_linear_1_3108" x1="-113" y1="37.72" x2="640.25" y2="37.72" gradientUnits="userSpaceOnUse">
<stop stop-color="#2AFFF0"/>
<stop offset="0.74" stop-color="#005E8F"/>
</linearGradient>
<linearGradient id="paint2_linear_1_3108" x1="-113" y1="37.02" x2="640.25" y2="37.02" gradientUnits="userSpaceOnUse">
<stop stop-color="#2AFFF0"/>
<stop offset="0.74" stop-color="#005E8F"/>
</linearGradient>
<linearGradient id="paint3_linear_1_3108" x1="0.200034" y1="37.02" x2="640.25" y2="37.02" gradientUnits="userSpaceOnUse">
<stop stop-color="#2AFFF0"/>
<stop offset="0.74" stop-color="#005E8F"/>
</linearGradient>
<linearGradient id="paint4_linear_1_3108" x1="-113" y1="-1404" x2="640.25" y2="-1404" gradientUnits="userSpaceOnUse">
<stop stop-color="#2AFFF0"/>
<stop offset="0.74" stop-color="#005E8F"/>
</linearGradient>
<linearGradient id="paint5_linear_1_3108" x1="-113" y1="-1404" x2="640.25" y2="-1404" gradientUnits="userSpaceOnUse">
<stop stop-color="#2AFFF0"/>
<stop offset="0.74" stop-color="#005E8F"/>
</linearGradient>
<linearGradient id="paint6_linear_1_3108" x1="-113" y1="-1404" x2="640.25" y2="-1404" gradientUnits="userSpaceOnUse">
<stop stop-color="#2AFFF0"/>
<stop offset="0.74" stop-color="#005E8F"/>
</linearGradient>
<linearGradient id="paint7_linear_1_3108" x1="0.199667" y1="37.0201" x2="640.25" y2="37.0201" gradientUnits="userSpaceOnUse">
<stop stop-color="#2AFFF0"/>
<stop offset="0.74" stop-color="#005E8F"/>
</linearGradient>
<linearGradient id="paint8_linear_1_3108" x1="-113" y1="37.02" x2="-112" y2="37.02" gradientUnits="userSpaceOnUse">
<stop stop-color="#2AFFF0"/>
<stop offset="0.74" stop-color="#005E8F"/>
</linearGradient>
</defs>
</svg>
